<?xml version="1.0" encoding="utf-8"?>
<!-- Generator: Adobe Illustrator 20.1.0, SVG Export Plug-In . SVG Version: 6.00 Build 0)  -->
<svg version="1.1" id="Layer_1" xmlns="http://www.w3.org/2000/svg" xmlns:xlink="http://www.w3.org/1999/xlink" x="0px" y="0px"
	 viewBox="0 0 350 30" style="enable-background:new 0 0 350 30;" xml:space="preserve">
<style type="text/css">
	.st0{fill:#FFBB00;}
	.st1{fill:#FFFFFF;}
</style>
<g>
	<path class="st0" d="M76.6,23.5l-1.1-4.1h-7.2l-1.1,4.1h-6.6l7.2-22.2h8l7.3,22.2H76.6z M74.3,14.4l-1-3.6C73.1,10,72.8,9,72.5,7.7
		c-0.3-1.3-0.5-2.2-0.6-2.8c-0.1,0.5-0.3,1.4-0.5,2.5c-0.3,1.2-0.9,3.5-1.8,7H74.3z"/>
	<path class="st1" d="M96,23.5v-9.4c0-1.1-0.2-2-0.5-2.6c-0.3-0.6-0.9-0.9-1.6-0.9c-1,0-1.7,0.4-2.2,1.2c-0.4,0.8-0.7,2.2-0.7,4.1
		v7.5h-5.9V6.4h4.5l0.7,2.1h0.3c0.5-0.8,1.2-1.4,2.1-1.8C93.7,6.2,94.7,6,95.9,6c1.9,0,3.4,0.6,4.4,1.6c1.1,1.1,1.6,2.6,1.6,4.6
		v11.2H96z"/>
	<path class="st1" d="M103.9,6.4h6.2l2.9,9.8c0.1,0.5,0.2,1.1,0.3,1.9h0.1c0.1-0.7,0.2-1.3,0.4-1.8l3-9.9h6L116,24.6
		c-0.9,2.3-1.9,4-3.2,4.9c-1.3,1-2.9,1.4-5,1.4c-0.8,0-1.6-0.1-2.4-0.3V26c0.5,0.1,1.1,0.2,1.8,0.2c0.5,0,1-0.1,1.4-0.3
		c0.4-0.2,0.7-0.5,1-0.9c0.3-0.4,0.6-1,0.9-1.8L103.9,6.4z"/>
	<path class="st1" d="M138.1,18.2c0,1.8-0.6,3.2-1.9,4.2c-1.3,0.9-3,1.4-5.4,1.4c-1.3,0-2.4-0.1-3.3-0.2c-0.9-0.1-1.9-0.4-2.9-0.7
		v-4.7c0.9,0.4,1.9,0.7,3,1c1.1,0.3,2.1,0.4,2.9,0.4c1.3,0,1.9-0.3,1.9-0.9c0-0.3-0.2-0.6-0.5-0.8c-0.4-0.2-1.4-0.7-3.1-1.4
		c-1.6-0.6-2.7-1.4-3.3-2.2c-0.6-0.8-0.9-1.9-0.9-3.1c0-1.6,0.6-2.8,1.8-3.7c1.2-0.9,3-1.3,5.2-1.3c1.1,0,2.2,0.1,3.2,0.4
		c1,0.2,2,0.6,3.1,1.1l-1.6,3.8c-0.8-0.4-1.6-0.7-2.5-0.9c-0.9-0.2-1.6-0.4-2.1-0.4c-1,0-1.5,0.2-1.5,0.7c0,0.3,0.2,0.5,0.5,0.7
		c0.3,0.2,1.3,0.6,2.9,1.3c1.2,0.5,2.1,1,2.7,1.5c0.6,0.5,1,1,1.3,1.7C138,16.5,138.1,17.3,138.1,18.2z"/>
	<path class="st1" d="M149.7,23.8c-2.9,0-5.1-0.8-6.7-2.3c-1.6-1.5-2.4-3.7-2.4-6.5c0-2.9,0.7-5.1,2.2-6.7c1.5-1.5,3.6-2.3,6.3-2.3
		c2.6,0,4.6,0.7,6,2c1.4,1.3,2.1,3.3,2.1,5.8v2.6h-10.6c0,1,0.4,1.7,1.1,2.3c0.7,0.5,1.6,0.8,2.7,0.8c1,0,2-0.1,2.9-0.3
		c0.9-0.2,1.8-0.5,2.8-1v4.3c-0.9,0.5-1.9,0.8-2.9,1C152.2,23.7,151,23.8,149.7,23.8z M149.3,10.1c-0.7,0-1.3,0.2-1.7,0.7
		c-0.5,0.4-0.7,1.1-0.8,2.1h5.1c0-0.8-0.3-1.5-0.7-2C150.7,10.3,150.1,10.1,149.3,10.1z"/>
	<path class="st1" d="M171.7,23.5l-1.1-2.3h-0.1c-0.8,1-1.6,1.7-2.4,2c-0.8,0.4-1.9,0.5-3.2,0.5c-1.6,0-2.9-0.5-3.8-1.5
		c-0.9-1-1.4-2.3-1.4-4.1c0-1.8,0.6-3.2,1.9-4.1c1.3-0.9,3.1-1.4,5.5-1.5l2.9-0.1v-0.2c0-1.4-0.7-2.1-2.1-2.1
		c-1.3,0-2.8,0.4-4.8,1.3l-1.7-3.9c2-1,4.5-1.5,7.6-1.5c2.2,0,3.9,0.5,5.1,1.6c1.2,1.1,1.8,2.6,1.8,4.6v11.2H171.7z M167.3,19.6
		c0.7,0,1.3-0.2,1.8-0.7c0.5-0.5,0.8-1,0.8-1.8v-1.3l-1.4,0.1c-1.9,0.1-2.9,0.8-2.9,2.1C165.7,19.1,166.2,19.6,167.3,19.6z"/>
	<path class="st1" d="M185.8,23.5h-5.9V-0.1h5.9V23.5z"/>
	<path class="st1" d="M203.1,18.2c0,1.8-0.6,3.2-1.9,4.2c-1.3,0.9-3,1.4-5.4,1.4c-1.3,0-2.4-0.1-3.3-0.2c-0.9-0.1-1.9-0.4-2.9-0.7
		v-4.7c0.9,0.4,1.9,0.7,3,1c1.1,0.3,2.1,0.4,2.9,0.4c1.3,0,1.9-0.3,1.9-0.9c0-0.3-0.2-0.6-0.5-0.8c-0.4-0.2-1.4-0.7-3.1-1.4
		c-1.6-0.6-2.7-1.4-3.3-2.2c-0.6-0.8-0.9-1.9-0.9-3.1c0-1.6,0.6-2.8,1.8-3.7c1.2-0.9,3-1.3,5.2-1.3c1.1,0,2.2,0.1,3.2,0.4
		c1,0.2,2,0.6,3.1,1.1l-1.6,3.8c-0.8-0.4-1.6-0.7-2.5-0.9c-0.9-0.2-1.6-0.4-2.1-0.4c-1,0-1.5,0.2-1.5,0.7c0,0.3,0.2,0.5,0.5,0.7
		c0.3,0.2,1.3,0.6,2.9,1.3c1.2,0.5,2.1,1,2.7,1.5c0.6,0.5,1,1,1.3,1.7C203,16.5,203.1,17.3,203.1,18.2z"/>
	<path class="st1" d="M213.5,14.7c0-2.9,0.4-5.6,1.1-7.9c0.7-2.4,1.8-4.4,3.2-6h4.9c-1.3,1.8-2.3,3.8-2.9,6.2s-1,4.9-1,7.7
		c0,2.6,0.3,5.1,1,7.5c0.7,2.4,1.6,4.4,2.9,6.2h-4.9c-1.4-1.6-2.4-3.6-3.2-5.9S213.5,17.6,213.5,14.7z"/>
	<path class="st1" d="M225.9,1.4h7.7c3,0,5.2,0.4,6.7,1.3c1.5,0.9,2.2,2.3,2.2,4.2c0,1.2-0.3,2.3-1,3.2c-0.6,0.9-1.5,1.4-2.5,1.7
		v0.2c1.4,0.4,2.4,1,3,1.8c0.6,0.8,0.9,1.9,0.9,3.3c0,2-0.8,3.6-2.3,4.7c-1.5,1.2-3.6,1.7-6.2,1.7h-8.6V1.4z M231.9,9.9h1.8
		c0.9,0,1.5-0.2,2-0.5c0.5-0.4,0.7-0.9,0.7-1.6c0-1.2-0.9-1.9-2.8-1.9h-1.7V9.9z M231.9,14.2v4.6h2.1c1.9,0,2.8-0.8,2.8-2.4
		c0-0.7-0.3-1.3-0.8-1.7c-0.5-0.4-1.2-0.6-2.2-0.6H231.9z"/>
	<path class="st1" d="M260,23.5h-13.1V1.4H260v4.8h-7.2v3.5h6.6v4.8h-6.6v4.2h7.2V23.5z"/>
	<path class="st1" d="M271.5,14.7c0,2.9-0.4,5.5-1.1,7.8c-0.7,2.3-1.8,4.3-3.2,5.9h-4.9c1.3-1.7,2.2-3.8,2.9-6.2
		c0.7-2.4,1-4.9,1-7.6c0-2.7-0.3-5.2-1-7.6c-0.7-2.4-1.7-4.5-3-6.3h4.9c1.4,1.7,2.5,3.7,3.2,6.1C271.1,9.2,271.5,11.8,271.5,14.7z"
		/>
</g>
</svg>
