<?xml version="1.0" encoding="utf-8"?>
<!-- Generator: Adobe Illustrator 20.1.0, SVG Export Plug-In . SVG Version: 6.00 Build 0)  -->
<svg version="1.1" id="Layer_1" xmlns="http://www.w3.org/2000/svg" xmlns:xlink="http://www.w3.org/1999/xlink" x="0px" y="0px"
	 viewBox="0 0 350 30" style="enable-background:new 0 0 350 30;" xml:space="preserve">
<style type="text/css">
	.st0{fill:#FFBB00;}
	.st1{fill:#FFFFFF;}
</style>
<g>
	<path class="st0" d="M42.9,6.5c-1.4,0-2.5,0.6-3.3,1.7c-0.8,1.2-1.2,2.8-1.2,4.8c0,4.3,1.6,6.4,4.9,6.4c1,0,1.9-0.1,2.8-0.4
		c0.9-0.3,1.8-0.6,2.8-1v5.1c-1.8,0.8-3.9,1.2-6.3,1.2c-3.3,0-5.9-1-7.7-2.9c-1.8-1.9-2.7-4.7-2.7-8.4c0-2.3,0.4-4.3,1.3-6
		c0.9-1.7,2.1-3.1,3.7-4c1.6-0.9,3.5-1.4,5.7-1.4c2.4,0,4.7,0.5,6.9,1.6L48,7.8c-0.8-0.4-1.6-0.7-2.5-1C44.7,6.6,43.8,6.5,42.9,6.5z
		"/>
	<path class="st1" d="M64,24l-1.1-2.3h-0.1c-0.8,1-1.6,1.7-2.4,2c-0.8,0.4-1.9,0.5-3.2,0.5c-1.6,0-2.9-0.5-3.8-1.5
		c-0.9-1-1.4-2.3-1.4-4.1c0-1.8,0.6-3.2,1.9-4.1c1.3-0.9,3.1-1.4,5.5-1.5l2.9-0.1v-0.2c0-1.4-0.7-2.1-2.1-2.1
		c-1.3,0-2.8,0.4-4.8,1.3l-1.7-3.9c2-1,4.5-1.5,7.6-1.5c2.2,0,3.9,0.5,5.1,1.6c1.2,1.1,1.8,2.6,1.8,4.6V24H64z M59.6,20.1
		c0.7,0,1.3-0.2,1.8-0.7c0.5-0.5,0.8-1,0.8-1.8v-1.3l-1.4,0.1c-1.9,0.1-2.9,0.8-2.9,2.1C57.9,19.6,58.5,20.1,59.6,20.1z"/>
	<path class="st1" d="M82.5,6.5c0.5,0,1,0,1.5,0.1l0.3,0.1l-0.5,5.6c-0.5-0.1-1.2-0.2-2-0.2c-1.3,0-2.2,0.3-2.8,0.9
		c-0.6,0.6-0.9,1.4-0.9,2.6V24h-5.9V6.9h4.4l0.9,2.7h0.3c0.5-0.9,1.2-1.6,2.1-2.2C80.7,6.8,81.6,6.5,82.5,6.5z"/>
	<path class="st1" d="M92.6,24h-5.9V0.4h5.9V24z"/>
	<path class="st1" d="M123.9,12.5c0,3.7-1,6.5-3.1,8.5c-2,2-4.9,3-8.6,3h-7.2V1.9h7.7c3.6,0,6.3,0.9,8.2,2.7
		C122.9,6.4,123.9,9,123.9,12.5z M117.6,12.7c0-2-0.4-3.5-1.2-4.5c-0.8-1-2-1.5-3.7-1.5H111v12.4h1.3c1.8,0,3.1-0.5,4-1.6
		S117.6,14.8,117.6,12.7z"/>
	<path class="st1" d="M127.3,2.6c0-0.9,0.2-1.5,0.7-2c0.5-0.4,1.3-0.7,2.4-0.7c1.1,0,1.9,0.2,2.4,0.7c0.5,0.4,0.8,1.1,0.8,2
		c0,1.7-1.1,2.6-3.2,2.6C128.4,5.2,127.3,4.3,127.3,2.6z M133.4,24h-5.9V6.9h5.9V24z"/>
	<path class="st1" d="M145.8,24.3c-2.9,0-5.1-0.8-6.7-2.3c-1.6-1.5-2.4-3.7-2.4-6.5c0-2.9,0.7-5.1,2.2-6.7c1.5-1.5,3.6-2.3,6.3-2.3
		c2.6,0,4.6,0.7,6,2c1.4,1.3,2.1,3.3,2.1,5.8V17h-10.6c0,1,0.4,1.7,1.1,2.3c0.7,0.5,1.6,0.8,2.7,0.8c1,0,2-0.1,2.9-0.3
		c0.9-0.2,1.8-0.5,2.8-1V23c-0.9,0.5-1.9,0.8-2.9,1C148.4,24.2,147.2,24.3,145.8,24.3z M145.5,10.6c-0.7,0-1.3,0.2-1.7,0.7
		c-0.5,0.4-0.7,1.1-0.8,2.1h5.1c0-0.8-0.3-1.5-0.7-2C146.8,10.8,146.2,10.6,145.5,10.6z"/>
	<path class="st1" d="M165.1,19.6c0.8,0,1.8-0.2,2.9-0.6v4.3c-0.8,0.3-1.6,0.6-2.3,0.7c-0.7,0.1-1.6,0.2-2.5,0.2
		c-2,0-3.4-0.5-4.3-1.5c-0.9-1-1.3-2.5-1.3-4.5v-7.1h-2.1V8.9l2.6-1.9l1.5-3.6h3.9v3.4h4.2v4.4h-4.2V18
		C163.5,19.1,164,19.6,165.1,19.6z"/>
	<path class="st1" d="M181.3,6.5c0.5,0,1,0,1.5,0.1l0.3,0.1l-0.5,5.6c-0.5-0.1-1.2-0.2-2-0.2c-1.3,0-2.2,0.3-2.8,0.9
		c-0.6,0.6-0.9,1.4-0.9,2.6V24H171V6.9h4.4l0.9,2.7h0.3c0.5-0.9,1.2-1.6,2.1-2.2C179.5,6.8,180.4,6.5,181.3,6.5z"/>
	<path class="st1" d="M185.4,2.6c0-0.9,0.2-1.5,0.7-2c0.5-0.4,1.3-0.7,2.4-0.7s1.9,0.2,2.4,0.7c0.5,0.4,0.8,1.1,0.8,2
		c0,1.7-1.1,2.6-3.2,2.6C186.4,5.2,185.4,4.3,185.4,2.6z M191.5,24h-5.9V6.9h5.9V24z"/>
	<path class="st1" d="M203.4,24.3c-2.8,0-4.9-0.8-6.4-2.3s-2.2-3.7-2.2-6.5c0-2.8,0.8-5.1,2.3-6.6c1.6-1.6,3.8-2.3,6.7-2.3
		c2,0,3.9,0.4,5.6,1.3l-1.7,4.4c-0.7-0.3-1.4-0.6-2-0.7c-0.6-0.2-1.2-0.3-1.9-0.3c-1,0-1.7,0.4-2.2,1.1c-0.5,0.7-0.8,1.8-0.8,3.2
		c0,2.7,1,4.1,3,4.1c1.7,0,3.4-0.5,5-1.5v4.7C207.4,23.8,205.5,24.3,203.4,24.3z"/>
	<path class="st1" d="M223.1,24v-9.4c0-2.3-0.7-3.5-2-3.5c-1,0-1.7,0.4-2.1,1.2c-0.5,0.8-0.7,2.2-0.7,4V24h-5.9V0.4h5.9v3.3
		c0,1.5-0.1,3.2-0.2,5.2h0.3c0.6-0.9,1.2-1.5,2-1.9c0.8-0.4,1.7-0.5,2.7-0.5c1.9,0,3.4,0.6,4.5,1.7c1.1,1.1,1.6,2.7,1.6,4.6V24
		H223.1z"/>
	<path class="st1" d="M240.2,15.2c0-2.9,0.4-5.6,1.1-7.9c0.7-2.4,1.8-4.4,3.2-6h4.9c-1.3,1.8-2.3,3.8-2.9,6.2s-1,4.9-1,7.7
		c0,2.6,0.3,5.1,1,7.5c0.7,2.4,1.6,4.4,2.9,6.2h-4.9c-1.4-1.6-2.4-3.6-3.2-5.9S240.2,18.1,240.2,15.2z"/>
	<path class="st1" d="M271.4,12.5c0,3.7-1,6.5-3,8.5s-4.9,3-8.6,3h-7.2V1.9h7.7c3.6,0,6.3,0.9,8.2,2.7C270.4,6.4,271.4,9,271.4,12.5
		z M265.2,12.7c0-2-0.4-3.5-1.2-4.5c-0.8-1-2-1.5-3.7-1.5h-1.7v12.4h1.3c1.8,0,3.1-0.5,4-1.6S265.2,14.8,265.2,12.7z"/>
	<path class="st1" d="M288.5,24h-13.1V1.9h13.1v4.8h-7.2v3.5h6.6v4.8h-6.6v4.2h7.2V24z"/>
	<path class="st1" d="M300,15.2c0,2.9-0.4,5.5-1.1,7.8c-0.7,2.3-1.8,4.3-3.2,5.9h-4.9c1.3-1.7,2.2-3.8,2.9-6.2s1-4.9,1-7.6
		c0-2.7-0.3-5.2-1-7.6c-0.7-2.4-1.7-4.5-3-6.3h4.9c1.4,1.7,2.5,3.7,3.2,6.1C299.6,9.7,300,12.3,300,15.2z"/>
</g>
</svg>
