<?xml version="1.0" encoding="utf-8"?>
<!-- Generator: Adobe Illustrator 20.1.0, SVG Export Plug-In . SVG Version: 6.00 Build 0)  -->
<svg version="1.1" id="Layer_1" xmlns="http://www.w3.org/2000/svg" xmlns:xlink="http://www.w3.org/1999/xlink" x="0px" y="0px"
	 viewBox="0 0 716 495" style="enable-background:new 0 0 716 495;" xml:space="preserve">
<style type="text/css">
	.st0{opacity:2.000000e-02;}
	.st1{fill:#676767;}
	.st2{opacity:2.000000e-02;fill:#676767;enable-background:new    ;}
	.st3{opacity:0.44;fill:#676767;enable-background:new    ;}
</style>
<g class="st0">
	<rect x="504.6" y="139.8" class="st1" width="0.9" height="106.8"/>
</g>
<g class="st0">
	<rect x="504.6" y="482.4" class="st1" width="0.9" height="11.2"/>
</g>
<g class="st0">
	<rect x="504.6" y="246.6" class="st1" width="0.9" height="11.2"/>
</g>
<g class="st0">
	<rect x="504.6" y="257.8" class="st1" width="0.9" height="106.6"/>
</g>
<g class="st0">
	<rect x="504.6" y="364.5" class="st1" width="0.9" height="11.2"/>
</g>
<g class="st0">
	<rect x="504.6" y="128.6" class="st1" width="0.9" height="11.2"/>
</g>
<g class="st0">
	<rect x="504.6" y="375.7" class="st1" width="0.9" height="106.6"/>
</g>
<g class="st0">
	<rect x="504.6" y="38.3" class="st1" width="0.9" height="90.2"/>
</g>
<g class="st0">
	<polygon class="st1" points="380.7,160.4 380.5,159.5 491.4,141.5 491.5,142.5 	"/>
</g>
<g class="st0">
	<rect x="249.7" y="179.5" transform="matrix(0.9869 -0.1611 0.1611 0.9869 -25.65 43.6289)" class="st1" width="13" height="0.9"/>
</g>
<g class="st0">
	<polygon class="st1" points="491.5,142.5 491.4,141.5 505,139.3 505.2,140.3 	"/>
</g>
<g class="st0">
	
		<rect x="261.9" y="170" transform="matrix(0.9869 -0.1612 0.1612 0.9869 -23.3522 53.0812)" class="st1" width="107.1" height="0.9"/>
</g>
<g class="st0">
	<polygon class="st1" points="368.4,162.4 368.2,161.4 380.5,159.5 380.7,160.4 	"/>
</g>
<g class="st0">
	
		<rect x="136.6" y="197.8" transform="matrix(0.9869 -0.1612 0.1612 0.9869 -30.0814 25.7315)" class="st1" width="13.9" height="0.9"/>
</g>
<g class="st0">
	
		<rect x="149.7" y="188.6" transform="matrix(0.9869 -0.1611 0.1611 0.9869 -27.8491 34.6954)" class="st1" width="100.7" height="0.9"/>
</g>
<g class="st0">
	
		<rect x="249.6" y="291.4" transform="matrix(0.9906 -0.1371 0.1371 0.9906 -37.5886 37.8637)" class="st1" width="13" height="0.9"/>
</g>
<g class="st0">
	<rect x="43.1" y="314.2" transform="matrix(0.9906 -0.1371 0.1371 0.9906 -42.2841 15.325)" class="st1" width="94" height="0.9"/>
</g>
<g class="st0">
	
		<rect x="136.6" y="306.9" transform="matrix(0.9906 -0.1371 0.1371 0.9906 -40.7753 22.5767)" class="st1" width="13.8" height="0.9"/>
</g>
<g class="st0">
	
		<rect x="491.4" y="258.2" transform="matrix(0.9905 -0.1376 0.1376 0.9905 -30.8505 71.01)" class="st1" width="13.5" height="0.9"/>
</g>
<g class="st0">
	
		<rect x="262" y="283.3" transform="matrix(0.9905 -0.1376 0.1376 0.9905 -36.0401 46.0957)" class="st1" width="106.7" height="0.9"/>
</g>
<g class="st0">
	
		<rect x="380.1" y="266.8" transform="matrix(0.9906 -0.1371 0.1371 0.9906 -32.5154 62.3049)" class="st1" width="111.9" height="0.9"/>
</g>
<g class="st0">
	
		<rect x="32.1" y="321.3" transform="matrix(0.9906 -0.1371 0.1371 0.9906 -43.7536 8.2253)" class="st1" width="11.4" height="0.9"/>
</g>
<g class="st0">
	
		<rect x="149.9" y="299.1" transform="matrix(0.9906 -0.1371 0.1371 0.9906 -39.1751 30.2529)" class="st1" width="100.3" height="0.9"/>
</g>
<g class="st0">
	
		<rect x="368.3" y="275.2" transform="matrix(0.9906 -0.1371 0.1371 0.9906 -34.254 53.9397)" class="st1" width="12.4" height="0.9"/>
</g>
<g class="st0">
	<polygon class="st1" points="368.3,391.5 368.2,390.6 380.6,389.2 380.7,390.1 	"/>
</g>
<g class="st0">
	
		<rect x="136.6" y="415.9" transform="matrix(0.9937 -0.1122 0.1122 0.9937 -45.8079 18.7257)" class="st1" width="13.8" height="0.9"/>
</g>
<g class="st0">
	
		<rect x="150" y="409.5" transform="matrix(0.9937 -0.1122 0.1122 0.9937 -44.7316 25.0304)" class="st1" width="100" height="0.9"/>
</g>
<g class="st0">
	
		<rect x="249.7" y="403.2" transform="matrix(0.9937 -0.1123 0.1123 0.9937 -43.7068 31.3205)" class="st1" width="12.9" height="0.9"/>
</g>
<g class="st0">
	
		<rect x="262.2" y="396.5" transform="matrix(0.9937 -0.1117 0.1117 0.9937 -42.3677 37.7175)" class="st1" width="106.4" height="0.9"/>
</g>
<g class="st0">
	<polygon class="st1" points="491.5,377.6 491.4,376.7 504.8,375.2 504.9,376.1 	"/>
</g>
<g class="st0">
	
		<rect x="32.2" y="427.7" transform="matrix(0.9937 -0.1122 0.1122 0.9937 -47.8022 6.9565)" class="st1" width="11.4" height="0.9"/>
</g>
<g class="st0">
	<polygon class="st1" points="380.7,390.1 380.6,389.2 491.4,376.7 491.5,377.6 	"/>
</g>
<g class="st0">
	
		<rect x="43.2" y="421.9" transform="matrix(0.9937 -0.1122 0.1122 0.9937 -46.8209 12.7719)" class="st1" width="93.8" height="0.9"/>
</g>
<g class="st0">
	
		<rect x="491.4" y="493.6" transform="matrix(0.9961 -8.793236e-02 8.793236e-02 0.9961 -41.5173 45.7179)" class="st1" width="13.5" height="0.9"/>
</g>
<g class="st0">
	
		<rect x="630.3" y="188" transform="matrix(0.4679 -0.8838 0.8838 0.4679 153.2855 667.2915)" class="st1" width="0.9" height="36.6"/>
</g>
<g class="st0">
	
		<rect x="524.2" y="128" transform="matrix(0.4679 -0.8838 0.8838 0.4679 146.5691 543.5706)" class="st1" width="0.9" height="44.1"/>
</g>
<g class="st0">
	
		<rect x="596.7" y="168.6" transform="matrix(0.4678 -0.8838 0.8838 0.4678 151.2329 628.0747)" class="st1" width="0.9" height="39.7"/>
</g>
<g class="st0">
	
		<rect x="561.4" y="149.8" transform="matrix(0.4678 -0.8838 0.8838 0.4678 148.9077 586.9436)" class="st1" width="0.9" height="40.1"/>
</g>
<g class="st0">
	
		<rect x="630.4" y="296.2" transform="matrix(0.4077 -0.9131 0.9131 0.4077 86.9661 761.931)" class="st1" width="0.9" height="35.4"/>
</g>
<g class="st0">
	
		<rect x="561.4" y="263.7" transform="matrix(0.4076 -0.9132 0.9132 0.4076 74.299 680.7644)" class="st1" width="0.9" height="38.9"/>
</g>
<g class="st0">
	<rect x="661.1" y="311.7" transform="matrix(0.4079 -0.913 0.913 0.4079 92.4742 798.0664)" class="st1" width="0.9" height="32"/>
</g>
<g class="st0">
	
		<rect x="691" y="324.4" transform="matrix(0.4076 -0.9132 0.9132 0.4076 98.1765 833.4222)" class="st1" width="0.9" height="33.2"/>
</g>
<g class="st0">
	
		<rect x="524.2" y="245.2" transform="matrix(0.4076 -0.9132 0.9132 0.4076 67.4001 637.0342)" class="st1" width="0.9" height="42.7"/>
</g>
<g class="st0">
	
		<rect x="596.7" y="279.7" transform="matrix(0.4076 -0.9132 0.9132 0.4076 80.8555 722.3483)" class="st1" width="0.9" height="38.4"/>
</g>
<g class="st0">
	<polygon class="st1" points="614.5,416.5 579.4,403.6 579.7,402.7 614.8,415.7 	"/>
</g>
<g class="st0">
	<polygon class="st1" points="646.9,428.5 614.5,416.5 614.8,415.7 647.2,427.6 	"/>
</g>
<g class="st0">
	<polygon class="st1" points="579.4,403.6 543.9,390.5 544.3,389.7 579.7,402.7 	"/>
</g>
<g class="st0">
	<polygon class="st1" points="543.9,390.5 505,376.2 505.3,375.3 544.3,389.7 	"/>
</g>
<g class="st0">
	<polygon class="st1" points="706.5,450.4 676.1,439.2 676.4,438.4 706.8,449.6 	"/>
</g>
<g class="st0">
	<polygon class="st1" points="676.1,439.2 646.9,428.5 647.2,427.6 676.4,438.4 	"/>
</g>
<g class="st0">
	
		<rect x="261.9" y="158.8" transform="matrix(0.9869 -0.1611 0.1611 0.9869 -21.5309 52.8947)" class="st1" width="107.1" height="0.9"/>
</g>
<g class="st0">
	
		<rect x="249.7" y="168.3" transform="matrix(0.9869 -0.1611 0.1611 0.9869 -23.8414 43.4766)" class="st1" width="13" height="0.9"/>
</g>
<g class="st0">
	
		<rect x="149.7" y="177.4" transform="matrix(0.9869 -0.1611 0.1611 0.9869 -26.0365 34.5588)" class="st1" width="100.7" height="0.9"/>
</g>
<g class="st0">
	<polygon class="st1" points="380.7,149.1 380.5,148.2 491.4,130.3 491.5,131.2 	"/>
</g>
<g class="st0">
	
		<rect x="136.6" y="186.6" transform="matrix(0.9869 -0.1611 0.1611 0.9869 -28.2547 25.562)" class="st1" width="13.9" height="0.9"/>
</g>
<g class="st0">
	<polygon class="st1" points="491.5,131.2 491.4,130.3 505,128.1 505.2,129 	"/>
</g>
<g class="st0">
	<polygon class="st1" points="368.4,151.1 368.2,150.2 380.5,148.2 380.7,149.1 	"/>
</g>
<g class="st0">
	
		<rect x="122.5" y="91.4" transform="matrix(0.9797 -0.2006 0.2006 0.9797 -15.6415 29.2644)" class="st1" width="28.2" height="0.9"/>
</g>
<g class="st0">
	<rect x="262.4" y="63.5" transform="matrix(0.9797 -0.2006 0.2006 0.9797 -7.248 56.3374)" class="st1" width="24" height="0.9"/>
</g>
<g class="st0">
	
		<rect x="149.2" y="77.2" transform="matrix(0.9797 -0.2006 0.2006 0.9797 -11.377 42.9999)" class="st1" width="114.5" height="0.9"/>
</g>
<g class="st0">
	
		<rect x="380.1" y="255.5" transform="matrix(0.9906 -0.1371 0.1371 0.9906 -30.9756 62.1936)" class="st1" width="111.9" height="0.9"/>
</g>
<g class="st0">
	
		<rect x="136.7" y="295.6" transform="matrix(0.9906 -0.1371 0.1371 0.9906 -39.2302 22.4769)" class="st1" width="13.8" height="0.9"/>
</g>
<g class="st0">
	
		<rect x="368.2" y="263.9" transform="matrix(0.9906 -0.1371 0.1371 0.9906 -32.7125 53.8243)" class="st1" width="12.4" height="0.9"/>
</g>
<g class="st0">
	
		<rect x="262.1" y="272" transform="matrix(0.9905 -0.1376 0.1376 0.9905 -34.4938 46.0005)" class="st1" width="106.7" height="0.9"/>
</g>
<g class="st0">
	<rect x="32.2" y="310" transform="matrix(0.9906 -0.1371 0.1371 0.9906 -42.2081 8.1264)" class="st1" width="11.4" height="0.9"/>
</g>
<g class="st0">
	<rect x="43.2" y="302.9" transform="matrix(0.9906 -0.137 0.137 0.9906 -40.7116 15.2141)" class="st1" width="94" height="0.9"/>
</g>
<g class="st0">
	
		<rect x="249.7" y="280.1" transform="matrix(0.9906 -0.1371 0.1371 0.9906 -36.0482 37.7688)" class="st1" width="13" height="0.9"/>
</g>
<g class="st0">
	
		<rect x="491.5" y="246.9" transform="matrix(0.9905 -0.1376 0.1376 0.9905 -29.3022 70.9113)" class="st1" width="13.5" height="0.9"/>
</g>
<g class="st0">
	
		<rect x="150" y="287.8" transform="matrix(0.9906 -0.1371 0.1371 0.9906 -37.6325 30.155)" class="st1" width="100.3" height="0.9"/>
</g>
<g class="st0">
	
		<rect x="150.1" y="398.2" transform="matrix(0.9937 -0.1122 0.1122 0.9937 -43.4694 24.9662)" class="st1" width="100" height="0.9"/>
</g>
<g class="st0">
	
		<rect x="43.2" y="410.7" transform="matrix(0.9937 -0.1122 0.1122 0.9937 -45.5587 12.7077)" class="st1" width="93.8" height="0.9"/>
</g>
<g class="st0">
	
		<rect x="136.6" y="404.7" transform="matrix(0.9937 -0.1122 0.1122 0.9937 -44.5457 18.6615)" class="st1" width="13.8" height="0.9"/>
</g>
<g class="st0">
	
		<rect x="32.2" y="416.5" transform="matrix(0.9937 -0.1122 0.1122 0.9937 -46.5446 6.8819)" class="st1" width="11.4" height="0.9"/>
</g>
<g class="st0">
	
		<rect x="249.8" y="391.9" transform="matrix(0.9937 -0.1122 0.1122 0.9937 -42.4055 31.2254)" class="st1" width="12.9" height="0.9"/>
</g>
<g class="st0">
	<polygon class="st1" points="491.5,366.4 491.4,365.4 504.8,363.9 504.9,364.9 	"/>
</g>
<g class="st0">
	<polygon class="st1" points="380.7,378.9 380.6,377.9 491.4,365.4 491.5,366.4 	"/>
</g>
<g class="st0">
	<polygon class="st1" points="368.3,380.2 368.2,379.3 380.6,377.9 380.7,378.9 	"/>
</g>
<g class="st0">
	
		<rect x="262.2" y="385.3" transform="matrix(0.9937 -0.1117 0.1117 0.9937 -41.113 37.6428)" class="st1" width="106.4" height="0.9"/>
</g>
<g class="st0">
	
		<rect x="491.4" y="482.4" transform="matrix(0.9961 -8.797583e-02 8.797583e-02 0.9961 -40.5487 45.6942)" class="st1" width="13.5" height="0.9"/>
</g>
<g class="st0">
	
		<rect x="368.2" y="493.4" transform="matrix(0.9962 -8.747795e-02 8.747795e-02 0.9962 -41.7625 34.6465)" class="st1" width="12.4" height="0.9"/>
</g>
<g class="st0">
	
		<rect x="380.4" y="487.9" transform="matrix(0.9961 -8.796879e-02 8.796879e-02 0.9961 -41.2704 40.2531)" class="st1" width="111.3" height="0.9"/>
</g>
<g class="st0">
	
		<rect x="630.4" y="176.8" transform="matrix(0.4679 -0.8838 0.8838 0.4679 163.2738 661.3059)" class="st1" width="0.9" height="36.6"/>
</g>
<g class="st0">
	
		<rect x="561.4" y="138.5" transform="matrix(0.4678 -0.8838 0.8838 0.4678 158.9048 580.9627)" class="st1" width="0.9" height="40.1"/>
</g>
<g class="st0">
	<polygon class="st1" points="614.5,187 579.4,168.4 579.8,167.6 614.9,186.1 	"/>
</g>
<g class="st0">
	
		<rect x="524.2" y="116.8" transform="matrix(0.4678 -0.8838 0.8838 0.4678 156.5003 537.6003)" class="st1" width="0.9" height="44.1"/>
</g>
<g class="st0">
	
		<rect x="524.2" y="233.9" transform="matrix(0.4076 -0.9132 0.9132 0.4076 77.7122 630.2858)" class="st1" width="0.9" height="42.7"/>
</g>
<g class="st0">
	
		<rect x="691" y="313.1" transform="matrix(0.4076 -0.9132 0.9132 0.4076 108.5055 826.7535)" class="st1" width="0.9" height="33.2"/>
</g>
<g class="st0">
	
		<rect x="630.3" y="285" transform="matrix(0.4077 -0.9131 0.9131 0.4077 97.1864 755.2808)" class="st1" width="0.9" height="35.4"/>
</g>
<g class="st0">
	
		<rect x="561.4" y="252.5" transform="matrix(0.4077 -0.9131 0.9131 0.4077 84.4222 674.08)" class="st1" width="0.9" height="38.9"/>
</g>
<g class="st0">
	
		<rect x="661.1" y="300.4" transform="matrix(0.4079 -0.913 0.913 0.4079 102.7907 791.3989)" class="st1" width="0.9" height="32"/>
</g>
<g class="st0">
	
		<rect x="596.7" y="268.5" transform="matrix(0.4076 -0.9132 0.9132 0.4076 91.0693 715.6941)" class="st1" width="0.9" height="38.4"/>
</g>
<g class="st0">
	<polygon class="st1" points="706.5,439.2 676.1,428 676.4,427.1 706.8,438.3 	"/>
</g>
<g class="st0">
	<polygon class="st1" points="543.9,379.3 505,364.9 505.3,364 544.3,378.4 	"/>
</g>
<g class="st0">
	<polygon class="st1" points="579.4,392.4 543.9,379.3 544.3,378.4 579.7,391.5 	"/>
</g>
<g class="st0">
	<polygon class="st1" points="676.1,428 646.9,417.2 647.2,416.3 676.4,427.1 	"/>
</g>
<g class="st0">
	<polygon class="st1" points="646.9,417.2 614.5,405.3 614.8,404.4 647.2,416.3 	"/>
</g>
<g class="st0">
	<polygon class="st1" points="614.5,405.3 579.4,392.4 579.7,391.5 614.8,404.4 	"/>
</g>
<g class="st0">
	
		<rect x="524.1" y="467.7" transform="matrix(0.2758 -0.9612 0.9612 0.2758 -89.1412 857.5988)" class="st1" width="0.9" height="40.6"/>
</g>
<g class="st0">
	<rect x="706.2" y="196.2" class="st1" width="0.9" height="242.6"/>
</g>
<g class="st0">
	<rect x="706.2" y="450" class="st1" width="0.9" height="44.8"/>
</g>
<g class="st0">
	<rect x="706.2" y="438.8" class="st1" width="0.9" height="11.2"/>
</g>
<g class="st0">
	<rect x="675.8" y="334.3" class="st1" width="0.9" height="93.3"/>
</g>
<g class="st0">
	<rect x="675.8" y="438.8" class="st1" width="0.9" height="56.1"/>
</g>
<g class="st0">
	<rect x="675.8" y="427.6" class="st1" width="0.9" height="11.2"/>
</g>
<g class="st0">
	<rect x="675.8" y="323" class="st1" width="0.9" height="11.2"/>
</g>
<g class="st0">
	<rect x="675.8" y="137.9" class="st1" width="0.9" height="185.1"/>
</g>
<g class="st0">
	<rect x="646.6" y="122.1" class="st1" width="0.9" height="81.6"/>
</g>
<g class="st0">
	<rect x="646.6" y="214.9" class="st1" width="0.9" height="95"/>
</g>
<g class="st0">
	<rect x="646.6" y="416.8" class="st1" width="0.9" height="11.2"/>
</g>
<g class="st0">
	<rect x="646.6" y="310" class="st1" width="0.9" height="11.2"/>
</g>
<g class="st0">
	<rect x="646.6" y="428" class="st1" width="0.9" height="66.8"/>
</g>
<g class="st0">
	<rect x="646.6" y="321.2" class="st1" width="0.9" height="95.6"/>
</g>
<g class="st0">
	<rect x="646.6" y="203.7" class="st1" width="0.9" height="11.2"/>
</g>
<g class="st0">
	<rect x="380.1" y="274.8" class="st1" width="0.9" height="103.6"/>
</g>
<g class="st0">
	<rect x="380.1" y="33.8" class="st1" width="0.9" height="114.9"/>
</g>
<g class="st0">
	<rect x="380.1" y="148.7" class="st1" width="0.9" height="11.2"/>
</g>
<g class="st0">
	<rect x="380.1" y="378.4" class="st1" width="0.9" height="11.2"/>
</g>
<g class="st0">
	<rect x="380.1" y="263.5" class="st1" width="0.9" height="11.2"/>
</g>
<g class="st0">
	<rect x="380.1" y="159.9" class="st1" width="0.9" height="103.6"/>
</g>
<g class="st0">
	<rect x="380.1" y="389.6" class="st1" width="0.9" height="103.6"/>
</g>
<g class="st0">
	<rect x="262.1" y="167.8" class="st1" width="0.9" height="11.2"/>
</g>
<g class="st0">
	<rect x="262.1" y="66.3" class="st1" width="0.9" height="101.4"/>
</g>
<g class="st0">
	<rect x="262.1" y="35.1" class="st1" width="0.9" height="31.2"/>
</g>
<g class="st0">
	<rect x="262.1" y="391.7" class="st1" width="0.9" height="11.2"/>
</g>
<g class="st0">
	<rect x="262.1" y="402.9" class="st1" width="0.9" height="91.9"/>
</g>
<g class="st0">
	<rect x="262.1" y="291" class="st1" width="0.9" height="100.7"/>
</g>
<g class="st0">
	<rect x="262.1" y="179" class="st1" width="0.9" height="100.7"/>
</g>
<g class="st0">
	<rect x="262.1" y="279.7" class="st1" width="0.9" height="11.2"/>
</g>
<g class="st0">
	<rect x="149.9" y="71.2" class="st1" width="0.9" height="17.9"/>
</g>
<g class="st0">
	<rect x="149.9" y="89" class="st1" width="0.9" height="96.9"/>
</g>
<g class="st0">
	<rect x="149.9" y="197.1" class="st1" width="0.9" height="98"/>
</g>
<g class="st0">
	<rect x="149.9" y="185.9" class="st1" width="0.9" height="11.2"/>
</g>
<g class="st0">
	<rect x="149.9" y="404.3" class="st1" width="0.9" height="11.2"/>
</g>
<g class="st0">
	<rect x="149.9" y="306.3" class="st1" width="0.9" height="98"/>
</g>
<g class="st0">
	<rect x="149.9" y="295.1" class="st1" width="0.9" height="11.2"/>
</g>
<g class="st0">
	<rect x="149.9" y="415.6" class="st1" width="0.9" height="79.3"/>
</g>
<g class="st0">
	<rect x="43.1" y="321" class="st1" width="0.9" height="95.4"/>
</g>
<g class="st0">
	<rect x="43.1" y="309.8" class="st1" width="0.9" height="11.2"/>
</g>
<g class="st0">
	<rect x="43.1" y="160" class="st1" width="0.9" height="149.7"/>
</g>
<g class="st0">
	<rect x="43.1" y="416.4" class="st1" width="0.9" height="11.2"/>
</g>
<g class="st0">
	<rect x="43.1" y="427.6" class="st1" width="0.9" height="66.5"/>
</g>
<g class="st0">
	<rect x="543.6" y="390.1" class="st1" width="0.9" height="103.5"/>
</g>
<g class="st0">
	<rect x="543.6" y="378.9" class="st1" width="0.9" height="11.2"/>
</g>
<g class="st0">
	<rect x="543.6" y="34.5" class="st1" width="0.9" height="114.7"/>
</g>
<g class="st0">
	<rect x="543.6" y="275.2" class="st1" width="0.9" height="103.6"/>
</g>
<g class="st0">
	<rect x="543.6" y="160.4" class="st1" width="0.9" height="103.6"/>
</g>
<g class="st0">
	<rect x="543.6" y="264" class="st1" width="0.9" height="11.2"/>
</g>
<g class="st0">
	<rect x="543.6" y="149.2" class="st1" width="0.9" height="11.2"/>
</g>
<g class="st0">
	<rect x="579.1" y="84.8" class="st1" width="0.9" height="83.1"/>
</g>
<g class="st0">
	<rect x="579.1" y="391.9" class="st1" width="0.9" height="11.2"/>
</g>
<g class="st0">
	<rect x="579.1" y="179.2" class="st1" width="0.9" height="100.6"/>
</g>
<g class="st0">
	<rect x="579.1" y="291.1" class="st1" width="0.9" height="100.8"/>
</g>
<g class="st0">
	<rect x="579.1" y="403.2" class="st1" width="0.9" height="91.7"/>
</g>
<g class="st0">
	<rect x="579.1" y="279.8" class="st1" width="0.9" height="11.2"/>
</g>
<g class="st0">
	<rect x="579.1" y="168" class="st1" width="0.9" height="11.2"/>
</g>
<g class="st0">
	<rect x="614.2" y="416.1" class="st1" width="0.9" height="78.8"/>
</g>
<g class="st0">
	<rect x="614.2" y="404.9" class="st1" width="0.9" height="11.2"/>
</g>
<g class="st0">
	<rect x="614.2" y="186.5" class="st1" width="0.9" height="11.2"/>
</g>
<g class="st0">
	<rect x="614.2" y="295.5" class="st1" width="0.9" height="11.2"/>
</g>
<g class="st0">
	<rect x="614.2" y="105.4" class="st1" width="0.9" height="81.2"/>
</g>
<g class="st0">
	<rect x="614.2" y="197.8" class="st1" width="0.9" height="97.7"/>
</g>
<g class="st0">
	<rect x="614.2" y="306.7" class="st1" width="0.9" height="98.1"/>
</g>
<g class="st0">
	<rect x="491" y="483.5" class="st1" width="0.9" height="11.2"/>
</g>
<g class="st0">
	<rect x="491" y="248.3" class="st1" width="0.9" height="11.2"/>
</g>
<g class="st0">
	<rect x="491" y="130.8" class="st1" width="0.9" height="11.2"/>
</g>
<g class="st0">
	<rect x="491" y="259.6" class="st1" width="0.9" height="106.3"/>
</g>
<g class="st0">
	<rect x="491" y="142" class="st1" width="0.9" height="106.3"/>
</g>
<g class="st0">
	<rect x="491" y="377.1" class="st1" width="0.9" height="106.3"/>
</g>
<g class="st0">
	<rect x="491" y="46.5" class="st1" width="0.9" height="84.3"/>
</g>
<g class="st0">
	<rect x="491" y="365.9" class="st1" width="0.9" height="11.2"/>
</g>
<g class="st0">
	<rect x="367.8" y="379.8" class="st1" width="0.9" height="11.2"/>
</g>
<g class="st0">
	<rect x="367.8" y="265.2" class="st1" width="0.9" height="11.2"/>
</g>
<g class="st0">
	<rect x="367.8" y="276.5" class="st1" width="0.9" height="103.3"/>
</g>
<g class="st0">
	<rect x="367.8" y="391" class="st1" width="0.9" height="103.3"/>
</g>
<g class="st0">
	<rect x="367.8" y="150.7" class="st1" width="0.9" height="11.2"/>
</g>
<g class="st0">
	<rect x="367.8" y="161.9" class="st1" width="0.9" height="103.3"/>
</g>
<g class="st0">
	<rect x="367.8" y="55.1" class="st1" width="0.9" height="95.6"/>
</g>
<g class="st0">
	<rect x="249.3" y="169.8" class="st1" width="0.9" height="11.2"/>
</g>
<g class="st0">
	<rect x="249.3" y="393.1" class="st1" width="0.9" height="11.2"/>
</g>
<g class="st0">
	<rect x="249.3" y="404.4" class="st1" width="0.9" height="90.3"/>
</g>
<g class="st0">
	<rect x="249.3" y="281.5" class="st1" width="0.9" height="11.2"/>
</g>
<g class="st0">
	<rect x="249.3" y="78.5" class="st1" width="0.9" height="91.4"/>
</g>
<g class="st0">
	<rect x="249.3" y="181.1" class="st1" width="0.9" height="100.4"/>
</g>
<g class="st0">
	<rect x="249.3" y="292.7" class="st1" width="0.9" height="100.4"/>
</g>
<g class="st0">
	<rect x="136.2" y="96.4" class="st1" width="0.9" height="91.7"/>
</g>
<g class="st0">
	<rect x="136.2" y="199.3" class="st1" width="0.9" height="97.6"/>
</g>
<g class="st0">
	<rect x="136.2" y="308.2" class="st1" width="0.9" height="97.6"/>
</g>
<g class="st0">
	<rect x="136.2" y="188.1" class="st1" width="0.9" height="11.2"/>
</g>
<g class="st0">
	<rect x="136.2" y="297" class="st1" width="0.9" height="11.2"/>
</g>
<g class="st0">
	<rect x="136.2" y="405.9" class="st1" width="0.9" height="11.2"/>
</g>
<g class="st0">
	<rect x="136.2" y="417.1" class="st1" width="0.9" height="77.8"/>
</g>
<g class="st0">
	<rect x="31.8" y="428.9" class="st1" width="0.9" height="64.8"/>
</g>
<g class="st0">
	<rect x="31.8" y="311.3" class="st1" width="0.9" height="11.2"/>
</g>
<g class="st0">
	<rect x="31.8" y="417.6" class="st1" width="0.9" height="11.2"/>
</g>
<g class="st0">
	<rect x="31.8" y="181.8" class="st1" width="0.9" height="129.5"/>
</g>
<g class="st0">
	<rect x="31.8" y="322.5" class="st1" width="0.9" height="95.1"/>
</g>
<g class="st0">
	
		<rect x="529.3" y="16.7" transform="matrix(0.215 -0.9766 0.9766 0.215 385.2787 542.0132)" class="st1" width="0.9" height="29.2"/>
</g>
<path class="st2" d="M505.1,36.1c-1.2,0-2.2,1-2.2,2.2s1,2.2,2.2,2.2s2.2-1,2.2-2.2C507.3,37.1,506.3,36.1,505.1,36.1z"/>
<path class="st2" d="M505.1,137.6c-0.4,0-0.8,0.1-1.1,0.3c-0.3-0.2-0.7-0.3-1.1-0.3c-1.2,0-2.2,1-2.2,2.2s1,2.2,2.2,2.2
	c0.4,0,0.8-0.1,1.1-0.3c0.3,0.2,0.7,0.3,1.1,0.3c1.2,0,2.2-1,2.2-2.2C507.3,138.6,506.3,137.6,505.1,137.6z"/>
<path class="st2" d="M706.6,350c1.2,0,2.2-1,2.2-2.2s-1-2.2-2.2-2.2s-2.2,1-2.2,2.2C704.4,349,705.4,350,706.6,350z"/>
<path class="st2" d="M505.9,255.8c-0.3-0.2-0.6-0.3-1-0.3c-1.2,0-2.2,1-2.2,2.2c0,1,0.6,1.8,1.5,2.1c0.3,0.2,0.6,0.3,1,0.3
	c1.2,0,2.2-1,2.2-2.2C507.3,256.9,506.7,256.1,505.9,255.8z"/>
<path class="st2" d="M505.8,373.6c-0.3-0.1-0.6-0.2-1-0.2c-1.2,0-2.2,1-2.2,2.2c0,1,0.6,1.8,1.5,2.1c0.3,0.1,0.6,0.2,1,0.2
	c1.2,0,2.2-1,2.2-2.2C507.3,374.7,506.7,373.9,505.8,373.6z"/>
<path class="st2" d="M122.8,92.4c-1.2,0-2.2,1-2.2,2.2s1,2.2,2.2,2.2s2.2-1,2.2-2.2S124,92.4,122.8,92.4z"/>
<path class="st2" d="M286.1,59.3c-1.2,0-2.2,1-2.2,2.2s1,2.2,2.2,2.2s2.2-1,2.2-2.2C288.3,60.3,287.3,59.3,286.1,59.3z"/>
<path class="st2" d="M505.1,126.3c-1.2,0-2.2,1-2.2,2.2s1,2.2,2.2,2.2s2.2-1,2.2-2.2C507.3,127.3,506.3,126.3,505.1,126.3z"/>
<path class="st2" d="M706.6,334.3c-1.2,0-2.2,1-2.2,2.2s1,2.2,2.2,2.2s2.2-1,2.2-2.2C708.9,335.3,707.9,334.3,706.6,334.3z"/>
<path class="st2" d="M505.9,244.5c-0.3-0.2-0.6-0.3-1-0.3c-1.2,0-2.2,1-2.2,2.2c0,1,0.6,1.8,1.5,2.1c0.3,0.2,0.6,0.3,1,0.3
	c1.2,0,2.2-1,2.2-2.2C507.3,245.6,506.7,244.8,505.9,244.5z"/>
<path class="st2" d="M505.8,362.4c-0.3-0.1-0.6-0.2-1-0.2c-1.2,0-2.2,1-2.2,2.2c0,1,0.6,1.8,1.5,2.1c0.3,0.1,0.6,0.2,1,0.2
	c1.2,0,2.2-1,2.2-2.2C507.3,363.5,506.7,362.7,505.8,362.4z"/>
<path class="st2" d="M505.8,480.3c-0.3-0.1-0.6-0.2-0.9-0.2c-1.2,0-2.2,1-2.2,2.2c0,1,0.7,1.8,1.6,2.1c0.3,0.1,0.6,0.2,0.9,0.2
	c1.2,0,2.2-1,2.2-2.2C507.3,481.4,506.7,480.6,505.8,480.3z"/>
<path class="st2" d="M706.7,194c-1.2,0-2.2,1-2.2,2.2s1,2.2,2.2,2.2s2.2-1,2.2-2.2S707.9,194,706.7,194z"/>
<path class="st2" d="M706.7,447.8c-1.2,0-2.2,1-2.2,2.2s1,2.2,2.2,2.2s2.2-1,2.2-2.2S707.9,447.8,706.7,447.8z"/>
<path class="st2" d="M706.7,436.5c-1.2,0-2.2,1-2.2,2.2s1,2.2,2.2,2.2s2.2-1,2.2-2.2S707.9,436.5,706.7,436.5z"/>
<path class="st2" d="M676.3,425.3c-1.2,0-2.2,1-2.2,2.2s1,2.2,2.2,2.2s2.2-1,2.2-2.2S677.5,425.3,676.3,425.3z"/>
<path class="st2" d="M676.3,436.6c-1.2,0-2.2,1-2.2,2.2s1,2.2,2.2,2.2s2.2-1,2.2-2.2S677.5,436.6,676.3,436.6z"/>
<path class="st2" d="M676.3,332c-1.2,0-2.2,1-2.2,2.2s1,2.2,2.2,2.2s2.2-1,2.2-2.2S677.5,332,676.3,332z"/>
<path class="st2" d="M676.3,135.7c-1.2,0-2.2,1-2.2,2.2s1,2.2,2.2,2.2s2.2-1,2.2-2.2S677.5,135.7,676.3,135.7z"/>
<path class="st2" d="M676.3,320.8c-1.2,0-2.2,1-2.2,2.2s1,2.2,2.2,2.2s2.2-1,2.2-2.2S677.5,320.8,676.3,320.8z"/>
<path class="st2" d="M647,119.9c-1.2,0-2.2,1-2.2,2.2s1,2.2,2.2,2.2s2.2-1,2.2-2.2C649.3,120.9,648.3,119.9,647,119.9z"/>
<path class="st2" d="M647,307.7c-1.2,0-2.2,1-2.2,2.2s1,2.2,2.2,2.2s2.2-1,2.2-2.2C649.3,308.7,648.3,307.7,647,307.7z"/>
<path class="st2" d="M647,425.8c-1.2,0-2.2,1-2.2,2.2s1,2.2,2.2,2.2s2.2-1,2.2-2.2C649.3,426.8,648.3,425.8,647,425.8z"/>
<path class="st2" d="M647,414.6c-1.2,0-2.2,1-2.2,2.2s1,2.2,2.2,2.2s2.2-1,2.2-2.2C649.3,415.6,648.3,414.6,647,414.6z"/>
<path class="st2" d="M647,319c-1.2,0-2.2,1-2.2,2.2s1,2.2,2.2,2.2s2.2-1,2.2-2.2C649.3,320,648.3,319,647,319z"/>
<path class="st2" d="M647,212.7c-1.2,0-2.2,1-2.2,2.2s1,2.2,2.2,2.2s2.2-1,2.2-2.2C649.3,213.7,648.3,212.7,647,212.7z"/>
<path class="st2" d="M647,201.4c-1.2,0-2.2,1-2.2,2.2s1,2.2,2.2,2.2s2.2-1,2.2-2.2C649.3,202.4,648.3,201.4,647,201.4z"/>
<path class="st2" d="M380.6,31.5c-1.2,0-2.2,1-2.2,2.2s1,2.2,2.2,2.2s2.2-1,2.2-2.2C382.8,32.6,381.8,31.5,380.6,31.5z"/>
<path class="st2" d="M380.6,146.4c-1.2,0-2.2,1-2.2,2.2s1,2.2,2.2,2.2s2.2-1,2.2-2.2C382.8,147.5,381.8,146.4,380.6,146.4z"/>
<path class="st2" d="M380.6,376.2c-1.2,0-2.2,1-2.2,2.2s1,2.2,2.2,2.2s2.2-1,2.2-2.2C382.8,377.2,381.8,376.2,380.6,376.2z"/>
<path class="st2" d="M380.6,272.5c-1.2,0-2.2,1-2.2,2.2s1,2.2,2.2,2.2s2.2-1,2.2-2.2C382.8,273.5,381.8,272.5,380.6,272.5z"/>
<path class="st2" d="M380.6,261.3c-1.2,0-2.2,1-2.2,2.2s1,2.2,2.2,2.2s2.2-1,2.2-2.2C382.8,262.3,381.8,261.3,380.6,261.3z"/>
<path class="st2" d="M380.6,157.7c-1.2,0-2.2,1-2.2,2.2s1,2.2,2.2,2.2s2.2-1,2.2-2.2C382.8,158.7,381.8,157.7,380.6,157.7z"/>
<path class="st2" d="M380.6,387.4c-1.2,0-2.2,1-2.2,2.2s1,2.2,2.2,2.2s2.2-1,2.2-2.2C382.8,388.4,381.8,387.4,380.6,387.4z"/>
<path class="st2" d="M262.6,165.5c-1.2,0-2.2,1-2.2,2.2s1,2.2,2.2,2.2s2.2-1,2.2-2.2C264.8,166.5,263.8,165.5,262.6,165.5z"/>
<path class="st2" d="M262.6,32.9c-1.2,0-2.2,1-2.2,2.2s1,2.2,2.2,2.2s2.2-1,2.2-2.2C264.8,33.9,263.8,32.9,262.6,32.9z"/>
<path class="st2" d="M262.6,64.1c-1.2,0-2.2,1-2.2,2.2s1,2.2,2.2,2.2s2.2-1,2.2-2.2C264.8,65.1,263.8,64.1,262.6,64.1z"/>
<path class="st2" d="M262.6,400.7c-1.2,0-2.2,1-2.2,2.2s1,2.2,2.2,2.2s2.2-1,2.2-2.2C264.8,401.7,263.8,400.7,262.6,400.7z"/>
<path class="st2" d="M262.6,389.4c-1.2,0-2.2,1-2.2,2.2s1,2.2,2.2,2.2s2.2-1,2.2-2.2C264.8,390.5,263.8,389.4,262.6,389.4z"/>
<path class="st2" d="M262.6,176.8c-1.2,0-2.2,1-2.2,2.2s1,2.2,2.2,2.2s2.2-1,2.2-2.2C264.8,177.8,263.8,176.8,262.6,176.8z"/>
<path class="st2" d="M262.6,277.5c-1.2,0-2.2,1-2.2,2.2s1,2.2,2.2,2.2s2.2-1,2.2-2.2C264.8,278.5,263.8,277.5,262.6,277.5z"/>
<path class="st2" d="M262.6,288.7c-1.2,0-2.2,1-2.2,2.2s1,2.2,2.2,2.2s2.2-1,2.2-2.2C264.8,289.7,263.8,288.7,262.6,288.7z"/>
<path class="st2" d="M150.4,68.9c-1.2,0-2.2,1-2.2,2.2s1,2.2,2.2,2.2s2.2-1,2.2-2.2C152.6,69.9,151.6,68.9,150.4,68.9z"/>
<path class="st2" d="M150.4,86.8c-1.2,0-2.2,1-2.2,2.2s1,2.2,2.2,2.2s2.2-1,2.2-2.2C152.6,87.8,151.6,86.8,150.4,86.8z"/>
<path class="st2" d="M150.4,194.9c-1.2,0-2.2,1-2.2,2.2s1,2.2,2.2,2.2s2.2-1,2.2-2.2C152.6,195.9,151.6,194.9,150.4,194.9z"/>
<path class="st2" d="M150.4,183.7c-1.2,0-2.2,1-2.2,2.2s1,2.2,2.2,2.2s2.2-1,2.2-2.2C152.6,184.7,151.6,183.7,150.4,183.7z"/>
<path class="st2" d="M150.4,402.1c-1.2,0-2.2,1-2.2,2.2s1,2.2,2.2,2.2s2.2-1,2.2-2.2C152.6,403.1,151.6,402.1,150.4,402.1z"/>
<path class="st2" d="M150.4,304.1c-1.2,0-2.2,1-2.2,2.2s1,2.2,2.2,2.2s2.2-1,2.2-2.2C152.6,305.1,151.6,304.1,150.4,304.1z"/>
<path class="st2" d="M150.4,292.9c-1.2,0-2.2,1-2.2,2.2s1,2.2,2.2,2.2s2.2-1,2.2-2.2C152.6,293.9,151.6,292.9,150.4,292.9z"/>
<path class="st2" d="M150.4,413.3c-1.2,0-2.2,1-2.2,2.2s1,2.2,2.2,2.2s2.2-1,2.2-2.2C152.6,414.3,151.6,413.3,150.4,413.3z"/>
<path class="st2" d="M43.5,318.8c-1.2,0-2.2,1-2.2,2.2s1,2.2,2.2,2.2s2.2-1,2.2-2.2C45.8,319.8,44.8,318.8,43.5,318.8z"/>
<path class="st2" d="M43.5,307.5c-1.2,0-2.2,1-2.2,2.2s1,2.2,2.2,2.2s2.2-1,2.2-2.2C45.8,308.5,44.8,307.5,43.5,307.5z"/>
<path class="st2" d="M43.5,157.8c-1.2,0-2.2,1-2.2,2.2s1,2.2,2.2,2.2s2.2-1,2.2-2.2C45.8,158.8,44.8,157.8,43.5,157.8z"/>
<path class="st2" d="M43.5,414.1c-1.2,0-2.2,1-2.2,2.2s1,2.2,2.2,2.2s2.2-1,2.2-2.2C45.8,415.1,44.8,414.1,43.5,414.1z"/>
<path class="st2" d="M43.5,425.4c-1.2,0-2.2,1-2.2,2.2s1,2.2,2.2,2.2s2.2-1,2.2-2.2C45.8,426.4,44.8,425.4,43.5,425.4z"/>
<path class="st2" d="M544.1,30.2c-1.2,0-2.2,1-2.2,2.2c0,0.4,0.1,0.7,0.3,1c-0.2,0.3-0.3,0.6-0.3,1c0,1.2,1,2.2,2.2,2.2
	s2.2-1,2.2-2.2c0-0.4-0.1-0.7-0.3-1c0.2-0.3,0.3-0.6,0.3-1C546.3,31.2,545.3,30.2,544.1,30.2z"/>
<path class="st2" d="M544.1,387.9c-1.2,0-2.2,1-2.2,2.2s1,2.2,2.2,2.2s2.2-1,2.2-2.2S545.3,387.9,544.1,387.9z"/>
<path class="st2" d="M544.1,376.6c-1.2,0-2.2,1-2.2,2.2s1,2.2,2.2,2.2s2.2-1,2.2-2.2S545.3,376.6,544.1,376.6z"/>
<path class="st2" d="M544.1,273c-1.2,0-2.2,1-2.2,2.2s1,2.2,2.2,2.2s2.2-1,2.2-2.2S545.3,273,544.1,273z"/>
<path class="st2" d="M544.1,261.8c-1.2,0-2.2,1-2.2,2.2s1,2.2,2.2,2.2s2.2-1,2.2-2.2S545.3,261.8,544.1,261.8z"/>
<path class="st2" d="M544.1,147c-1.2,0-2.2,1-2.2,2.2s1,2.2,2.2,2.2s2.2-1,2.2-2.2S545.3,147,544.1,147z"/>
<path class="st2" d="M544.1,158.2c-1.2,0-2.2,1-2.2,2.2s1,2.2,2.2,2.2s2.2-1,2.2-2.2S545.3,158.2,544.1,158.2z"/>
<path class="st2" d="M579.6,82.6c-1.2,0-2.2,1-2.2,2.2s1,2.2,2.2,2.2s2.2-1,2.2-2.2S580.8,82.6,579.6,82.6z"/>
<path class="st2" d="M579.6,389.7c-1.2,0-2.2,1-2.2,2.2s1,2.2,2.2,2.2s2.2-1,2.2-2.2S580.8,389.7,579.6,389.7z"/>
<path class="st2" d="M579.6,400.9c-1.2,0-2.2,1-2.2,2.2s1,2.2,2.2,2.2s2.2-1,2.2-2.2S580.8,400.9,579.6,400.9z"/>
<path class="st2" d="M579.6,288.9c-1.2,0-2.2,1-2.2,2.2s1,2.2,2.2,2.2s2.2-1,2.2-2.2S580.8,288.9,579.6,288.9z"/>
<path class="st2" d="M579.6,277.6c-1.2,0-2.2,1-2.2,2.2s1,2.2,2.2,2.2s2.2-1,2.2-2.2S580.8,277.6,579.6,277.6z"/>
<path class="st2" d="M579.6,177c-1.2,0-2.2,1-2.2,2.2s1,2.2,2.2,2.2s2.2-1,2.2-2.2S580.8,177,579.6,177z"/>
<path class="st2" d="M579.6,165.7c-1.2,0-2.2,1-2.2,2.2s1,2.2,2.2,2.2s2.2-1,2.2-2.2S580.8,165.7,579.6,165.7z"/>
<path class="st2" d="M614.7,413.9c-1.2,0-2.2,1-2.2,2.2s1,2.2,2.2,2.2s2.2-1,2.2-2.2S615.9,413.9,614.7,413.9z"/>
<path class="st2" d="M614.7,184.3c-1.2,0-2.2,1-2.2,2.2s1,2.2,2.2,2.2s2.2-1,2.2-2.2S615.9,184.3,614.7,184.3z"/>
<path class="st2" d="M614.7,103.2c-1.2,0-2.2,1-2.2,2.2s1,2.2,2.2,2.2s2.2-1,2.2-2.2S615.9,103.2,614.7,103.2z"/>
<path class="st2" d="M614.7,195.6c-1.2,0-2.2,1-2.2,2.2s1,2.2,2.2,2.2s2.2-1,2.2-2.2S615.9,195.6,614.7,195.6z"/>
<path class="st2" d="M614.7,293.3c-1.2,0-2.2,1-2.2,2.2s1,2.2,2.2,2.2s2.2-1,2.2-2.2S615.9,293.3,614.7,293.3z"/>
<path class="st2" d="M614.7,402.6c-1.2,0-2.2,1-2.2,2.2s1,2.2,2.2,2.2s2.2-1,2.2-2.2S615.9,402.6,614.7,402.6z"/>
<path class="st2" d="M614.7,304.5c-1.2,0-2.2,1-2.2,2.2s1,2.2,2.2,2.2s2.2-1,2.2-2.2S615.9,304.5,614.7,304.5z"/>
<path class="st2" d="M491.5,257.3c-1.2,0-2.2,1-2.2,2.2s1,2.2,2.2,2.2s2.2-1,2.2-2.2S492.7,257.3,491.5,257.3z"/>
<path class="st2" d="M491.5,246.1c-1.2,0-2.2,1-2.2,2.2s1,2.2,2.2,2.2s2.2-1,2.2-2.2S492.7,246.1,491.5,246.1z"/>
<path class="st2" d="M491.5,139.8c-1.2,0-2.2,1-2.2,2.2s1,2.2,2.2,2.2s2.2-1,2.2-2.2S492.7,139.8,491.5,139.8z"/>
<path class="st2" d="M491.5,481.2c-1.2,0-2.2,1-2.2,2.2s1,2.2,2.2,2.2s2.2-1,2.2-2.2S492.7,481.2,491.5,481.2z"/>
<path class="st2" d="M491.5,44.3c-1.2,0-2.2,1-2.2,2.2s1,2.2,2.2,2.2s2.2-1,2.2-2.2S492.7,44.3,491.5,44.3z"/>
<path class="st2" d="M491.5,128.5c-1.2,0-2.2,1-2.2,2.2s1,2.2,2.2,2.2s2.2-1,2.2-2.2S492.7,128.5,491.5,128.5z"/>
<path class="st2" d="M491.5,363.7c-1.2,0-2.2,1-2.2,2.2s1,2.2,2.2,2.2s2.2-1,2.2-2.2S492.7,363.7,491.5,363.7z"/>
<path class="st2" d="M491.5,374.9c-1.2,0-2.2,1-2.2,2.2s1,2.2,2.2,2.2s2.2-1,2.2-2.2S492.7,374.9,491.5,374.9z"/>
<path class="st2" d="M368.3,377.5c-1.2,0-2.2,1-2.2,2.2s1,2.2,2.2,2.2s2.2-1,2.2-2.2C370.5,378.6,369.5,377.5,368.3,377.5z"/>
<path class="st2" d="M368.3,274.2c-1.2,0-2.2,1-2.2,2.2s1,2.2,2.2,2.2s2.2-1,2.2-2.2S369.5,274.2,368.3,274.2z"/>
<path class="st2" d="M368.3,388.8c-1.2,0-2.2,1-2.2,2.2s1,2.2,2.2,2.2s2.2-1,2.2-2.2S369.5,388.8,368.3,388.8z"/>
<path class="st2" d="M368.3,159.7c-1.2,0-2.2,1-2.2,2.2s1,2.2,2.2,2.2s2.2-1,2.2-2.2S369.5,159.7,368.3,159.7z"/>
<path class="st2" d="M368.3,263c-1.2,0-2.2,1-2.2,2.2s1,2.2,2.2,2.2s2.2-1,2.2-2.2S369.5,263,368.3,263z"/>
<path class="st2" d="M368.3,148.4c-1.2,0-2.2,1-2.2,2.2s1,2.2,2.2,2.2s2.2-1,2.2-2.2S369.5,148.4,368.3,148.4z"/>
<path class="st2" d="M368.3,52.8c-1.2,0-2.2,1-2.2,2.2s1,2.2,2.2,2.2s2.2-1,2.2-2.2S369.5,52.8,368.3,52.8z"/>
<path class="st2" d="M249.8,402.1c-1.2,0-2.2,1-2.2,2.2s1,2.2,2.2,2.2s2.2-1,2.2-2.2S251,402.1,249.8,402.1z"/>
<path class="st2" d="M249.8,167.6c-1.2,0-2.2,1-2.2,2.2s1,2.2,2.2,2.2s2.2-1,2.2-2.2S251,167.6,249.8,167.6z"/>
<path class="st2" d="M249.8,76.2c-1.2,0-2.2,1-2.2,2.2s1,2.2,2.2,2.2s2.2-1,2.2-2.2S251,76.2,249.8,76.2z"/>
<path class="st2" d="M249.8,279.2c-1.2,0-2.2,1-2.2,2.2s1,2.2,2.2,2.2s2.2-1,2.2-2.2S251,279.2,249.8,279.2z"/>
<path class="st2" d="M249.8,178.8c-1.2,0-2.2,1-2.2,2.2s1,2.2,2.2,2.2s2.2-1,2.2-2.2S251,178.8,249.8,178.8z"/>
<path class="st2" d="M249.8,390.9c-1.2,0-2.2,1-2.2,2.2s1,2.2,2.2,2.2s2.2-1,2.2-2.2S251,390.9,249.8,390.9z"/>
<path class="st2" d="M249.8,290.5c-1.2,0-2.2,1-2.2,2.2s1,2.2,2.2,2.2s2.2-1,2.2-2.2S251,290.5,249.8,290.5z"/>
<path class="st2" d="M136.7,94.2c-1.2,0-2.2,1-2.2,2.2s1,2.2,2.2,2.2s2.2-1,2.2-2.2S137.9,94.2,136.7,94.2z"/>
<path class="st2" d="M136.7,185.9c-1.2,0-2.2,1-2.2,2.2s1,2.2,2.2,2.2s2.2-1,2.2-2.2S137.9,185.9,136.7,185.9z"/>
<path class="st2" d="M136.7,197.1c-1.2,0-2.2,1-2.2,2.2s1,2.2,2.2,2.2s2.2-1,2.2-2.2S137.9,197.1,136.7,197.1z"/>
<path class="st2" d="M136.7,306c-1.2,0-2.2,1-2.2,2.2s1,2.2,2.2,2.2s2.2-1,2.2-2.2S137.9,306,136.7,306z"/>
<path class="st2" d="M136.7,294.7c-1.2,0-2.2,1-2.2,2.2s1,2.2,2.2,2.2s2.2-1,2.2-2.2S137.9,294.7,136.7,294.7z"/>
<path class="st2" d="M136.7,403.6c-1.2,0-2.2,1-2.2,2.2s1,2.2,2.2,2.2s2.2-1,2.2-2.2S137.9,403.6,136.7,403.6z"/>
<path class="st2" d="M136.7,414.9c-1.2,0-2.2,1-2.2,2.2s1,2.2,2.2,2.2s2.2-1,2.2-2.2S137.9,414.9,136.7,414.9z"/>
<path class="st2" d="M32.2,426.6c-1.2,0-2.2,1-2.2,2.2s1,2.2,2.2,2.2s2.2-1,2.2-2.2C34.5,427.6,33.5,426.6,32.2,426.6z"/>
<path class="st2" d="M32.2,309.1c-1.2,0-2.2,1-2.2,2.2s1,2.2,2.2,2.2s2.2-1,2.2-2.2C34.5,310.1,33.5,309.1,32.2,309.1z"/>
<path class="st2" d="M32.2,179.5c-1.2,0-2.2,1-2.2,2.2s1,2.2,2.2,2.2s2.2-1,2.2-2.2C34.5,180.5,33.5,179.5,32.2,179.5z"/>
<path class="st2" d="M32.2,415.4c-1.2,0-2.2,1-2.2,2.2s1,2.2,2.2,2.2s2.2-1,2.2-2.2C34.5,416.4,33.5,415.4,32.2,415.4z"/>
<path class="st2" d="M32.2,320.3c-1.2,0-2.2,1-2.2,2.2s1,2.2,2.2,2.2s2.2-1,2.2-2.2C34.5,321.3,33.5,320.3,32.2,320.3z"/>
<path class="st2" d="M515.6,26c-1.2,0-2.2,1-2.2,2.2s1,2.2,2.2,2.2s2.2-1,2.2-2.2S516.8,26,515.6,26z"/>
<rect x="4.1" y="375.9" transform="matrix(0.8945 -0.447 0.447 0.8945 -139.8961 159.7701)" class="st2" width="529" height="0.9"/>
<polygon class="st2" points="646.7,414.8 543.7,277.8 544.5,277.2 647.4,414.3 "/>
<rect x="263.3" y="148.7" transform="matrix(0.8061 -0.5918 0.5918 0.8061 -150.2571 222.1)" class="st2" width="0.9" height="383.3"/>
<polygon class="st2" points="706.3,336.9 504.8,140.1 505.4,139.5 707,336.2 "/>
<rect x="-3.1" y="282.1" transform="matrix(0.783 -0.6221 0.6221 0.783 -129.7134 193.2396)" class="st2" width="430.4" height="0.9"/>
<rect x="321.1" y="72.4" transform="matrix(0.2508 -0.968 0.968 0.2508 111.8351 411.1654)" class="st2" width="0.9" height="121.9"/>
<rect x="442.3" y="132.5" transform="matrix(0.8723 -0.489 0.489 0.8723 -70.3787 249.6508)" class="st2" width="0.9" height="254.1"/>
<polygon class="st2" points="505.5,482.7 504.8,482 579.2,402.8 579.9,403.5 "/>
<polygon class="st2" points="505.3,247 505,246.2 646.9,203.2 647.2,204.1 "/>
<polygon class="st2" points="647.5,495 646.6,494.7 706.2,347.6 707.1,348 "/>
<polygon class="st2" points="646.7,495.2 504.8,376.1 505.4,375.4 647.3,494.5 "/>
<polygon class="st2" points="505.2,376.2 505,375.3 706.5,336.1 706.7,337 "/>
<rect x="236.5" y="434.8" transform="matrix(0.906 -0.4233 0.4233 0.906 -148.7803 200.6805)" class="st2" width="281.8" height="0.9"/>
<rect x="88.7" y="303.9" transform="matrix(0.8835 -0.4685 0.4685 0.8835 -179.4881 89.0176)" class="st2" width="0.9" height="202.9"/>
<rect x="524.1" y="44.4" transform="matrix(0.9331 -0.3596 0.3596 0.9331 -0.3757 195.2297)" class="st2" width="0.9" height="108.4"/>
<rect x="258.9" y="117" transform="matrix(0.2983 -0.9545 0.9545 0.2983 -38.6465 409.764)" class="st2" width="0.9" height="228.3"/>
<rect x="196.8" y="197" transform="matrix(0.2115 -0.9774 0.9774 0.2115 -190.719 472.1243)" class="st2" width="0.9" height="314.5"/>
<rect x="267" y="234.7" transform="matrix(0.1482 -0.989 0.989 0.1482 -228.2559 657.3235)" class="st2" width="0.9" height="452.9"/>
<rect x="353.8" y="202.3" transform="matrix(0.6721 -0.7404 0.7404 0.6721 -7.1521 389.3379)" class="st2" width="164.5" height="0.9"/>
<rect x="353.7" y="434.8" transform="matrix(0.7309 -0.6825 0.6825 0.7309 -178.3727 418.2171)" class="st2" width="174.8" height="0.9"/>
<rect x="383.3" y="201.1" transform="matrix(0.2902 -0.957 0.957 0.2902 -41.2396 599.916)" class="st2" width="0.9" height="253.4"/>
<g class="st0">
	<path class="st1" d="M297.4,220c0.6,0,1.1,0.5,1.1,1.1s-0.5,1.1-1.1,1.1s-1.1-0.5-1.1-1.1S296.8,220,297.4,220z"/>
</g>
<g class="st0">
	<path class="st1" d="M123.2,262c1,0,1.9,0.8,1.9,1.9s-0.9,1.9-1.9,1.9s-1.9-0.8-1.9-1.9C121.3,262.8,122.2,262,123.2,262z"/>
</g>
<g class="st0">
	<circle class="st1" cx="88" cy="297.5" r="1.4"/>
</g>
<g class="st0">
	<path class="st1" d="M88,291.2c1.4,0,2.5,1.1,2.5,2.5s-1.1,2.5-2.5,2.5s-2.5-1.1-2.5-2.5C85.6,292.3,86.7,291.2,88,291.2z"/>
</g>
<g class="st0">
	<path class="st1" d="M217.7,298.2c1.2,0,2.2,1,2.2,2.2s-1,2.2-2.2,2.2s-2.2-1-2.2-2.2S216.5,298.2,217.7,298.2z"/>
</g>
<g class="st0">
	<path class="st1" d="M358.3,291c1.1,0,2,0.9,2,2s-0.9,2-2,2s-2-0.9-2-2S357.2,291,358.3,291z"/>
</g>
<g class="st0">
	<path class="st1" d="M341.8,298.2c1.2,0,2.2,1,2.2,2.2s-1,2.2-2.2,2.2s-2.2-1-2.2-2.2C339.6,299.2,340.6,298.2,341.8,298.2z"/>
</g>
<g class="st0">
	<path class="st1" d="M248.9,363.5c0.9,0,1.5,0.7,1.5,1.5c0,0.9-0.7,1.5-1.5,1.5c-0.9,0-1.5-0.7-1.5-1.5S248.1,363.5,248.9,363.5z"
		/>
</g>
<g class="st0">
	<path class="st1" d="M211.1,393.4c0.8,0,1.5,0.7,1.5,1.5s-0.7,1.5-1.5,1.5s-1.5-0.7-1.5-1.5C209.6,394,210.3,393.4,211.1,393.4z"/>
</g>
<g class="st0">
	<circle class="st1" cx="211.2" cy="399.5" r="1.3"/>
</g>
<g class="st0">
	<path class="st1" d="M328.2,356.7c1.1,0,2.1,0.9,2.1,2.1c0,1.1-0.9,2.1-2.1,2.1c-1.1,0-2.1-0.9-2.1-2.1
		C326.2,357.6,327.1,356.7,328.2,356.7z"/>
</g>
<g class="st0">
	<path class="st1" d="M347.9,339.3c1.6,0,2.9,1.3,2.9,2.9s-1.3,2.9-2.9,2.9s-2.9-1.3-2.9-2.9C345,340.6,346.3,339.3,347.9,339.3z"/>
</g>
<g class="st0">
	<circle class="st1" cx="284.3" cy="393.8" r="1.3"/>
</g>
<g class="st0">
	<path class="st1" d="M221.3,468.9c1,0,1.9,0.8,1.9,1.9c0,1-0.8,1.9-1.9,1.9c-1,0-1.9-0.8-1.9-1.9
		C219.4,469.7,220.2,468.9,221.3,468.9z"/>
</g>
<g class="st0">
	<path class="st1" d="M330,436.4c1.1,0,2,0.9,2,2s-0.9,2-2,2s-2-0.9-2-2S328.9,436.4,330,436.4z"/>
</g>
<g class="st0">
	<path class="st1" d="M475.5,413.1c1.2,0,2.2,1,2.2,2.2s-1,2.2-2.2,2.2s-2.2-1-2.2-2.2S474.3,413.1,475.5,413.1z"/>
</g>
<g class="st0">
	<path class="st1" d="M471.8,407.9c0.7,0,1.4,0.6,1.4,1.4c0,0.7-0.6,1.4-1.4,1.4c-0.7,0-1.4-0.6-1.4-1.4
		C470.5,408.5,471.1,407.9,471.8,407.9z"/>
</g>
<g class="st0">
	<path class="st1" d="M429.1,458.6c1.7,0,3,1.4,3,3c0,1.7-1.4,3-3,3c-1.7,0-3-1.4-3-3S427.4,458.6,429.1,458.6z"/>
</g>
<g class="st0">
	<path class="st1" d="M442.2,466.8c1.2,0,2.2,1,2.2,2.2s-1,2.2-2.2,2.2s-2.2-1-2.2-2.2C440,467.9,441,466.8,442.2,466.8z"/>
</g>
<g class="st0">
	<path class="st1" d="M673.3,387.4c1,0,1.8,0.8,1.8,1.8s-0.8,1.8-1.8,1.8s-1.8-0.8-1.8-1.8C671.5,388.3,672.3,387.4,673.3,387.4z"/>
</g>
<g class="st0">
	<path class="st1" d="M593.5,486.9c1.4,0,2.5,1.1,2.5,2.5s-1.1,2.5-2.5,2.5s-2.5-1.1-2.5-2.5C590.9,488,592.1,486.9,593.5,486.9z"/>
</g>
<g class="st0">
	<path class="st1" d="M627.4,484.2c1.4,0,2.5,1.1,2.5,2.5s-1.1,2.5-2.5,2.5s-2.5-1.1-2.5-2.5C624.8,485.4,626,484.2,627.4,484.2z"/>
</g>
<g class="st0">
	<path class="st1" d="M689.9,439.7c1.1,0,2,0.9,2,2s-0.9,2-2,2s-2-0.9-2-2C687.9,440.5,688.8,439.7,689.9,439.7z"/>
</g>
<g class="st0">
	<path class="st1" d="M679.2,439.9c1.1,0,1.9,0.9,1.9,1.9c0,1.1-0.9,1.9-1.9,1.9c-1.1,0-1.9-0.9-1.9-1.9
		C677.2,440.8,678.1,439.9,679.2,439.9z"/>
</g>
<g class="st0">
	<path class="st1" d="M653,449.7c1,0,1.7,0.8,1.7,1.8s-0.8,1.7-1.7,1.7c-1,0-1.7-0.8-1.7-1.7C651.3,450.5,652,449.7,653,449.7z"/>
</g>
<g class="st0">
	<path class="st1" d="M667.5,425.8c0.8,0,1.4,0.6,1.4,1.4s-0.6,1.4-1.4,1.4c-0.8,0-1.4-0.6-1.4-1.4S666.7,425.8,667.5,425.8z"/>
</g>
<g class="st0">
	<path class="st1" d="M678.1,339.4c1.3,0,2.3,1,2.3,2.3s-1,2.3-2.3,2.3s-2.3-1-2.3-2.3S676.8,339.4,678.1,339.4z"/>
</g>
<g class="st0">
	<path class="st1" d="M594.2,365.4c1.3,0,2.5,1.1,2.5,2.4c0,1.4-1.1,2.5-2.5,2.5s-2.5-1.1-2.5-2.5
		C591.7,366.5,592.8,365.4,594.2,365.4z"/>
</g>
<g class="st0">
	<circle class="st1" cx="572.6" cy="392.8" r="1"/>
</g>
<g class="st0">
	<path class="st1" d="M591.4,380.8c1.2,0,2.2,1,2.2,2.2s-1,2.2-2.2,2.2s-2.2-1-2.2-2.2C589.3,381.8,590.2,380.8,591.4,380.8z"/>
</g>
<g class="st0">
	<path class="st1" d="M647.6,318c1.1,0,2.1,0.9,2.1,2.1c0,1.1-0.9,2.1-2.1,2.1c-1.1,0-2.1-0.9-2.1-2.1
		C645.6,318.9,646.5,318,647.6,318z"/>
</g>
<g class="st0">
	<path class="st1" d="M623.4,310.7c1.2,0,2.2,1,2.2,2.2s-1,2.2-2.2,2.2s-2.2-1-2.2-2.2C621.1,311.7,622.1,310.7,623.4,310.7z"/>
</g>
<g class="st0">
	<path class="st1" d="M525.8,386.5c2,0,3.7,1.6,3.7,3.7c0,2-1.6,3.7-3.7,3.7c-2,0-3.7-1.6-3.7-3.7
		C522.1,388.2,523.7,386.5,525.8,386.5z"/>
</g>
<g class="st0">
	<path class="st1" d="M520,388.6c0.9,0,1.6,0.7,1.6,1.6s-0.7,1.5-1.6,1.5c-0.9,0-1.6-0.7-1.6-1.5C518.5,389.3,519.2,388.6,520,388.6
		z"/>
</g>
<g class="st0">
	<path class="st1" d="M602.7,278.4c0.9,0,1.6,0.7,1.6,1.6s-0.7,1.6-1.6,1.6c-0.9,0-1.6-0.7-1.6-1.6S601.8,278.4,602.7,278.4z"/>
</g>
<g class="st0">
	<path class="st1" d="M599.8,234.7c0.7,0,1.3,0.6,1.3,1.3s-0.6,1.3-1.3,1.3s-1.3-0.6-1.3-1.3S599.1,234.7,599.8,234.7z"/>
</g>
<g class="st0">
	<path class="st1" d="M472.9,336.3c0.7,0,1.3,0.6,1.3,1.3c0,0.7-0.6,1.3-1.3,1.3c-0.7,0-1.3-0.6-1.3-1.3S472.2,336.3,472.9,336.3z"
		/>
</g>
<g class="st0">
	<path class="st1" d="M456.4,360.5c1,0,1.8,0.8,1.8,1.8s-0.8,1.8-1.8,1.8s-1.8-0.8-1.8-1.8S455.4,360.5,456.4,360.5z"/>
</g>
<g class="st0">
	<path class="st1" d="M460,359.2c1,0,1.9,0.9,1.9,1.9c0,1.1-0.9,1.9-1.9,1.9c-1.1,0-1.9-0.8-1.9-1.9S459,359.2,460,359.2z"/>
</g>
<g class="st0">
	<path class="st1" d="M489.4,318.6c1.1,0,2,0.9,2,2s-0.9,2-2,2s-2-0.9-2-2C487.3,319.5,488.2,318.6,489.4,318.6z"/>
</g>
<g class="st0">
	<path class="st1" d="M386.9,365.2c0.8,0,1.4,0.6,1.4,1.4s-0.6,1.4-1.4,1.4s-1.4-0.6-1.4-1.4C385.6,365.8,386.2,365.2,386.9,365.2z"
		/>
</g>
<g class="st0">
	<path class="st1" d="M334.3,405.2c1.4,0,2.5,1.1,2.5,2.5s-1.1,2.5-2.5,2.5s-2.5-1.1-2.5-2.5C331.8,406.3,332.9,405.2,334.3,405.2z"
		/>
</g>
<g class="st0">
	<path class="st1" d="M334.5,411.3c0.9,0,1.6,0.7,1.6,1.6s-0.7,1.6-1.6,1.6s-1.6-0.7-1.6-1.6S333.6,411.3,334.5,411.3z"/>
</g>
<g class="st0">
	<path class="st1" d="M434.7,321.7c1,0,1.8,0.8,1.8,1.8s-0.8,1.8-1.8,1.8s-1.8-0.8-1.8-1.8S433.7,321.7,434.7,321.7z"/>
</g>
<g class="st0">
	<circle class="st1" cx="432.3" cy="300.9" r="1.4"/>
</g>
<g class="st0">
	<circle class="st1" cx="361" cy="339.8" r="1.5"/>
</g>
<g class="st0">
	<path class="st1" d="M338.9,362.6c0.8,0,1.5,0.7,1.5,1.5s-0.7,1.5-1.5,1.5s-1.5-0.7-1.5-1.5S338.1,362.6,338.9,362.6z"/>
</g>
<g class="st0">
	<path class="st1" d="M422.2,314c0.9,0,1.6,0.7,1.6,1.6s-0.7,1.6-1.6,1.6s-1.6-0.7-1.6-1.6S421.3,314,422.2,314z"/>
</g>
<g class="st0">
	<path class="st1" d="M522.9,205.4c1.8,0,3.3,1.5,3.3,3.3s-1.5,3.3-3.3,3.3s-3.3-1.5-3.3-3.3C519.6,206.9,521.1,205.4,522.9,205.4z"
		/>
</g>
<g class="st0">
	<path class="st1" d="M503.1,210.1c0.8,0,1.5,0.7,1.5,1.5s-0.7,1.5-1.5,1.5c-0.9,0-1.5-0.7-1.5-1.5
		C501.5,210.8,502.2,210.1,503.1,210.1z"/>
</g>
<g class="st0">
	<path class="st1" d="M424.8,281.4c0.9,0,1.6,0.7,1.6,1.6s-0.7,1.6-1.6,1.6s-1.6-0.7-1.6-1.6C423.2,282.1,423.9,281.4,424.8,281.4z"
		/>
</g>
<g class="st0">
	<path class="st1" d="M424.7,287.9c0.8,0,1.4,0.6,1.4,1.4s-0.6,1.4-1.4,1.4s-1.4-0.6-1.4-1.4C423.3,288.5,423.9,287.9,424.7,287.9z"
		/>
</g>
<g class="st0">
	<path class="st1" d="M498.5,241.3c0.7,0,1.2,0.5,1.2,1.2s-0.5,1.2-1.2,1.2s-1.2-0.5-1.2-1.2S497.9,241.3,498.5,241.3z"/>
</g>
<g class="st0">
	<path class="st1" d="M519.8,179.3c0.6,0,1.1,0.5,1.1,1.1s-0.5,1.1-1.1,1.1s-1.1-0.5-1.1-1.1S519.2,179.3,519.8,179.3z"/>
</g>
<g class="st0">
	<path class="st1" d="M331.7,257.2c1.4,0,2.5,1.1,2.5,2.5s-1.1,2.5-2.5,2.5s-2.5-1.1-2.5-2.5C329.2,258.3,330.3,257.2,331.7,257.2z"
		/>
</g>
<g class="st0">
	<path class="st1" d="M267.1,308.6c1.2,0,2.2,1,2.2,2.2s-1,2.2-2.2,2.2s-2.2-1-2.2-2.2S265.9,308.6,267.1,308.6z"/>
</g>
<g class="st0">
	<path class="st1" d="M319.2,281.8c1.4,0,2.5,1.1,2.5,2.5s-1.1,2.5-2.5,2.5s-2.5-1.1-2.5-2.5S317.9,281.8,319.2,281.8z"/>
</g>
<g class="st0">
	<path class="st1" d="M384.4,200.5c1,0,1.8,0.8,1.8,1.8s-0.8,1.8-1.8,1.8s-1.8-0.8-1.8-1.8S383.4,200.5,384.4,200.5z"/>
</g>
<g class="st0">
	<path class="st1" d="M338.2,193.1c0.9,0,1.6,0.7,1.6,1.6c0,0.9-0.7,1.6-1.6,1.6s-1.6-0.7-1.6-1.6S337.3,193.1,338.2,193.1z"/>
</g>
<g class="st0">
	<path class="st1" d="M188.1,288c1.2,0,2.1,1,2.1,2.1c0,1.2-1,2.1-2.1,2.1c-1.2,0-2.1-1-2.1-2.1C185.9,289,186.9,288,188.1,288z"/>
</g>
<g class="st0">
	<circle class="st1" cx="193" cy="290.2" r="1.2"/>
</g>
<g class="st0">
	<path class="st1" d="M312.9,183.3c0.8,0,1.5,0.7,1.5,1.5s-0.7,1.5-1.5,1.5s-1.5-0.7-1.5-1.5C311.5,184,312.1,183.3,312.9,183.3z"/>
</g>
<g class="st0">
	<path class="st1" d="M313.1,186.6c1,0,1.9,0.8,1.9,1.9c0,1-0.8,1.9-1.9,1.9c-1,0-1.9-0.8-1.9-1.9
		C311.2,187.5,312.1,186.6,313.1,186.6z"/>
</g>
<g class="st0">
	<circle class="st1" cx="246.9" cy="231.8" r="1.4"/>
</g>
<g class="st0">
	<path class="st1" d="M272,238.2c0.8,0,1.5,0.7,1.5,1.5s-0.7,1.5-1.5,1.5s-1.5-0.7-1.5-1.5C270.5,238.8,271.2,238.2,272,238.2z"/>
</g>
<g class="st0">
	<path class="st1" d="M498.3,251.6c0.5,0,0.9,0.4,0.9,0.9s-0.4,0.9-0.9,0.9s-0.9-0.4-0.9-0.9S497.8,251.6,498.3,251.6z"/>
</g>
<g class="st0">
	<path class="st1" d="M562.2,243c0.7,0,1.2,0.6,1.2,1.2c0,0.7-0.6,1.2-1.2,1.2c-0.7,0-1.2-0.6-1.2-1.2S561.6,243,562.2,243z"/>
</g>
<g class="st0">
	<path class="st1" d="M536.5,295.7c0.5,0,0.9,0.4,0.9,0.9s-0.4,0.9-0.9,0.9s-0.9-0.4-0.9-0.9S536,295.7,536.5,295.7z"/>
</g>
<g class="st0">
	<path class="st1" d="M534.4,307.4c1,0,1.8,0.8,1.8,1.8s-0.8,1.8-1.8,1.8s-1.8-0.8-1.8-1.8S533.4,307.4,534.4,307.4z"/>
</g>
<g class="st0">
	<path class="st1" d="M592.7,265.7c1.1,0,1.9,0.9,1.9,1.9c0,1.1-0.9,1.9-1.9,1.9c-1.1,0-1.9-0.9-1.9-1.9S591.7,265.7,592.7,265.7z"
		/>
</g>
<g class="st0">
	<path class="st1" d="M605.2,241.7c1.3,0,2.3,1,2.3,2.3s-1,2.3-2.3,2.3s-2.3-1-2.3-2.3C602.9,242.8,603.9,241.7,605.2,241.7z"/>
</g>
<g class="st0">
	<path class="st1" d="M381.8,306.7c1.1,0,2.1,0.9,2.1,2.1s-0.9,2.1-2.1,2.1s-2.1-0.9-2.1-2.1C379.7,307.6,380.7,306.7,381.8,306.7z"
		/>
</g>
<g class="st0">
	<path class="st1" d="M347,299.2c0.6,0,1.1,0.5,1.1,1.1s-0.5,1.1-1.1,1.1s-1.1-0.5-1.1-1.1S346.4,299.2,347,299.2z"/>
</g>
<g class="st0">
	<path class="st1" d="M345.6,307.2c1.4,0,2.5,1.1,2.5,2.5s-1.1,2.5-2.5,2.5s-2.5-1.1-2.5-2.5C343.2,308.3,344.3,307.2,345.6,307.2z"
		/>
</g>
<g class="st0">
	<path class="st1" d="M387,296.4c0.9,0,1.7,0.7,1.7,1.7c0,0.9-0.7,1.7-1.7,1.7c-0.9,0-1.7-0.7-1.7-1.7
		C385.4,297.2,386.1,296.4,387,296.4z"/>
</g>
<g class="st0">
	<path class="st1" d="M381.9,279.4c0.8,0,1.5,0.7,1.5,1.5s-0.7,1.5-1.5,1.5s-1.5-0.7-1.5-1.5S381.1,279.4,381.9,279.4z"/>
</g>
<g class="st0">
	<circle class="st1" cx="289.9" cy="281.8" r="0.8"/>
</g>
<g class="st0">
	<path class="st1" d="M297.8,283.1c0.9,0,1.6,0.7,1.6,1.6s-0.7,1.6-1.6,1.6s-1.6-0.7-1.6-1.6C296.2,283.8,296.9,283.1,297.8,283.1z"
		/>
</g>
<g class="st0">
	<path class="st1" d="M415.4,211.7c1,0,1.7,0.8,1.7,1.7c0,1-0.8,1.7-1.7,1.7c-1,0-1.7-0.8-1.7-1.7
		C413.7,212.5,414.5,211.7,415.4,211.7z"/>
</g>
<g class="st0">
	<path class="st1" d="M418.7,207.3c0.9,0,1.6,0.7,1.6,1.6c0,0.9-0.7,1.6-1.6,1.6s-1.6-0.7-1.6-1.6S417.8,207.3,418.7,207.3z"/>
</g>
<g class="st0">
	<circle class="st1" cx="359.3" cy="205.5" r="1.7"/>
</g>
<g class="st0">
	<path class="st1" d="M366,203.1c1.2,0,2.2,1,2.2,2.2s-1,2.2-2.2,2.2s-2.2-1-2.2-2.2C363.9,204.1,364.8,203.1,366,203.1z"/>
</g>
<g class="st0">
	<path class="st1" d="M432.4,201.8c0.9,0,1.7,0.8,1.7,1.7c0,1-0.8,1.7-1.7,1.7c-1,0-1.7-0.8-1.7-1.7
		C430.7,202.5,431.5,201.8,432.4,201.8z"/>
</g>
<g class="st0">
	<path class="st1" d="M441.6,202.5c0.7,0,1.2,0.6,1.2,1.2s-0.6,1.2-1.2,1.2c-0.7,0-1.2-0.5-1.2-1.2S440.9,202.5,441.6,202.5z"/>
</g>
<g class="st0">
	<path class="st1" d="M537.9,203.5c1.1,0,1.9,0.9,1.9,1.9c0,1.1-0.9,1.9-1.9,1.9c-1.1,0-1.9-0.9-1.9-1.9
		C535.9,204.4,536.8,203.5,537.9,203.5z"/>
</g>
<g class="st0">
	<path class="st1" d="M661.9,199.5c1.2,0,2.2,1,2.2,2.2s-1,2.2-2.2,2.2s-2.2-1-2.2-2.2S660.7,199.5,661.9,199.5z"/>
</g>
<g class="st0">
	<path class="st1" d="M663.7,203.3c1.2,0,2.2,1,2.2,2.2s-1,2.2-2.2,2.2s-2.2-1-2.2-2.2S662.4,203.3,663.7,203.3z"/>
</g>
<g class="st0">
	<path class="st1" d="M590.4,219.8c1,0,1.9,0.8,1.9,1.9c0,1-0.8,1.9-1.9,1.9c-1,0-1.9-0.8-1.9-1.9S589.4,219.8,590.4,219.8z"/>
</g>
<g class="st0">
	<path class="st1" d="M483.6,228.9c1.1,0,1.9,0.9,1.9,1.9c0,1.1-0.9,1.9-1.9,1.9c-1.1,0-1.9-0.9-1.9-1.9
		C481.6,229.8,482.5,228.9,483.6,228.9z"/>
</g>
<g class="st0">
	<path class="st1" d="M480.9,216.8c0.8,0,1.4,0.6,1.4,1.4c0,0.8-0.6,1.4-1.4,1.4s-1.4-0.6-1.4-1.4
		C479.5,217.4,480.2,216.8,480.9,216.8z"/>
</g>
<g class="st0">
	<path class="st1" d="M499,182.1c0.8,0,1.4,0.6,1.4,1.4c0,0.8-0.6,1.4-1.4,1.4s-1.4-0.6-1.4-1.4C497.6,182.7,498.2,182.1,499,182.1z
		"/>
</g>
<g class="st0">
	<path class="st1" d="M505.4,175.4c1.1,0,2,0.9,2,2s-0.9,2-2,2s-2-0.9-2-2C503.5,176.3,504.3,175.4,505.4,175.4z"/>
</g>
<g class="st0">
	<circle class="st1" cx="501" cy="177.8" r="1.6"/>
</g>
<g class="st0">
	<path class="st1" d="M504.3,180c0.8,0,1.5,0.7,1.5,1.5s-0.7,1.5-1.5,1.5s-1.5-0.7-1.5-1.5S503.4,180,504.3,180z"/>
</g>
<g class="st0">
	<path class="st1" d="M535.5,155.9c0.8,0,1.5,0.7,1.5,1.5s-0.7,1.5-1.5,1.5s-1.5-0.6-1.5-1.5C534.1,156.5,534.7,155.9,535.5,155.9z"
		/>
</g>
<g class="st0">
	<path class="st1" d="M501,152.1c1,0,1.8,0.8,1.8,1.8s-0.8,1.8-1.8,1.8s-1.8-0.8-1.8-1.8S500,152.1,501,152.1z"/>
</g>
<g class="st0">
	<path class="st1" d="M314,215.4c0.7,0,1.3,0.6,1.3,1.3s-0.6,1.3-1.3,1.3c-0.7,0-1.3-0.6-1.3-1.3S313.3,215.4,314,215.4z"/>
</g>
<g class="st0">
	<path class="st1" d="M282.7,214c0.9,0,1.7,0.8,1.7,1.7s-0.8,1.7-1.7,1.7c-0.9,0-1.7-0.7-1.7-1.7S281.8,214,282.7,214z"/>
</g>
<g class="st0">
	<path class="st1" d="M334.7,182.7c0.9,0,1.6,0.7,1.6,1.6c0,0.9-0.7,1.6-1.6,1.6s-1.6-0.7-1.6-1.6S333.8,182.7,334.7,182.7z"/>
</g>
<g class="st0">
	<path class="st1" d="M354.3,179.4c1.1,0,2,0.9,2,2s-0.9,2-2,2s-2-0.9-2-2C352.3,180.3,353.2,179.4,354.3,179.4z"/>
</g>
<g class="st0">
	<path class="st1" d="M355.1,175.9c0.7,0,1.3,0.6,1.3,1.3s-0.6,1.3-1.3,1.3c-0.7,0-1.3-0.6-1.3-1.3
		C353.9,176.5,354.4,175.9,355.1,175.9z"/>
</g>
<g class="st0">
	<path class="st1" d="M358.3,178.4c0.8,0,1.5,0.7,1.5,1.5s-0.7,1.5-1.5,1.5s-1.5-0.6-1.5-1.5C356.9,179.1,357.5,178.4,358.3,178.4z"
		/>
</g>
<g class="st0">
	<path class="st1" d="M491.2,186.4c1.4,0,2.5,1.1,2.5,2.5s-1.1,2.5-2.5,2.5s-2.5-1.1-2.5-2.5S489.8,186.4,491.2,186.4z"/>
</g>
<g class="st0">
	<path class="st1" d="M498.2,189c0.8,0,1.4,0.6,1.4,1.4s-0.6,1.4-1.4,1.4s-1.4-0.6-1.4-1.4S497.5,189,498.2,189z"/>
</g>
<g class="st0">
	<path class="st1" d="M334.9,199c0.9,0,1.7,0.8,1.7,1.7c0,1-0.8,1.7-1.7,1.7c-1,0-1.7-0.8-1.7-1.7C333.2,199.8,333.9,199,334.9,199z
		"/>
</g>
<g class="st0">
	<path class="st1" d="M133,198.6c0.7,0,1.3,0.6,1.3,1.3s-0.6,1.3-1.3,1.3s-1.3-0.6-1.3-1.3C131.7,199.2,132.3,198.6,133,198.6z"/>
</g>
<g class="st0">
	<path class="st1" d="M275.6,173.1c1,0,1.8,0.8,1.8,1.8s-0.8,1.8-1.8,1.8s-1.8-0.8-1.8-1.8C273.8,173.9,274.6,173.1,275.6,173.1z"/>
</g>
<g class="st0">
	<path class="st1" d="M389.6,141c0.8,0,1.5,0.7,1.5,1.5s-0.7,1.5-1.5,1.5s-1.5-0.7-1.5-1.5C388.2,141.7,388.8,141,389.6,141z"/>
</g>
<g class="st0">
	<path class="st1" d="M392.6,135.2c1,0,1.8,0.8,1.8,1.8s-0.8,1.8-1.8,1.8s-1.8-0.8-1.8-1.8S391.7,135.2,392.6,135.2z"/>
</g>
<g class="st0">
	<path class="st1" d="M395.3,138.2c0.8,0,1.5,0.7,1.5,1.5s-0.7,1.5-1.5,1.5s-1.5-0.7-1.5-1.5S394.5,138.2,395.3,138.2z"/>
</g>
<g class="st0">
	<path class="st1" d="M494.9,164.2c1,0,1.9,0.8,1.9,1.9c0,1.1-0.9,1.9-1.9,1.9c-1.1,0-1.9-0.8-1.9-1.9S493.9,164.2,494.9,164.2z"/>
</g>
<g class="st0">
	<path class="st1" d="M524.3,169.6c1.2,0,2.2,1,2.2,2.2s-1,2.2-2.2,2.2s-2.2-1-2.2-2.2S523.1,169.6,524.3,169.6z"/>
</g>
<g class="st0">
	<path class="st1" d="M510.1,184.7c1.2,0,2.2,1,2.2,2.2s-1,2.2-2.2,2.2s-2.2-1-2.2-2.2C507.8,185.7,508.8,184.7,510.1,184.7z"/>
</g>
<g class="st0">
	<path class="st1" d="M439,208.3c1.6,0,3,1.3,3,3s-1.3,3-3,3s-3-1.3-3-3S437.3,208.3,439,208.3z"/>
</g>
<g class="st0">
	<path class="st1" d="M432,210.2c0.5,0,1,0.4,1,1c0,0.5-0.4,1-1,1c-0.5,0-1-0.4-1-1C431,210.6,431.5,210.2,432,210.2z"/>
</g>
<g class="st0">
	<circle class="st1" cx="468.8" cy="196.2" r="1.6"/>
</g>
<g class="st0">
	<path class="st1" d="M458.9,175.9c1.3,0,2.3,1,2.3,2.3s-1,2.3-2.3,2.3s-2.3-1-2.3-2.3C456.5,177,457.6,175.9,458.9,175.9z"/>
</g>
<g class="st0">
	<path class="st1" d="M463.5,176c1.3,0,2.3,1,2.3,2.3s-1,2.3-2.3,2.3s-2.3-1-2.3-2.3C461.1,177,462.2,176,463.5,176z"/>
</g>
<g class="st0">
	<path class="st1" d="M461.2,170c1.2,0,2.1,0.9,2.1,2.1c0,1.2-1,2.1-2.1,2.1c-1.2,0-2.1-0.9-2.1-2.1S460,170,461.2,170z"/>
</g>
<g class="st0">
	<path class="st1" d="M485.8,135.5c1.3,0,2.3,1,2.3,2.3s-1,2.3-2.3,2.3s-2.3-1-2.3-2.3C483.4,136.5,484.5,135.5,485.8,135.5z"/>
</g>
<g class="st0">
	<path class="st1" d="M362.7,158c0.8,0,1.5,0.7,1.5,1.5s-0.7,1.5-1.5,1.5s-1.5-0.7-1.5-1.5S361.9,158,362.7,158z"/>
</g>
<g class="st0">
	<path class="st1" d="M342.3,161.4c1.1,0,2,0.9,2,2s-0.9,2-2,2s-2-0.9-2-2C340.3,162.3,341.2,161.4,342.3,161.4z"/>
</g>
<g class="st0">
	<path class="st1" d="M342.1,170.4c0.9,0,1.7,0.7,1.7,1.7s-0.7,1.7-1.7,1.7c-0.9,0-1.7-0.7-1.7-1.7S341.2,170.4,342.1,170.4z"/>
</g>
<g class="st0">
	<circle class="st1" cx="338.2" cy="210.9" r="1.3"/>
</g>
<g class="st0">
	<path class="st1" d="M297.8,248.3c0.9,0,1.7,0.8,1.7,1.7s-0.8,1.7-1.7,1.7c-0.9,0-1.7-0.7-1.7-1.7
		C296.1,249,296.9,248.3,297.8,248.3z"/>
</g>
<g class="st0">
	<path class="st1" d="M254.4,265.4c1,0,1.7,0.8,1.7,1.7s-0.8,1.7-1.7,1.7c-1,0-1.7-0.8-1.7-1.7S253.5,265.4,254.4,265.4z"/>
</g>
<g class="st0">
	<path class="st1" d="M255.9,261.6c1.1,0,2,0.9,2,2s-0.9,2-2,2s-2-0.9-2-2S254.8,261.6,255.9,261.6z"/>
</g>
<g class="st0">
	<path class="st1" d="M305,263.4c0.7,0,1.2,0.6,1.2,1.2s-0.6,1.2-1.2,1.2c-0.7,0-1.2-0.6-1.2-1.2S304.3,263.4,305,263.4z"/>
</g>
<g class="st0">
	<path class="st1" d="M234.6,260.4c0.9,0,1.7,0.8,1.7,1.7c0,0.9-0.8,1.7-1.7,1.7s-1.7-0.8-1.7-1.7
		C232.9,261.1,233.6,260.4,234.6,260.4z"/>
</g>
<g class="st0">
	<circle class="st1" cx="160.2" cy="265.9" r="1.4"/>
</g>
<g class="st0">
	<path class="st1" d="M168.2,267.3c0.6,0,1.2,0.5,1.2,1.2c0,0.6-0.5,1.2-1.2,1.2c-0.6,0-1.2-0.5-1.2-1.2
		C167,267.9,167.5,267.3,168.2,267.3z"/>
</g>
<g class="st0">
	<path class="st1" d="M261.8,242.3c1.3,0,2.3,1,2.3,2.3s-1,2.3-2.3,2.3s-2.3-1-2.3-2.3S260.5,242.3,261.8,242.3z"/>
</g>
<g class="st0">
	<path class="st1" d="M244.6,254.5c1.1,0,2,0.9,2,2c0,1.1-0.9,2-2,2s-2-0.9-2-2C242.6,255.4,243.5,254.5,244.6,254.5z"/>
</g>
<g class="st0">
	<path class="st1" d="M177.5,320.8c1.4,0,2.6,1.2,2.6,2.6s-1.2,2.6-2.6,2.6c-1.4,0-2.6-1.2-2.6-2.6
		C174.9,321.9,176.1,320.8,177.5,320.8z"/>
</g>
<g class="st0">
	<circle class="st1" cx="166.6" cy="342.8" r="1.1"/>
</g>
<g class="st0">
	<path class="st1" d="M173.6,340.3c1.7,0,3,1.4,3,3c0,1.7-1.4,3-3,3c-1.7,0-3-1.4-3-3C170.5,341.6,171.9,340.3,173.6,340.3z"/>
</g>
<g class="st0">
	<path class="st1" d="M158,351.2c1,0,1.8,0.8,1.8,1.8s-0.8,1.8-1.8,1.8s-1.8-0.8-1.8-1.8S157,351.2,158,351.2z"/>
</g>
<g class="st0">
	<path class="st1" d="M105.6,375.8c1.4,0,2.5,1.1,2.5,2.5s-1.1,2.5-2.5,2.5s-2.5-1.1-2.5-2.5S104.2,375.8,105.6,375.8z"/>
</g>
<g class="st0">
	<path class="st1" d="M110.9,376.7c0.9,0,1.7,0.7,1.7,1.7s-0.7,1.7-1.7,1.7c-0.9,0-1.7-0.7-1.7-1.7S110,376.7,110.9,376.7z"/>
</g>
<g class="st0">
	<path class="st1" d="M204.2,349.2c0.8,0,1.4,0.6,1.4,1.4s-0.6,1.4-1.4,1.4c-0.8,0-1.4-0.6-1.4-1.4
		C202.8,349.8,203.4,349.2,204.2,349.2z"/>
</g>
<g class="st0">
	<circle class="st1" cx="149.5" cy="383.5" r="1.1"/>
</g>
<g class="st0">
	<path class="st1" d="M137.6,415c0.9,0,1.6,0.7,1.6,1.6s-0.7,1.6-1.6,1.6c-0.9,0-1.6-0.7-1.6-1.6S136.7,415,137.6,415z"/>
</g>
<g class="st0">
	<path class="st1" d="M157,421.7c1.1,0,2.1,0.9,2.1,2.1c0,1.1-0.9,2.1-2.1,2.1c-1.1,0-2.1-0.9-2.1-2.1S155.8,421.7,157,421.7z"/>
</g>
<g class="st0">
	<path class="st1" d="M363,374.6c0.7,0,1.3,0.6,1.3,1.3s-0.6,1.3-1.3,1.3c-0.7,0-1.3-0.6-1.3-1.3S362.3,374.6,363,374.6z"/>
</g>
<g class="st0">
	<path class="st1" d="M235.1,398.9c1.1,0,2,0.9,2,2s-0.9,2-2,2s-2-0.9-2-2S234,398.9,235.1,398.9z"/>
</g>
<g class="st0">
	<path class="st1" d="M151.7,440.2c0.7,0,1.3,0.6,1.3,1.3c0,0.7-0.6,1.3-1.3,1.3s-1.3-0.6-1.3-1.3
		C150.4,440.7,151,440.2,151.7,440.2z"/>
</g>
<g class="st0">
	<path class="st1" d="M164.5,441.8c1.4,0,2.6,1.1,2.6,2.6c0,1.4-1.1,2.6-2.6,2.6c-1.4,0-2.6-1.1-2.6-2.6
		C162,443,163.1,441.8,164.5,441.8z"/>
</g>
<g class="st0">
	<path class="st1" d="M247,452.5c1.1,0,1.9,0.9,1.9,1.9c0,1.1-0.9,1.9-1.9,1.9c-1.1,0-1.9-0.9-1.9-1.9
		C245,453.3,245.9,452.5,247,452.5z"/>
</g>
<g class="st0">
	<path class="st1" d="M89.3,451.4c1.3,0,2.4,1.1,2.4,2.4c0,1.4-1.1,2.4-2.4,2.4c-1.4,0-2.4-1.1-2.4-2.4S87.9,451.4,89.3,451.4z"/>
</g>
<g class="st0">
	<path class="st1" d="M80.3,456.6c0.9,0,1.7,0.7,1.7,1.7s-0.7,1.7-1.7,1.7c-0.9,0-1.7-0.7-1.7-1.7S79.4,456.6,80.3,456.6z"/>
</g>
<g class="st0">
	<path class="st1" d="M136.1,463.8c0.8,0,1.5,0.7,1.5,1.5s-0.7,1.5-1.5,1.5s-1.5-0.7-1.5-1.5C134.7,464.5,135.3,463.8,136.1,463.8z"
		/>
</g>
<g class="st0">
	<path class="st1" d="M202.4,442.1c1.1,0,1.9,0.9,1.9,1.9c0,1.1-0.9,1.9-1.9,1.9c-1.1,0-1.9-0.9-1.9-1.9S201.3,442.1,202.4,442.1z"
		/>
</g>
<g class="st0">
	<path class="st1" d="M93,446.7c1,0,1.9,0.9,1.9,1.9c0,1.1-0.9,1.9-1.9,1.9c-1.1,0-1.9-0.8-1.9-1.9C91.1,447.6,92,446.7,93,446.7z"
		/>
</g>
<g class="st0">
	<path class="st1" d="M84.8,446.2c1.1,0,2.1,0.9,2.1,2.1s-0.9,2.1-2.1,2.1c-1.1,0-2.1-0.9-2.1-2.1C82.8,447.1,83.7,446.2,84.8,446.2
		z"/>
</g>
<g class="st0">
	<circle class="st1" cx="258.5" cy="429.7" r="1"/>
</g>
<g class="st0">
	<path class="st1" d="M374.9,411.9c0.8,0,1.5,0.6,1.5,1.5c0,0.8-0.7,1.4-1.5,1.4s-1.5-0.6-1.5-1.4
		C373.5,412.6,374.1,411.9,374.9,411.9z"/>
</g>
<g class="st0">
	<path class="st1" d="M308.3,425.9c1,0,1.8,0.8,1.8,1.8s-0.8,1.8-1.8,1.8s-1.8-0.8-1.8-1.8C306.5,426.7,307.3,425.9,308.3,425.9z"/>
</g>
<g class="st0">
	<path class="st1" d="M256.7,443.2c0.7,0,1.4,0.6,1.4,1.4s-0.6,1.4-1.4,1.4c-0.8,0-1.4-0.6-1.4-1.4
		C255.3,443.8,255.9,443.2,256.7,443.2z"/>
</g>
<g class="st0">
	<path class="st1" d="M360.7,448.5c1.1,0,2,0.9,2,2s-0.9,2-2,2s-2-0.9-2-2C358.6,449.4,359.6,448.5,360.7,448.5z"/>
</g>
<g class="st0">
	<path class="st1" d="M422.4,436.6c0.6,0,1.1,0.5,1.1,1.1s-0.5,1.1-1.1,1.1s-1.1-0.5-1.1-1.1S421.8,436.6,422.4,436.6z"/>
</g>
<g class="st0">
	<path class="st1" d="M275.2,423.3c1,0,1.8,0.8,1.8,1.8s-0.8,1.9-1.8,1.9s-1.8-0.8-1.8-1.9C273.4,424.1,274.2,423.3,275.2,423.3z"/>
</g>
<g class="st0">
	<path class="st1" d="M174.5,431.9c1,0,1.8,0.8,1.8,1.8s-0.8,1.8-1.8,1.8s-1.8-0.8-1.8-1.8C172.7,432.8,173.5,431.9,174.5,431.9z"/>
</g>
<g class="st0">
	<path class="st1" d="M301.2,440.2c1.6,0,2.9,1.3,2.9,2.9s-1.3,2.9-2.9,2.9s-2.9-1.3-2.9-2.9C298.3,441.5,299.6,440.2,301.2,440.2z"
		/>
</g>
<g class="st0">
	<path class="st1" d="M439.4,431.4c0.8,0,1.4,0.6,1.4,1.4s-0.6,1.4-1.4,1.4s-1.4-0.6-1.4-1.4S438.6,431.4,439.4,431.4z"/>
</g>
<g class="st0">
	<path class="st1" d="M396.7,428.3c1.4,0,2.5,1.1,2.5,2.5s-1.1,2.5-2.5,2.5s-2.5-1.1-2.5-2.5S395.3,428.3,396.7,428.3z"/>
</g>
<g class="st0">
	<path class="st1" d="M377.2,426.4c1.2,0,2.2,1,2.2,2.2s-1,2.2-2.2,2.2s-2.2-1-2.2-2.2S376,426.4,377.2,426.4z"/>
</g>
<g class="st0">
	<path class="st1" d="M494.2,463c0.6,0,1.1,0.5,1.1,1.1s-0.5,1.1-1.1,1.1s-1.1-0.5-1.1-1.1S493.6,463,494.2,463z"/>
</g>
<g class="st0">
	<path class="st1" d="M569.8,463.1c1.3,0,2.4,1.1,2.4,2.4s-1.1,2.4-2.4,2.4c-1.3,0-2.4-1.1-2.4-2.4
		C567.4,464.2,568.5,463.1,569.8,463.1z"/>
</g>
<g class="st0">
	<path class="st1" d="M466,472c1.1,0,1.9,0.9,1.9,1.9c0,1.1-0.9,1.9-1.9,1.9c-1.1,0-1.9-0.9-1.9-1.9C464.1,472.8,464.9,472,466,472z
		"/>
</g>
<g class="st0">
	<path class="st1" d="M434.2,483.8c1.5,0,2.7,1.2,2.7,2.7s-1.2,2.7-2.7,2.7s-2.7-1.2-2.7-2.7S432.7,483.8,434.2,483.8z"/>
</g>
<g class="st0">
	<path class="st1" d="M559.6,476.4c0.9,0,1.6,0.7,1.6,1.6s-0.7,1.6-1.6,1.6c-0.9,0-1.6-0.7-1.6-1.6S558.7,476.4,559.6,476.4z"/>
</g>
<g class="st0">
	<path class="st1" d="M475.4,399.3c1.1,0,1.9,0.9,1.9,1.9c0,1.1-0.9,1.9-1.9,1.9c-1.1,0-1.9-0.9-1.9-1.9
		C473.5,400.2,474.4,399.3,475.4,399.3z"/>
</g>
<g class="st0">
	<path class="st1" d="M462.3,395.9c0.5,0,1,0.4,1,1c0,0.5-0.4,1-1,1c-0.5,0-1-0.4-1-1S461.7,395.9,462.3,395.9z"/>
</g>
<g class="st0">
	<path class="st1" d="M558,392.6c1.4,0,2.6,1.2,2.6,2.6s-1.2,2.6-2.6,2.6c-1.4,0-2.6-1.2-2.6-2.6C555.4,393.8,556.6,392.6,558,392.6
		z"/>
</g>
<g class="st0">
	<path class="st1" d="M658.4,392.9c0.8,0,1.5,0.7,1.5,1.5s-0.7,1.5-1.5,1.5c-0.9,0-1.5-0.7-1.5-1.5S657.6,392.9,658.4,392.9z"/>
</g>
<g class="st0">
	<path class="st1" d="M604,392.4c1.6,0,3,1.3,3,3c0,1.6-1.3,3-3,3c-1.6,0-3-1.3-3-3C601,393.7,602.3,392.4,604,392.4z"/>
</g>
<g class="st0">
	<path class="st1" d="M639.5,383.9c0.7,0,1.2,0.6,1.2,1.3c0,0.7-0.6,1.2-1.2,1.2c-0.7,0-1.2-0.6-1.2-1.2
		C638.2,384.4,638.8,383.9,639.5,383.9z"/>
</g>
<g class="st0">
	<path class="st1" d="M639.9,364.4c0.8,0,1.4,0.6,1.4,1.4s-0.6,1.4-1.4,1.4c-0.8,0-1.4-0.6-1.4-1.4S639.1,364.4,639.9,364.4z"/>
</g>
<g class="st0">
	<path class="st1" d="M555.7,355c0.8,0,1.5,0.7,1.5,1.5s-0.7,1.5-1.5,1.5s-1.5-0.7-1.5-1.5S554.9,355,555.7,355z"/>
</g>
<g class="st0">
	<path class="st1" d="M622.7,337c1.5,0,2.7,1.2,2.7,2.7s-1.2,2.7-2.7,2.7s-2.7-1.2-2.7-2.7S621.2,337,622.7,337z"/>
</g>
<g class="st0">
	<path class="st1" d="M633.6,338.5c0.6,0,1.1,0.5,1.1,1.1s-0.5,1.1-1.1,1.1s-1.1-0.5-1.1-1.1S632.9,338.5,633.6,338.5z"/>
</g>
<g class="st0">
	<path class="st1" d="M446.7,314.9c0.6,0,1.1,0.5,1.1,1.1s-0.5,1.1-1.1,1.1s-1.1-0.5-1.1-1.1S446.1,314.9,446.7,314.9z"/>
</g>
<g class="st0">
	<path class="st1" d="M454.4,308.9c0.9,0,1.6,0.7,1.6,1.6s-0.7,1.6-1.6,1.6s-1.6-0.7-1.6-1.6C452.7,309.6,453.5,308.9,454.4,308.9z"
		/>
</g>
<g class="st0">
	<path class="st1" d="M522,314.8c0.9,0,1.7,0.7,1.7,1.7c0,0.9-0.8,1.7-1.7,1.7s-1.7-0.7-1.7-1.7S521.1,314.8,522,314.8z"/>
</g>
<g class="st0">
	<path class="st1" d="M412,336.6c0.8,0,1.5,0.6,1.5,1.5c0,0.8-0.7,1.4-1.5,1.4s-1.5-0.6-1.5-1.4C410.5,337.2,411.2,336.6,412,336.6z
		"/>
</g>
<g class="st0">
	<path class="st1" d="M405,334.9c1.6,0,2.9,1.3,2.9,2.9s-1.3,2.9-2.9,2.9s-2.9-1.3-2.9-2.9C402.1,336.2,403.4,334.9,405,334.9z"/>
</g>
<g class="st0">
	<path class="st1" d="M563.2,319.5c0.9,0,1.7,0.8,1.7,1.7c0,0.9-0.8,1.7-1.7,1.7s-1.7-0.8-1.7-1.7
		C561.4,320.3,562.2,319.5,563.2,319.5z"/>
</g>
<g class="st0">
	<path class="st1" d="M590,299.4c1.4,0,2.6,1.2,2.6,2.6s-1.2,2.6-2.6,2.6c-1.4,0-2.6-1.1-2.6-2.6C587.4,300.6,588.5,299.4,590,299.4
		z"/>
</g>
<g class="st0">
	<circle class="st1" cx="524.4" cy="275.4" r="1.2"/>
</g>
<g class="st0">
	<path class="st1" d="M673,258.9c1.1,0,2,0.9,2,2s-0.9,2-2,2s-2-0.9-2-2S671.9,258.9,673,258.9z"/>
</g>
<g class="st0">
	<path class="st1" d="M684.9,202.3c0.9,0,1.6,0.7,1.6,1.6c0,0.9-0.7,1.6-1.6,1.6c-0.9,0-1.6-0.7-1.6-1.6
		C683.3,203,684,202.3,684.9,202.3z"/>
</g>
<g class="st0">
	<path class="st1" d="M674.6,177.3c1,0,1.8,0.8,1.8,1.8s-0.8,1.8-1.8,1.8s-1.8-0.8-1.8-1.8S673.6,177.3,674.6,177.3z"/>
</g>
<g class="st0">
	<path class="st1" d="M602.1,169.4c1,0,1.8,0.8,1.8,1.8s-0.8,1.8-1.8,1.8s-1.8-0.8-1.8-1.8S601.1,169.4,602.1,169.4z"/>
</g>
<g class="st0">
	<path class="st1" d="M571.1,169.3c1.3,0,2.3,1.1,2.3,2.3c0,1.3-1.1,2.3-2.3,2.3c-1.3,0-2.3-1-2.3-2.3
		C568.8,170.4,569.8,169.3,571.1,169.3z"/>
</g>
<g class="st0">
	<path class="st1" d="M571.5,175.4c0.8,0,1.5,0.7,1.5,1.5s-0.7,1.5-1.5,1.5s-1.5-0.6-1.5-1.5C570.1,176,570.7,175.4,571.5,175.4z"/>
</g>
<g class="st0">
	<path class="st1" d="M566.8,188.6c1,0,1.9,0.8,1.9,1.9c0,1-0.8,1.9-1.9,1.9c-1,0-1.9-0.8-1.9-1.9
		C564.9,189.5,565.8,188.6,566.8,188.6z"/>
</g>
<g class="st0">
	<path class="st1" d="M554.7,200.3c0.9,0,1.6,0.7,1.6,1.6s-0.7,1.6-1.6,1.6c-0.9,0-1.6-0.7-1.6-1.6S553.8,200.3,554.7,200.3z"/>
</g>
<g class="st0">
	<path class="st1" d="M554.8,207c1,0,1.7,0.8,1.7,1.7s-0.8,1.7-1.7,1.7c-1,0-1.7-0.8-1.7-1.7S553.9,207,554.8,207z"/>
</g>
<g class="st0">
	<path class="st1" d="M553.4,238.6c1.7,0,3.1,1.4,3.1,3.1c0,1.7-1.4,3.1-3.1,3.1c-1.7,0-3.1-1.4-3.1-3.1
		C550.3,240,551.7,238.6,553.4,238.6z"/>
</g>
<g class="st0">
	<circle class="st1" cx="565.6" cy="275.2" r="1.4"/>
</g>
<g class="st0">
	<path class="st1" d="M568.2,278.5c0.7,0,1.3,0.6,1.3,1.3s-0.6,1.3-1.3,1.3s-1.3-0.6-1.3-1.3S567.5,278.5,568.2,278.5z"/>
</g>
<g class="st0">
	<path class="st1" d="M563.2,278.4c1,0,1.8,0.8,1.8,1.8s-0.8,1.8-1.8,1.8s-1.8-0.8-1.8-1.8C561.4,279.3,562.2,278.4,563.2,278.4z"/>
</g>
<g class="st0">
	<path class="st1" d="M566.2,281.7c0.8,0,1.4,0.6,1.4,1.4s-0.6,1.4-1.4,1.4c-0.8,0-1.4-0.6-1.4-1.4
		C564.8,282.3,565.4,281.7,566.2,281.7z"/>
</g>
<polygon class="st2" points="505.4,137.6 647,217.1 266.9,263.3 145.3,197.8 "/>
<polygon class="st2" points="505.1,260.1 704.4,336.6 249.8,395.4 32.2,320.3 "/>
<polygon class="st2" points="507.3,375.7 708.9,450 262.6,494.9 41.3,427.6 "/>
<rect x="32.2" y="186.8" class="st2" width="11.3" height="308"/>
<rect x="136.7" y="90" class="st2" width="13.7" height="404.9"/>
<rect x="249.8" y="67.3" class="st2" width="12.8" height="427.6"/>
<rect x="368.3" y="43.3" class="st2" width="12.7" height="451.5"/>
<rect x="491.5" y="48" class="st2" width="13.6" height="446.8"/>
<polygon class="st2" points="504.9,246.5 32.2,311.2 32.2,322.5 504.9,257.8 "/>
<polygon class="st2" points="504.9,364.7 32.2,417.3 32.2,428.6 504.9,376 "/>
<polygon class="st2" points="504.9,128 136.7,188.4 136.8,199.8 504.9,139.3 "/>
<path class="st2" d="M504.9,492.7v-11.3V492.7z"/>
<g class="st0">
	<g>
		<polygon class="st3" points="506.4,481.4 506.4,48 495.9,135.9 		"/>
	</g>
</g>
<g class="st0">
	<g>
		<polygon class="st3" points="382.5,494.9 382.5,43.3 371.9,134.8 		"/>
	</g>
</g>
<g class="st0">
	<g>
		<polygon class="st3" points="266,494.9 266,67.3 255.5,153.9 		"/>
	</g>
</g>
<g class="st0">
	<g>
		<polygon class="st3" points="153.8,494.9 153.8,90 143.2,172.1 		"/>
	</g>
</g>
<g class="st0">
	<g>
		<polygon class="st3" points="46.9,494.9 46.9,171.6 36.4,237.2 		"/>
	</g>
</g>
<g class="st0">
	<g>
		<polygon class="st3" points="137.6,199.2 505.7,138.8 429.4,140.7 		"/>
	</g>
</g>
<g class="st0">
	<g>
		<polygon class="st3" points="42.4,320.8 505.6,257.4 410.3,259.9 		"/>
	</g>
</g>
<g class="st0">
	<g>
		<polygon class="st3" points="42.2,427.2 505.4,375.6 410.4,375.6 		"/>
	</g>
</g>
<g class="st0">
	<g>
		<polygon class="st1" points="508,481.4 506.9,48 503.6,135.9 		"/>
	</g>
</g>
<g class="st0">
	<g>
		<polygon class="st1" points="264.6,494.6 263.5,80.4 260.2,164.4 		"/>
	</g>
</g>
<g class="st0">
	<g>
		<polygon class="st1" points="153.9,494.9 152.7,79.6 149.5,163.8 		"/>
	</g>
</g>
<g class="st0">
	<g>
		<polygon class="st1" points="48.2,494.8 47,174.7 43.7,239.6 		"/>
	</g>
</g>
<g class="st0">
	<g>
		<polygon class="st1" points="383.3,480.8 383.3,44.2 379.8,132.7 		"/>
	</g>
</g>
</svg>
