<?xml version="1.0" encoding="utf-8"?>
<!-- Generator: Adobe Illustrator 20.1.0, SVG Export Plug-In . SVG Version: 6.00 Build 0)  -->
<svg version="1.1" id="Layer_1" xmlns="http://www.w3.org/2000/svg" xmlns:xlink="http://www.w3.org/1999/xlink" x="0px" y="0px"
	 viewBox="0 0 350 30" style="enable-background:new 0 0 350 30;" xml:space="preserve">
<style type="text/css">
	.st0{fill:#FFBB00;}
	.st1{fill:#FFFFFF;}
</style>
<g>
	<path class="st0" d="M154.8,12.5c0,3.7-1,6.5-3.1,8.5c-2,2-4.9,3-8.6,3H136V1.9h7.7c3.6,0,6.3,0.9,8.2,2.7
		C153.8,6.4,154.8,9,154.8,12.5z M148.6,12.7c0-2-0.4-3.5-1.2-4.5c-0.8-1-2-1.5-3.7-1.5H142v12.4h1.3c1.8,0,3.1-0.5,4-1.6
		S148.6,14.8,148.6,12.7z"/>
	<path class="st1" d="M177.7,24h-6v-9h-6.9v9h-6V1.9h6v8.2h6.9V1.9h6V24z"/>
	<path class="st1" d="M182.5,24V1.9h6v17.3h8.5V24H182.5z"/>
</g>
</svg>
