<?xml version="1.0" encoding="utf-8"?>
<!-- Generator: Adobe Illustrator 20.1.0, SVG Export Plug-In . SVG Version: 6.00 Build 0)  -->
<svg version="1.1" id="Layer_1" xmlns="http://www.w3.org/2000/svg" xmlns:xlink="http://www.w3.org/1999/xlink" x="0px" y="0px"
	 viewBox="0 0 350 30" style="enable-background:new 0 0 350 30;" xml:space="preserve">
<style type="text/css">
	.st0{fill:#FFBB00;}
	.st1{fill:#FFFFFF;}
</style>
<g>
	<path class="st0" d="M119.8,12.5c0,3.7-1,6.5-3.1,8.5c-2,2-4.9,3-8.6,3H101V1.9h7.7c3.6,0,6.3,0.9,8.2,2.7
		C118.8,6.4,119.8,9,119.8,12.5z M113.6,12.7c0-2-0.4-3.5-1.2-4.5c-0.8-1-2-1.5-3.7-1.5H107v12.4h1.3c1.8,0,3.1-0.5,4-1.6
		S113.6,14.8,113.6,12.7z"/>
	<path class="st1" d="M139.8,15.4c0,2.8-0.8,5-2.3,6.6c-1.5,1.6-3.6,2.4-6.3,2.4c-2.6,0-4.7-0.8-6.2-2.4c-1.5-1.6-2.3-3.8-2.3-6.5
		c0-2.8,0.8-5,2.3-6.5c1.5-1.5,3.6-2.3,6.4-2.3c1.7,0,3.2,0.4,4.5,1.1c1.3,0.7,2.3,1.7,3,3.1C139.4,12,139.8,13.6,139.8,15.4z
		 M128.7,15.4c0,1.5,0.2,2.6,0.6,3.4c0.4,0.8,1.1,1.2,2,1.2c0.9,0,1.6-0.4,1.9-1.2c0.4-0.8,0.6-1.9,0.6-3.4c0-1.5-0.2-2.6-0.6-3.3
		c-0.4-0.7-1-1.1-2-1.1c-0.9,0-1.6,0.4-2,1.1C128.9,12.8,128.7,13.9,128.7,15.4z"/>
	<path class="st1" d="M151,24.3c-2.8,0-4.9-0.8-6.4-2.3c-1.4-1.5-2.2-3.7-2.2-6.5c0-2.8,0.8-5.1,2.3-6.6c1.6-1.6,3.8-2.3,6.7-2.3
		c2,0,3.9,0.4,5.6,1.3l-1.7,4.4c-0.7-0.3-1.4-0.6-2-0.7c-0.6-0.2-1.2-0.3-1.9-0.3c-1,0-1.7,0.4-2.2,1.1c-0.5,0.7-0.8,1.8-0.8,3.2
		c0,2.7,1,4.1,3,4.1c1.7,0,3.4-0.5,5-1.5v4.7C155,23.8,153.1,24.3,151,24.3z"/>
	<path class="st1" d="M179,12.5c0,3.7-1,6.5-3,8.5c-2,2-4.9,3-8.6,3h-7.2V1.9h7.7c3.6,0,6.3,0.9,8.2,2.7C178,6.4,179,9,179,12.5z
		 M172.8,12.7c0-2-0.4-3.5-1.2-4.5c-0.8-1-2-1.5-3.7-1.5h-1.7v12.4h1.3c1.8,0,3.1-0.5,4-1.6S172.8,14.8,172.8,12.7z"/>
	<path class="st1" d="M193.8,24l-1.1-2.3h-0.1c-0.8,1-1.6,1.7-2.4,2c-0.8,0.4-1.9,0.5-3.2,0.5c-1.6,0-2.9-0.5-3.8-1.5
		c-0.9-1-1.4-2.3-1.4-4.1c0-1.8,0.6-3.2,1.9-4.1c1.3-0.9,3.1-1.4,5.5-1.5l2.9-0.1v-0.2c0-1.4-0.7-2.1-2.1-2.1
		c-1.3,0-2.8,0.4-4.8,1.3l-1.7-3.9c2-1,4.5-1.5,7.6-1.5c2.2,0,3.9,0.5,5.1,1.6c1.2,1.1,1.8,2.6,1.8,4.6V24H193.8z M189.4,20.1
		c0.7,0,1.3-0.2,1.8-0.7c0.5-0.5,0.8-1,0.8-1.8v-1.3l-1.4,0.1c-1.9,0.1-2.9,0.8-2.9,2.1C187.8,19.6,188.3,20.1,189.4,20.1z"/>
	<path class="st1" d="M210.3,19.6c0.8,0,1.8-0.2,2.9-0.6v4.3c-0.8,0.3-1.6,0.6-2.3,0.7c-0.7,0.1-1.6,0.2-2.5,0.2
		c-2,0-3.4-0.5-4.3-1.5c-0.9-1-1.3-2.5-1.3-4.5v-7.1h-2.1V8.9l2.6-1.9l1.5-3.6h3.9v3.4h4.2v4.4h-4.2V18
		C208.7,19.1,209.3,19.6,210.3,19.6z"/>
	<path class="st1" d="M227.4,24l-1.1-2.3h-0.1c-0.8,1-1.6,1.7-2.4,2c-0.8,0.4-1.9,0.5-3.2,0.5c-1.6,0-2.9-0.5-3.8-1.5
		c-0.9-1-1.4-2.3-1.4-4.1c0-1.8,0.6-3.2,1.9-4.1c1.3-0.9,3.1-1.4,5.5-1.5l2.9-0.1v-0.2c0-1.4-0.7-2.1-2.1-2.1
		c-1.3,0-2.8,0.4-4.8,1.3L217,8.1c2-1,4.5-1.5,7.6-1.5c2.2,0,3.9,0.5,5.1,1.6c1.2,1.1,1.8,2.6,1.8,4.6V24H227.4z M223,20.1
		c0.7,0,1.3-0.2,1.8-0.7c0.5-0.5,0.8-1,0.8-1.8v-1.3l-1.4,0.1c-1.9,0.1-2.9,0.8-2.9,2.1C221.3,19.6,221.9,20.1,223,20.1z"/>
</g>
</svg>
