<?xml version="1.0" encoding="utf-8"?>
<!-- Generator: Adobe Illustrator 20.1.0, SVG Export Plug-In . SVG Version: 6.00 Build 0)  -->
<svg version="1.1" id="Layer_1" xmlns="http://www.w3.org/2000/svg" xmlns:xlink="http://www.w3.org/1999/xlink" x="0px" y="0px"
	 viewBox="0 0 80 80" style="enable-background:new 0 0 80 80;" xml:space="preserve">
<style type="text/css">
	.st0{fill:#303030;}
</style>
<g>
	<path class="st0" d="M57.5,25H21.5v19h36.1V25z M55.5,42h-32V27h32V42z"/>
	<circle class="st0" cx="24.8" cy="21.5" r="1.5"/>
	<circle class="st0" cx="54.8" cy="21.5" r="1.5"/>
	<circle class="st0" cx="44.8" cy="21.5" r="1.5"/>
	<circle class="st0" cx="34.8" cy="21.5" r="1.5"/>
	<path class="st0" d="M66.4,69.8l-1.3-2.9c-0.8-2-3.2-8-5-11l4.8-6.6V28.5L56.7,8H40.2h-1H22.5L14,28.5v20.7l11.7,15.9l-5.5,5.5
		l1.4,1.4l5.3-5.3l3.9,5.3l8.3,0v0h9.3l5.6-7.7c2.5,1.3,5.9,2.7,8,3.6L66.4,69.8z M52.4,61c-1.4-1.4-1.4-3.8,0-5.2
		c0.7-0.7,1.7-1.1,2.6-1.1s1.9,0.4,2.6,1.1c1,1,3.3,6.2,5,10.2C58.6,64.3,53.5,62,52.4,61z M16,48.6V28.8L23.9,10h31.5L63,28.8v19.8
		l-4.1,5.6c-2-1.8-5-2-7.1-0.5l-3.3-3.3c-2.2-2.2-5.8-2.2-8.1,0L27.1,63.7L16,48.6z M47.4,70H31.8l-3.5-4.7l13.5-13.5
		c1.4-1.4,3.8-1.4,5.2,0l3.3,3.3c-1.6,2.2-1.3,5.3,0.6,7.3c0.3,0.3,0.7,0.6,1.3,0.9L47.4,70z"/>
</g>
</svg>
