<?xml version="1.0" encoding="utf-8"?>
<!-- Generator: Adobe Illustrator 20.1.0, SVG Export Plug-In . SVG Version: 6.00 Build 0)  -->
<svg version="1.1" id="Layer_1" xmlns="http://www.w3.org/2000/svg" xmlns:xlink="http://www.w3.org/1999/xlink" x="0px" y="0px"
	 viewBox="0 0 80 80" style="enable-background:new 0 0 80 80;" xml:space="preserve">
<style type="text/css">
	.st0{fill:#303030;}
</style>
<path class="st0" d="M61.3,40.7c-0.4-1-0.7-2.1-0.8-3.2c-0.2-1.3-0.4-2.6-0.8-3.8l11.6-3.8l-3-7.8l-7.2-0.2
	c-1.6-2.4-8.5-11.5-21.5-11.9C32,9.7,26.2,12,22.2,15c0,0-0.1,0-0.1,0l0,0c-3.4,2.5-5.5,5.4-6.5,7.7c-1.9,4.3-2.6,9.4-2,16.4
	l-3.9,1.3l2.7,8.9l4.9-1.6c0.8,2.2,1.9,4.3,3.4,6.2c1.9,2.5,3,5.5,3,8.7v7.7h2.2v-7.7c0-3.7-1.2-7.1-3.4-10C21,50.9,20,49,19.3,47
	l38.3-12.6c0.3,1.1,0.6,2.2,0.7,3.4c0.2,1.3,0.5,2.6,1,3.8l4.5,10.8c0.1,0.3,0.1,0.7-0.1,1c-0.2,0.3-0.5,0.5-0.9,0.5c0,0,0,0,0,0
	l-4.3-0.1v9.8c0,0.6-0.5,1.1-1.1,1.1h-6.5c-0.9,0-1.7,0.4-2.3,1c-0.6,0.6-1,1.5-0.9,2.3l0,2.2l2.2,0l0-2.2c0-0.3,0.1-0.6,0.3-0.8
	c0.2-0.2,0.5-0.3,0.8-0.3h6.5c1.8,0,3.3-1.5,3.3-3.3V56l2.1,0c1.1,0,2.1-0.5,2.8-1.4c0.6-0.9,0.7-2.1,0.3-3.1L61.3,40.7z M13.9,46.4
	l-1.3-4.5l18.7-6.2l-0.7-2.2l-14.7,4.9C15.4,32,16,27.5,17.7,23.6c0.9-1.9,2.7-4.5,5.6-6.6c4.2-2.2,9.6-2.3,16.8-0.5
	c5.6,1.4,10.1,5.5,12.3,7.7l3.1,0.1l0,0c-0.3-0.3-6.3-7.8-14.9-10c-3.1-0.8-5.9-1.2-8.5-1.3c2.2-0.5,4.7-0.8,7.4-0.7
	c13.3,0.4,19.9,11.2,19.9,11.3l0.3,0.5l6.9,0.2l1.6,4.1L13.9,46.4z"/>
</svg>
