<?xml version="1.0" encoding="utf-8"?>
<!-- Generator: Adobe Illustrator 20.1.0, SVG Export Plug-In . SVG Version: 6.00 Build 0)  -->
<svg version="1.1" id="Layer_1" xmlns="http://www.w3.org/2000/svg" xmlns:xlink="http://www.w3.org/1999/xlink" x="0px" y="0px"
	 viewBox="0 0 60 60" style="enable-background:new 0 0 60 60;" xml:space="preserve">
<style type="text/css">
	.st0{fill:#FFFFFF;}
	.st1{fill:#FFBB00;}
</style>
<path class="st0" d="M31,2.8h-1.2h-2.4c-2.6,0-4.7,2.1-4.7,4.7v6.3H10V7.5c0-2.6-2.1-4.7-4.7-4.7H3.5H1.6h-1v1v0.5v14.2v2.4v1.3v1h1
	h0.9h28.2H31h1v-1v-1.3V4.7V3.8v-1H31z M30,21.2H2.6v-2.7V4.8h2.7C6.8,4.8,8,6,8,7.5v6.6v0.8v1h1h1.3h13.4c0,0,0,0,0,0h1h0v-1
	c0,0,0,0,0,0V7.5c0-1.5,1.2-2.7,2.7-2.7H30V21.2z"/>
<path class="st0" d="M31,28.5h-0.7H2.9H1.6h-1v1v0.4v3.3c0,2.6,2.1,4.7,4.7,4.7h6.3v12.7H5.3c-2.6,0-4.7,2.1-4.7,4.7v3v0.7v1h1h0.6
	h28.4H31h1v-1v-0.7v-3c0-2.6-2.1-4.7-4.7-4.7H21V37.8h6.3c2.6,0,4.7-2.1,4.7-4.7v-2.8v-0.9v-1H31z M30,33.2c0,1.5-1.2,2.7-2.7,2.7
	H20c0,0,0,0,0,0h-1v1.4h0v13.6v0.7v1h1h0.8h6.6c1.5,0,2.7,1.2,2.7,2.7v2.7H2.6v-2.7c0-1.5,1.2-2.7,2.7-2.7h6.6v0h1.7v-1v-0.8v-13
	v-0.9v-1h-1h-1.1H5.3c-1.5,0-2.7-1.2-2.7-2.7v-2.7H30V33.2z"/>
<path class="st0" d="M53,50.5h-6.3V33.2c0-2.6-2.1-4.7-4.7-4.7h-2.7h-1h-1v1v0.3v28.4v0.7v1h1h2h15.6h0.8h1v-1v-0.6v-3
	C57.6,52.6,55.5,50.5,53,50.5z M55.6,57.8H39.3V30.5H42c1.5,0,2.7,1.2,2.7,2.7v17.6v0.7v1h1h1H53c1.5,0,2.7,1.2,2.7,2.7V57.8z"/>
<path class="st1" d="M53,13.8H42c-2.6,0-4.7,2.1-4.7,4.7v3.1v0.6v1h1H39h16.8h0.8h1v-1v-0.7v-2.9C57.6,15.9,55.5,13.8,53,13.8z
	 M55.6,21.2H39.3v-2.7c0-1.5,1.2-2.7,2.7-2.7h11c1.5,0,2.7,1.2,2.7,2.7V21.2z"/>
</svg>
