<?xml version="1.0" encoding="utf-8"?>
<!-- Generator: Adobe Illustrator 20.1.0, SVG Export Plug-In . SVG Version: 6.00 Build 0)  -->
<svg version="1.1" id="Layer_1" xmlns="http://www.w3.org/2000/svg" xmlns:xlink="http://www.w3.org/1999/xlink" x="0px" y="0px"
	 viewBox="0 0 80 80" style="enable-background:new 0 0 80 80;" xml:space="preserve">
<style type="text/css">
	.st0{fill:#303030;}
</style>
<path class="st0" d="M72.6,25.1v-5.3l-22.5-3.6l-11.1,0L36,21.5V10.1h-4.5v-5h-5v5h-4.5v6.2h-4l-8.1,4v4.8h2v2.7h7.1v-2.7h3v40.5
	h-2.8v6.7h19.6v-6.7H36V25.1h18.8V39h-2.6l1.6,7h1v1.1c-1.3,0.4-2.7,1.6-2.6,3.9c0.1,2.7,2.2,3.7,3.5,3.8c0,0,0.2,0,0.4,0
	c0.6,0,1.8-0.1,2.7-0.9c0.7-0.6,1.1-1.4,1.1-2.3l-2-0.2c0,0.4-0.2,0.7-0.4,0.9c-0.5,0.4-1.3,0.4-1.7,0.4c-0.4,0-1.6-0.2-1.7-1.8
	c0-1.7,1.3-2,1.7-2l0.9-0.1V46h1l1.6-7h-2.5V25.1H72.6z M34.1,12.1v5.2l-5.2-5.2h2.8H34.1z M28.6,7.1h1v3h-1V7.1z M26,12.1l8.1,8.1
	v3h-5.3l-4.6-4.6v-6.5H26z M24.1,21.4l1.8,1.8h-1.8V21.4z M16.2,21.9L15,20.1l2.3-1.2L16.2,21.9z M12.1,21.6l1.1-0.6l1.4,2.1h-2.6
	V21.6z M17.2,25.8h-3.1v-0.7h3.1V25.8z M19.2,23.1h-1.3l1.8-4.8l0,0h2.5v4.9H19.2z M27.9,25.1l4,4h-7.8v-4H27.9z M25.5,55h8.5v8.5
	L25.5,55z M34.1,31.3v8.3l-8.5-8.5h8.3L34.1,31.3z M24.1,32.5l8.6,8.6h-8.6V32.5z M24.1,44.5l8.6,8.6h-8.6V44.5z M25.5,43.1h8.5v8.5
	L25.5,43.1z M24.1,56.4l9.2,9.2h-9.2V56.4z M36.9,67.6v2.7H21.3v-2.7h0.8H36H36.9z M34.1,28.5l-3.3-3.3h3.3V28.5z M56.9,40.9
	L56.2,44h-0.7l-0.7-3.1H56.9z M41.2,18.3h6.4l-4,4.4L41.2,18.3z M49.8,18.9l3.4,4.3h-7.3L49.8,18.9z M52.2,18.7l6.4,1l-3.1,3.2
	L52.2,18.7z M70.6,23.1H58L61,20l9.6,1.5V23.1z M39.5,19.4l2.1,3.8h-4.2L39.5,19.4z"/>
</svg>
