<?xml version="1.0" encoding="utf-8"?>
<!-- Generator: Adobe Illustrator 20.1.0, SVG Export Plug-In . SVG Version: 6.00 Build 0)  -->
<svg version="1.1" id="Layer_1" xmlns="http://www.w3.org/2000/svg" xmlns:xlink="http://www.w3.org/1999/xlink" x="0px" y="0px"
	 viewBox="0 0 60 60" style="enable-background:new 0 0 60 60;" xml:space="preserve">
<style type="text/css">
	.st0{fill:#FFFFFF;}
	.st1{fill:#FFBB00;}
</style>
<g>
	<rect x="-0.2" y="8.2" class="st0" width="1.6" height="20.6"/>
	<rect x="58.6" y="8.2" class="st0" width="1.6" height="20.6"/>
	<path class="st0" d="M58.6,35.1H1.4h-1.6v1.6v13.5v1.6h1.6h57.2h1.6v-1.6V36.7v-1.6H58.6z M58.6,50.2H1.4V36.7h4v10.4H7V36.7h3.2
		v6.4h1.6v-6.4h3.2v6.4h1.6v-6.4h3.2v6.4h1.6v-6.4h3.2v6.4H26v-6.4h3.2v10.4h1.6V36.7H34v6.4h1.6v-6.4h3.2v6.4h1.6v-6.4h3.2v6.4h1.6
		v-6.4h3.2v6.4h1.6v-6.4H53v10.4h1.6V36.7h4V50.2z"/>
	<polygon class="st1" points="59.7,18.5 53.6,12.4 52.5,13.5 56.6,17.7 3.3,17.7 7.5,13.5 6.4,12.4 0.3,18.5 0.3,18.5 0.3,18.5 
		6.4,24.6 7.5,23.5 3.3,19.3 56.6,19.3 52.5,23.5 53.6,24.6 59.7,18.5 59.7,18.5 	"/>
</g>
</svg>
