<?xml version="1.0" encoding="utf-8"?>
<!-- Generator: Adobe Illustrator 19.1.0, SVG Export Plug-In . SVG Version: 6.00 Build 0)  -->
<svg version="1.1" id="Layer_1" xmlns="http://www.w3.org/2000/svg" xmlns:xlink="http://www.w3.org/1999/xlink" x="0px" y="0px"
	 viewBox="0 0 109 109" style="enable-background:new 0 0 109 109;" xml:space="preserve">
<style type="text/css">
	.st0{fill:#FEBB12;}
</style>
<g>
	<path class="st0" d="M31.5,81.1c-1.1,1.7-3.1,2.7-4.5,2.9c-2.3,0.5-4.5,0.6-6.3,2c-0.5,0.4-1.4,0.1-1.5-0.6c-0.3-2,0.3-4.3,1.2-5.6
		c-0.4,0-0.8,0.1-1.1,0.3c-0.7,0.3-1.5-0.3-1.3-1c0.6-2.3,2.2-5.5,4.7-6.8l-4-4c-0.3-0.3-0.5-0.5-0.7-0.8C10,69.1,5.1,78.4,3.4,84.8
		c-0.5,1.8,1.4,3.2,3.1,2.4c0.8-0.4,1.7-0.6,2.6-0.6C7,89.9,2,102.5,2.8,107.2c0.3,1.6,2.2,2.3,3.5,1.3c4-3.3,13-11,18.4-12.1
		c4-0.8,10.5-4.4,12.1-10.3c-0.5-0.3-0.9-0.7-1.3-1.1L31.5,81.1z"/>
	<path class="st0" d="M83.5,55.6c16-18.1,20-44.1,19.5-51.9c0-0.9-0.4-1.6-0.9-2.2c-0.5-0.5-1.3-0.9-2.2-0.9
		C92.1,0.2,66,4.2,48,20.2l-5.8-2.1c-6.3-2.3-13.5-0.4-17.8,4.7l-10,11.8c-1.4,1.7-0.7,4.2,1.3,5l12.7,4.6c-3.5,5.7-6,10.7-7.4,13.9
		c-1,2.2-0.5,4.8,1.2,6.5L39,81.4c1.7,1.7,4.3,2.2,6.5,1.2c3.2-1.4,8.1-3.9,13.9-7.4l4.6,12.7c0.8,2.1,3.3,2.7,5,1.3l11.8-10
		c5.1-4.4,7-11.5,4.7-17.8L83.5,55.6z M76.6,41.5c-4,4-10.5,4-14.4,0c-4-4-4-10.5,0-14.4c4-4,10.5-4,14.4,0
		C80.6,31,80.6,37.5,76.6,41.5z"/>
</g>
</svg>
