<?xml version="1.0" encoding="utf-8"?>
<!-- Generator: Adobe Illustrator 20.1.0, SVG Export Plug-In . SVG Version: 6.00 Build 0)  -->
<svg version="1.1" id="Layer_1" xmlns="http://www.w3.org/2000/svg" xmlns:xlink="http://www.w3.org/1999/xlink" x="0px" y="0px"
	 viewBox="0 0 60 60" style="enable-background:new 0 0 60 60;" xml:space="preserve">
<style type="text/css">
	.st0{fill:#FFFFFF;}
	.st1{fill:#FFBB00;}
</style>
<path class="st0" d="M19.5,48h-2C17.5,31,1,30.5,0,30.5v-2C17,28.5,17.5,12,17.5,11h2C19.5,28,36,28.5,37,28.5v2
	C20,30.5,19.5,47,19.5,48z M6.4,29.6c4.5,1.4,10.1,4.7,12.2,11.9c1.4-4.5,4.7-10.1,11.9-12.2c-4.5-1.4-10.1-4.7-12.2-11.9
	C16.9,22,13.7,27.5,6.4,29.6z"/>
<path class="st0" d="M46,59l-2,0c0-12.8-12.5-13-13-13l0-2c12.8,0,13-12.5,13-13l2,0c0,12.8,12.5,13,13,13l0,2
	C46.2,46,46,58.5,46,59z M36.7,45.1c3.2,1.2,6.8,3.5,8.5,8.2c1.2-3.2,3.5-6.8,8.2-8.5c-3.2-1.2-6.8-3.5-8.5-8.2
	C43.7,39.8,41.4,43.5,36.7,45.1z"/>
<polygon class="st1" points="60,14 52,14 52,6 50,6 50,14 42,14 42,16 50,16 50,24 52,24 52,16 60,16 "/>
</svg>
