<?xml version="1.0" encoding="utf-8"?>
<!-- Generator: Adobe Illustrator 20.1.0, SVG Export Plug-In . SVG Version: 6.00 Build 0)  -->
<svg version="1.1" id="Layer_1" xmlns="http://www.w3.org/2000/svg" xmlns:xlink="http://www.w3.org/1999/xlink" x="0px" y="0px"
	 viewBox="0 0 80 80" style="enable-background:new 0 0 80 80;" xml:space="preserve">
<style type="text/css">
	.st0{fill:#303030;}
</style>
<g>
	<path class="st0" d="M40.6,44.3L26.3,30.6c-2-2-3.1-4.6-3.1-7.5c0-5.8,4.6-10.5,10.3-10.5c2.6,0,5.1,1,7,2.8c1.9-1.8,4.4-2.8,7-2.8
		c5.7,0,10.3,4.7,10.3,10.5c0,2.8-1.1,5.5-3,7.4L40.6,44.3z M33.5,15c-4.4,0-8,3.7-8,8.2c0,2.2,0.8,4.3,2.4,5.8l12.7,12.2l12.7-12.2
		c1.5-1.5,2.3-3.6,2.3-5.8c0-4.5-3.6-8.2-8-8.2c-2.4,0-4.6,1.1-6.1,2.9L40.6,19l-0.9-1.1C38.2,16.1,35.9,15,33.5,15z"/>
	<path class="st0" d="M41.4,37.1l-1.6-1.7L50,25.7c0.6-0.6,1-1.5,1-2.5h2.3c0,1.6-0.6,3-1.7,4.1L41.4,37.1z"/>
	<path class="st0" d="M29.5,27.3c-1.1-1.1-1.7-2.6-1.7-4.1c0-3.2,2.5-5.9,5.7-5.9v2.3c-1.9,0-3.4,1.6-3.4,3.6c0,1,0.4,1.9,1,2.5
		L29.5,27.3z"/>
	<path class="st0" d="M68.3,19.6H66c-3.2,0-5.8,2.6-5.8,5.8v8.5c-0.5-0.3-1.1-0.4-1.7-0.4c-1.5,0-2.8,0.8-3.5,2.1l-4.8,8.8l-5.9,5.8
		c-1.6,1.6-2.8,3.5-3.7,5.6c-0.8-2.1-2.1-4-3.7-5.6L31,44.4l-4.8-8.8c-0.7-1.3-2.1-2.1-3.5-2.1c-0.6,0-1.2,0.2-1.7,0.4v-8.5
		c0-3.2-2.6-5.8-5.8-5.8h-2.3l0,27.7c0,2.2,0.8,4.3,2.4,5.9l9.1,9.4c0.8,0.9,1.3,2,1.3,3.2v2.3h2.3v-2.3c0-1.8-0.7-3.5-1.9-4.8
		l-9.1-9.4c-1.1-1.2-1.7-2.7-1.7-4.3l0-25.4h0c1.9,0,3.5,1.6,3.5,3.5v11.6h0.1c0,0.2-0.1,0.4-0.1,0.6c0,0.7,0.2,1.3,0.5,1.9
		l6.9,12.7l2-1.1l-6.9-12.7c-0.1-0.3-0.2-0.6-0.2-0.8c0-1,0.8-1.7,1.7-1.7c0.6,0,1.2,0.3,1.5,0.9l4.9,8.9l6.2,6.2
		c2.6,2.6,4.1,6.2,4.1,9.9v6.4h2.3v-6.4c0-3.7,1.5-7.3,4.1-9.9l6-5.9l5.1-9.2c0.3-0.6,0.9-0.9,1.5-0.9c1,0,1.7,0.8,1.7,1.7
		c0,0.3-0.1,0.6-0.2,0.8L53.1,51l2,1.1L62,39.4c0.3-0.6,0.5-1.3,0.5-1.9c0-0.2,0-0.4-0.1-0.6h0.1V25.4c0-1.9,1.6-3.5,3.5-3.5l0,25.4
		c0,1.6-0.6,3.1-1.7,4.3L55.2,61c-1.3,1.3-1.9,3-1.9,4.8v2.3h2.3v-2.3c0-1.2,0.5-2.3,1.3-3.2l9.1-9.4c1.5-1.6,2.4-3.7,2.4-5.9
		L68.3,19.6z"/>
</g>
</svg>
