<?xml version="1.0" encoding="utf-8"?>
<!-- Generator: Adobe Illustrator 20.1.0, SVG Export Plug-In . SVG Version: 6.00 Build 0)  -->
<svg version="1.1" id="Layer_1" xmlns="http://www.w3.org/2000/svg" xmlns:xlink="http://www.w3.org/1999/xlink" x="0px" y="0px"
	 viewBox="0 0 60 60" style="enable-background:new 0 0 60 60;" xml:space="preserve">
<style type="text/css">
	.st0{fill:#FFFFFF;}
	.st1{fill:#FFBB00;}
</style>
<g>
	<path class="st0" d="M40,21.2h9.2c1.1,0,2.1,0.4,2.9,1.2l5.1,5.1H60v-1.8h-2.1l-4.5-4.5c-1.1-1.1-2.6-1.7-4.2-1.7H40
		c-1.9,0-3.4,1.5-3.4,3.4v0.3H35c-1.9,0-3.4,1.5-3.4,3.4c0,1,0.4,1.9,1.1,2.5c-0.7,0.6-1.1,1.5-1.1,2.5c0,1,0.4,1.9,1.1,2.5
		c-0.7,0.6-1.1,1.5-1.1,2.5s0.4,1.9,1.1,2.5c-0.7,0.6-1.1,1.5-1.1,2.5c0,1.9,1.5,3.4,3.4,3.4h3.8H40h20v-1.8h-2.8V39h-1.8v4.1H43
		c0.3-0.5,0.4-1,0.4-1.6c0-1-0.4-1.9-1.1-2.5c0.7-0.6,1.1-1.5,1.1-2.5c0-1.2-0.6-2.2-1.5-2.8c0.6-0.5,1-1.2,1.3-1.9
		c1.7,2.6,4.7,4.4,8.1,4.4h1.2v-1.8h-1.2c-4.3,0-7.8-3.5-7.8-7.8h-1.8v3.8c0,1.6-1.3,2.8-2.8,2.8h-0.3V22.8
		C38.4,21.9,39.1,21.2,40,21.2z M33.4,26.5c0-0.9,0.7-1.6,1.6-1.6h1.6v3.2H35C34.1,28.1,33.4,27.4,33.4,26.5z M33.4,31.5
		c0-0.9,0.7-1.6,1.6-1.6h1.6v3.2H35C34.1,33.1,33.4,32.4,33.4,31.5z M41.6,41.5c0,0.9-0.7,1.6-1.6,1.6h-1.2H35
		c-0.9,0-1.6-0.7-1.6-1.6s0.7-1.6,1.6-1.6h5C40.9,39.9,41.6,40.7,41.6,41.5z M38.8,34.9H40c0.9,0,1.6,0.7,1.6,1.6s-0.7,1.6-1.6,1.6
		h-5c-0.9,0-1.6-0.7-1.6-1.6s0.7-1.6,1.6-1.6h1.6h0.9H38.8z"/>
	<path class="st0" d="M28.4,31.5c0-1-0.4-1.9-1.1-2.5c0.7-0.6,1.1-1.5,1.1-2.5c0-1.9-1.5-3.4-3.4-3.4h-1.6v-0.3
		c0-1.9-1.5-3.4-3.4-3.4h-9.2c-1.6,0-3.1,0.6-4.2,1.7l-4.5,4.5H0v1.8h2.9l5.1-5.1c0.8-0.8,1.8-1.2,2.9-1.2H20c0.9,0,1.6,0.7,1.6,1.6
		v10.3h-0.3c-1.6,0-2.8-1.3-2.8-2.8v-3.8h-1.8c0,4.3-3.5,7.8-7.8,7.8H7.5v1.8h1.3c3.4,0,6.4-1.8,8.1-4.4c0.3,0.7,0.7,1.4,1.3,1.9
		c-0.9,0.6-1.5,1.7-1.5,2.8c0,1,0.4,1.9,1.1,2.5c-0.7,0.6-1.1,1.5-1.1,2.5c0,0.6,0.2,1.1,0.4,1.6H4.7V39H2.8v4.1H0v1.8h20h1.2H25
		c1.9,0,3.4-1.5,3.4-3.4c0-1-0.4-1.9-1.1-2.5c0.7-0.6,1.1-1.5,1.1-2.5S28,34.7,27.3,34C28,33.4,28.4,32.5,28.4,31.5z M25,24.9
		c0.9,0,1.6,0.7,1.6,1.6c0,0.9-0.7,1.6-1.6,1.6h-1.6v-3.2H25z M26.6,41.5c0,0.9-0.7,1.6-1.6,1.6h-3.8H20c-0.9,0-1.6-0.7-1.6-1.6
		s0.7-1.6,1.6-1.6h5C25.9,39.9,26.6,40.7,26.6,41.5z M26.6,36.5c0,0.9-0.7,1.6-1.6,1.6h-5c-0.9,0-1.6-0.7-1.6-1.6s0.7-1.6,1.6-1.6
		h1.2h1.3h0.9H25C25.9,34.9,26.6,35.7,26.6,36.5z M23.4,33.1v-3.2H25c0.9,0,1.6,0.7,1.6,1.6s-0.7,1.6-1.6,1.6H23.4z"/>
	<rect x="29.1" y="7.8" class="st1" width="1.8" height="10"/>
	<rect x="34.1" y="12.5" transform="matrix(0.3716 -0.9284 0.9284 0.3716 11.1115 43.2418)" class="st1" width="6.7" height="1.8"/>
	<rect x="21.6" y="10" transform="matrix(0.9285 -0.3714 0.3714 0.9285 -3.372 9.3152)" class="st1" width="1.8" height="6.7"/>
	<rect x="29.1" y="47.8" class="st1" width="1.8" height="10"/>
	<rect x="36.6" y="48.8" transform="matrix(0.9284 -0.3715 0.3715 0.9284 -16.693 17.6619)" class="st1" width="1.8" height="6.7"/>
	<rect x="19.1" y="51.3" transform="matrix(0.3711 -0.9286 0.9286 0.3711 -34.2873 53.701)" class="st1" width="6.7" height="1.8"/>
</g>
</svg>
