<?xml version="1.0" encoding="utf-8"?>
<!-- Generator: Adobe Illustrator 19.1.0, SVG Export Plug-In . SVG Version: 6.00 Build 0)  -->
<svg version="1.1" id="Layer_1" xmlns="http://www.w3.org/2000/svg" xmlns:xlink="http://www.w3.org/1999/xlink" x="0px" y="0px"
	 viewBox="0 0 109 109" style="enable-background:new 0 0 109 109;" xml:space="preserve">
<style type="text/css">
	.st0{fill:#FEBB12;}
</style>
<g>
	<g>
		<path class="st0" d="M108.6,76.4c-1.4-8.3-8.8-28.1-14-41.6c-1.8-4.7-5.5-8.2-10-10c-0.3-0.7-0.5-1.4-0.8-2.1
			c-1.5-4-5.7-6.3-9.9-5.6l-1.5,0.3c-4.2,0.7-7.3,4.3-7.5,8.6c0,1-0.1,2.2-0.1,3.3c-2.7,2.9-4.3,6.8-4.6,10.9
			c-1.8-0.9-3.7-1.5-5.8-1.5c-2.1,0-4.1,0.6-5.8,1.5c-0.2-4.2-1.9-8-4.6-10.9c0-1.2-0.1-2.3-0.1-3.3c-0.1-4.3-3.3-7.9-7.5-8.6
			L35,17.1c-4.2-0.7-8.4,1.6-9.9,5.6c-0.3,0.6-0.5,1.4-0.8,2.1c-4.4,1.8-8.1,5.3-10,10C9.1,48.3,1.8,68.1,0.4,76.4
			c-2.3,13.1,6.5,25.6,19.7,27.9c12.9,2.2,25.2-6.2,27.8-19c2,1.2,4.2,1.9,6.7,1.9c2.5,0,4.7-0.7,6.7-1.9
			c2.6,12.8,14.8,21.3,27.8,19C102.1,102.1,110.9,89.6,108.6,76.4z M24.1,95.6c-8.3,0-15-6.7-15-15c0-8.3,6.7-15,15-15
			c8.3,0,15,6.7,15,15C39.2,88.9,32.5,95.6,24.1,95.6z M54.5,80.1c-3.3,0-5.9-2.6-5.9-5.9c0-3.3,2.6-5.9,5.9-5.9
			c3.3,0,5.9,2.6,5.9,5.9C60.4,77.5,57.8,80.1,54.5,80.1z M84.9,95.6c-8.3,0-15-6.7-15-15c0-8.3,6.7-15,15-15c8.3,0,15,6.7,15,15
			C99.9,88.9,93.2,95.6,84.9,95.6z"/>
	</g>
</g>
</svg>
