<?xml version="1.0" encoding="utf-8"?>
<!-- Generator: Adobe Illustrator 20.1.0, SVG Export Plug-In . SVG Version: 6.00 Build 0)  -->
<svg version="1.1" id="Layer_1" xmlns="http://www.w3.org/2000/svg" xmlns:xlink="http://www.w3.org/1999/xlink" x="0px" y="0px"
	 viewBox="0 0 80 80" style="enable-background:new 0 0 80 80;" xml:space="preserve">
<style type="text/css">
	.st0{fill:#303030;}
</style>
<path class="st0" d="M58,53.5c2.6-2.9,4.1-6.7,4.1-10.8c0-3.1-0.9-6-2.4-8.5l7.6-7.9l-1.5-1.5l-7.3,7.6c-0.2-0.2-0.3-0.4-0.5-0.6V5
	H18v7h-5v54h20.9l-2.4,7.3l5.5-1.4l3.6,4.5L44,66h3.5L51,76.3l3.6-4.5l5.5,1.4L55.6,60H58V53.5z M60,42.6c0,7.8-6.4,14.2-14.2,14.2
	c-7.8,0-14.2-6.4-14.2-14.2s6.4-14.2,14.2-14.2c4.6,0,8.6,2.2,11.2,5.5L55,36c-2.1-2.9-5.5-4.8-9.3-4.8c-6.3,0-11.4,5.1-11.4,11.4
	s5.1,11.4,11.4,11.4s11.4-5.1,11.4-11.4c0-1.7-0.4-3.3-1.1-4.8l2-2.1C59.3,37.8,60,40.1,60,42.6z M45.9,48.6l8.7-9.1
	c0.3,1,0.5,2,0.5,3.1c0,5.1-4.2,9.3-9.3,9.3c-5.1,0-9.3-4.2-9.3-9.3c0-5.1,4.2-9.3,9.3-9.3c3.2,0,6.1,1.7,7.8,4.2l-7.5,7.8L40.3,38
	l-1.7,1.2L45.9,48.6z M20,7h36v22.9c-1.2-1-2.5-1.8-4-2.4V12H20V7z M15,64V14h35v12.9c-1.4-0.4-2.8-0.6-4.2-0.6
	c-9,0-16.3,7.3-16.3,16.3c0,5.8,3.1,10.9,7.7,13.8L34.6,64H15z M39.8,71.8l-1.9-2.4l-3,0.8l4.2-12.6c1.6,0.7,3.2,1.2,5,1.4
	L39.8,71.8z M44.7,64l1.1-3.3l1.1,3.3H44.7z M53.7,69.4l-1.9,2.4l-4.3-12.9c1.8-0.2,3.4-0.7,5-1.4l4.2,12.6L53.7,69.4z M55,58
	l-0.5-1.5c0.5-0.3,1.1-0.7,1.6-1.1V58H55z"/>
</svg>
