<?xml version="1.0" encoding="utf-8"?>
<!-- Generator: Adobe Illustrator 20.1.0, SVG Export Plug-In . SVG Version: 6.00 Build 0)  -->
<svg version="1.1" id="Layer_1" xmlns="http://www.w3.org/2000/svg" xmlns:xlink="http://www.w3.org/1999/xlink" x="0px" y="0px"
	 viewBox="0 0 350 30" style="enable-background:new 0 0 350 30;" xml:space="preserve">
<style type="text/css">
	.st0{fill:#FFBB00;}
	.st1{fill:#FFFFFF;}
</style>
<g>
	<path class="st0" d="M93.2,22H80V-0.1h13.1v4.8H86v3.5h6.6v4.8H86v4.2h7.2V22z"/>
	<path class="st1" d="M108.9,22l-0.7-2.1h-0.3c-0.5,0.8-1.2,1.4-2.1,1.8c-0.9,0.4-1.9,0.6-3.1,0.6c-1.9,0-3.4-0.5-4.4-1.6
		c-1-1.1-1.6-2.6-1.6-4.6V4.9h5.9v9.4c0,1.1,0.2,2,0.5,2.5c0.3,0.6,0.8,0.9,1.6,0.9c1,0,1.7-0.4,2.2-1.2c0.4-0.8,0.7-2.2,0.7-4.1
		V4.9h5.9V22H108.9z"/>
	<path class="st1" d="M127.8,4.5c0.5,0,1,0,1.5,0.1l0.3,0.1l-0.5,5.6c-0.5-0.1-1.2-0.2-2-0.2c-1.3,0-2.2,0.3-2.8,0.9
		c-0.6,0.6-0.9,1.4-0.9,2.6V22h-5.9V4.9h4.4l0.9,2.7h0.3c0.5-0.9,1.2-1.6,2.1-2.2C126,4.8,126.9,4.5,127.8,4.5z"/>
	<path class="st1" d="M148.4,13.4c0,2.8-0.8,5-2.3,6.6c-1.5,1.6-3.6,2.4-6.3,2.4c-2.6,0-4.7-0.8-6.2-2.4c-1.5-1.6-2.3-3.8-2.3-6.5
		c0-2.8,0.8-5,2.3-6.5c1.5-1.5,3.6-2.3,6.4-2.3c1.7,0,3.2,0.4,4.5,1.1c1.3,0.7,2.3,1.7,3,3.1C148,10,148.4,11.6,148.4,13.4z
		 M137.3,13.4c0,1.5,0.2,2.6,0.6,3.4c0.4,0.8,1.1,1.2,2,1.2c0.9,0,1.6-0.4,1.9-1.2c0.4-0.8,0.6-1.9,0.6-3.4c0-1.5-0.2-2.6-0.6-3.3
		c-0.4-0.7-1-1.1-2-1.1c-0.9,0-1.6,0.4-2,1.1C137.5,10.8,137.3,11.9,137.3,13.4z"/>
	<path class="st1" d="M159.6,22.3c-2.8,0-4.9-0.8-6.4-2.3c-1.4-1.5-2.2-3.7-2.2-6.5c0-2.8,0.8-5.1,2.3-6.6c1.6-1.6,3.8-2.3,6.7-2.3
		c2,0,3.9,0.4,5.6,1.3l-1.7,4.4c-0.7-0.3-1.4-0.6-2-0.7c-0.6-0.2-1.2-0.3-1.9-0.3c-1,0-1.7,0.4-2.2,1.1c-0.5,0.7-0.8,1.8-0.8,3.2
		c0,2.7,1,4.1,3,4.1c1.7,0,3.4-0.5,5-1.5v4.7C163.5,21.8,161.7,22.3,159.6,22.3z"/>
	<path class="st1" d="M184.8,13.4c0,2.8-0.8,5-2.3,6.6c-1.5,1.6-3.6,2.4-6.3,2.4c-2.6,0-4.7-0.8-6.2-2.4c-1.5-1.6-2.3-3.8-2.3-6.5
		c0-2.8,0.8-5,2.3-6.5c1.5-1.5,3.6-2.3,6.4-2.3c1.7,0,3.2,0.4,4.5,1.1c1.3,0.7,2.3,1.7,3,3.1C184.5,10,184.8,11.6,184.8,13.4z
		 M173.7,13.4c0,1.5,0.2,2.6,0.6,3.4c0.4,0.8,1.1,1.2,2,1.2c0.9,0,1.6-0.4,1.9-1.2c0.4-0.8,0.6-1.9,0.6-3.4c0-1.5-0.2-2.6-0.6-3.3
		c-0.4-0.7-1-1.1-2-1.1c-0.9,0-1.6,0.4-2,1.1C173.9,10.8,173.7,11.9,173.7,13.4z"/>
	<path class="st1" d="M198.5,22.3c-0.9,0-1.6-0.1-2.3-0.4c-0.7-0.3-1.4-0.8-2-1.6h-0.3c0.2,1.2,0.3,1.9,0.3,2.2v6.9h-5.9V4.9h4.8
		l0.8,2.2h0.3c1.1-1.7,2.6-2.5,4.6-2.5c1.9,0,3.4,0.8,4.5,2.4c1.1,1.6,1.6,3.7,1.6,6.5c0,2.8-0.6,4.9-1.7,6.5
		C202,21.5,200.4,22.3,198.5,22.3z M196.5,9.2c-0.9,0-1.5,0.3-1.8,0.9c-0.3,0.6-0.5,1.5-0.6,2.8v0.5c0,1.5,0.2,2.5,0.6,3.2
		s1,1,1.9,1c0.8,0,1.3-0.3,1.7-1c0.3-0.7,0.5-1.7,0.5-3.2c0-1.5-0.2-2.5-0.5-3.2C197.9,9.5,197.3,9.2,196.5,9.2z"/>
	<path class="st1" d="M216.5,17.6c0.8,0,1.8-0.2,2.9-0.6v4.3c-0.8,0.3-1.6,0.6-2.3,0.7c-0.7,0.1-1.6,0.2-2.5,0.2
		c-2,0-3.4-0.5-4.3-1.5c-0.9-1-1.3-2.5-1.3-4.5V9.3h-2.1V6.9l2.6-1.9l1.5-3.6h3.9v3.4h4.2v4.4h-4.2V16
		C214.9,17.1,215.5,17.6,216.5,17.6z"/>
	<path class="st1" d="M230.7,22.3c-2.9,0-5.1-0.8-6.7-2.3c-1.6-1.5-2.4-3.7-2.4-6.5c0-2.9,0.7-5.1,2.2-6.7c1.5-1.5,3.6-2.3,6.3-2.3
		c2.6,0,4.6,0.7,6,2c1.4,1.3,2.1,3.3,2.1,5.8V15h-10.6c0,1,0.4,1.7,1.1,2.3c0.7,0.5,1.6,0.8,2.7,0.8c1,0,2-0.1,2.9-0.3
		c0.9-0.2,1.8-0.5,2.8-1V21c-0.9,0.5-1.9,0.8-2.9,1S232.1,22.3,230.7,22.3z M230.3,8.6c-0.7,0-1.3,0.2-1.7,0.7
		c-0.5,0.4-0.7,1.1-0.8,2.1h5.1c0-0.8-0.3-1.5-0.7-2C231.7,8.8,231.1,8.6,230.3,8.6z"/>
	<path class="st1" d="M251.9,4.5c0.5,0,1,0,1.5,0.1l0.3,0.1l-0.5,5.6c-0.5-0.1-1.2-0.2-2-0.2c-1.3,0-2.2,0.3-2.8,0.9
		c-0.6,0.6-0.9,1.4-0.9,2.6V22h-5.9V4.9h4.4l0.9,2.7h0.3c0.5-0.9,1.2-1.6,2.1-2.2C250.1,4.8,251,4.5,251.9,4.5z"/>
</g>
</svg>
