<?xml version="1.0" encoding="utf-8"?>
<!-- Generator: Adobe Illustrator 20.1.0, SVG Export Plug-In . SVG Version: 6.00 Build 0)  -->
<svg version="1.1" id="Layer_1" xmlns="http://www.w3.org/2000/svg" xmlns:xlink="http://www.w3.org/1999/xlink" x="0px" y="0px"
	 viewBox="0 0 350 30" style="enable-background:new 0 0 350 30;" xml:space="preserve">
<style type="text/css">
	.st0{fill:#FFBB00;}
	.st1{fill:#FFFFFF;}
</style>
<g>
	<path class="st0" d="M125.9,26H120V3.9h13.1v4.8h-7.2v4.2h6.6v4.8h-6.6V26z"/>
	<path class="st1" d="M146.7,8.5c0.5,0,1,0,1.5,0.1l0.3,0.1l-0.5,5.6c-0.5-0.1-1.2-0.2-2-0.2c-1.3,0-2.2,0.3-2.8,0.9
		c-0.6,0.6-0.9,1.4-0.9,2.6V26h-5.9V8.9h4.4l0.9,2.7h0.3c0.5-0.9,1.2-1.6,2.1-2.2C144.9,8.8,145.8,8.5,146.7,8.5z"/>
	<path class="st1" d="M150.8,4.6c0-0.9,0.2-1.5,0.7-2c0.5-0.4,1.3-0.7,2.4-0.7c1.1,0,1.9,0.2,2.4,0.7c0.5,0.4,0.8,1.1,0.8,2
		c0,1.7-1.1,2.6-3.2,2.6C151.8,7.2,150.8,6.3,150.8,4.6z M156.9,26H151V8.9h5.9V26z"/>
	<path class="st1" d="M168.8,26.3c-2.8,0-4.9-0.8-6.4-2.3c-1.4-1.5-2.2-3.7-2.2-6.5c0-2.8,0.8-5.1,2.3-6.6c1.6-1.6,3.8-2.3,6.7-2.3
		c2,0,3.9,0.4,5.6,1.3l-1.7,4.4c-0.7-0.3-1.4-0.6-2-0.7c-0.6-0.2-1.2-0.3-1.9-0.3c-1,0-1.7,0.4-2.2,1.1c-0.5,0.7-0.8,1.8-0.8,3.2
		c0,2.7,1,4.1,3,4.1c1.7,0,3.4-0.5,5-1.5v4.7C172.8,25.8,171,26.3,168.8,26.3z"/>
	<path class="st1" d="M183.5,16.4c0.7-1.1,1.3-2,1.8-2.7l3.8-4.8h6.6l-5.9,7.3l6.3,9.9h-6.8l-3.8-6.1l-1.9,1.5V26h-5.9V2.4h5.9v9.3
		c0,1.6-0.1,3.1-0.3,4.6H183.5z"/>
	<path class="st1" d="M206.4,26.3c-2.9,0-5.1-0.8-6.7-2.3c-1.6-1.5-2.4-3.7-2.4-6.5c0-2.9,0.7-5.1,2.2-6.7c1.5-1.5,3.6-2.3,6.3-2.3
		c2.6,0,4.6,0.7,6,2c1.4,1.3,2.1,3.3,2.1,5.8V19h-10.6c0,1,0.4,1.7,1.1,2.3c0.7,0.5,1.6,0.8,2.7,0.8c1,0,2-0.1,2.9-0.3
		c0.9-0.2,1.8-0.5,2.8-1V25c-0.9,0.5-1.9,0.8-2.9,1C209,26.2,207.8,26.3,206.4,26.3z M206.1,12.6c-0.7,0-1.3,0.2-1.7,0.7
		c-0.5,0.4-0.7,1.1-0.8,2.1h5.1c0-0.8-0.3-1.5-0.7-2C207.4,12.8,206.8,12.6,206.1,12.6z"/>
</g>
</svg>
