<?xml version="1.0" encoding="utf-8"?>
<!-- Generator: Adobe Illustrator 20.1.0, SVG Export Plug-In . SVG Version: 6.00 Build 0)  -->
<svg version="1.1" id="Layer_1" xmlns="http://www.w3.org/2000/svg" xmlns:xlink="http://www.w3.org/1999/xlink" x="0px" y="0px"
	 viewBox="0 0 350 30" style="enable-background:new 0 0 350 30;" xml:space="preserve">
<style type="text/css">
	.st0{fill:#FFBB00;}
	.st1{fill:#FFFFFF;}
</style>
<g>
	<path class="st0" d="M122.9,14h9.6V26c-2.6,0.9-5.4,1.3-8.6,1.3c-3.4,0-6-1-7.9-3c-1.9-2-2.8-4.8-2.8-8.5c0-3.6,1-6.4,3.1-8.3
		c2-2,4.9-3,8.6-3c1.4,0,2.7,0.1,3.9,0.4c1.2,0.3,2.3,0.6,3.2,1l-1.9,4.7c-1.6-0.8-3.3-1.2-5.3-1.2c-1.7,0-3.1,0.6-4,1.7
		c-1,1.1-1.4,2.8-1.4,4.9c0,2.1,0.4,3.6,1.3,4.7c0.9,1.1,2.1,1.6,3.7,1.6c0.9,0,1.7-0.1,2.5-0.3v-3.5h-4V14z"/>
	<path class="st1" d="M144.9,27.3c-2.9,0-5.1-0.8-6.7-2.3c-1.6-1.5-2.4-3.7-2.4-6.5c0-2.9,0.7-5.1,2.2-6.7c1.5-1.5,3.6-2.3,6.3-2.3
		c2.6,0,4.6,0.7,6,2c1.4,1.3,2.1,3.3,2.1,5.8V20h-10.6c0,1,0.4,1.7,1.1,2.3c0.7,0.5,1.6,0.8,2.7,0.8c1,0,2-0.1,2.9-0.3
		c0.9-0.2,1.8-0.5,2.8-1V26c-0.9,0.5-1.9,0.8-2.9,1C147.4,27.2,146.3,27.3,144.9,27.3z M144.5,13.6c-0.7,0-1.3,0.2-1.7,0.7
		c-0.5,0.4-0.7,1.1-0.8,2.1h5.1c0-0.8-0.3-1.5-0.7-2C145.9,13.8,145.3,13.6,144.5,13.6z"/>
	<path class="st1" d="M172.2,18.4c0,2.8-0.8,5-2.3,6.6c-1.5,1.6-3.6,2.4-6.3,2.4c-2.6,0-4.7-0.8-6.2-2.4c-1.5-1.6-2.3-3.8-2.3-6.5
		c0-2.8,0.8-5,2.3-6.5c1.5-1.5,3.6-2.3,6.4-2.3c1.7,0,3.2,0.4,4.5,1.1c1.3,0.7,2.3,1.7,3,3.1C171.8,15,172.2,16.6,172.2,18.4z
		 M161,18.4c0,1.5,0.2,2.6,0.6,3.4c0.4,0.8,1.1,1.2,2,1.2c0.9,0,1.6-0.4,1.9-1.2c0.4-0.8,0.6-1.9,0.6-3.4c0-1.5-0.2-2.6-0.6-3.3
		c-0.4-0.7-1-1.1-2-1.1c-0.9,0-1.6,0.4-2,1.1C161.2,15.8,161,16.9,161,18.4z"/>
	<path class="st1" d="M180.9,27.3c-1.2,0-2.3-0.3-3.2-1c-0.9-0.7-1.6-1.7-2.1-3.1c-0.5-1.4-0.7-2.9-0.7-4.7c0-2.8,0.6-5,1.7-6.5
		s2.7-2.4,4.6-2.4c1,0,1.8,0.2,2.5,0.6c0.7,0.4,1.4,1,2,1.9h0.1c-0.2-1.3-0.3-2.7-0.3-4V3.4h6V27h-4.5l-1.3-2.2h-0.2
		C184.4,26.5,182.9,27.3,180.9,27.3z M183.3,22.6c0.9,0,1.6-0.3,2-0.9c0.4-0.6,0.6-1.5,0.6-2.8v-0.5c0-1.5-0.2-2.6-0.7-3.2
		c-0.4-0.6-1.1-1-2-1c-0.8,0-1.4,0.4-1.8,1.1c-0.4,0.7-0.6,1.8-0.6,3.1c0,1.3,0.2,2.3,0.7,3S182.5,22.6,183.3,22.6z"/>
	<path class="st1" d="M195.3,5.6c0-0.9,0.2-1.5,0.7-2c0.5-0.4,1.3-0.7,2.4-0.7c1.1,0,1.9,0.2,2.4,0.7c0.5,0.4,0.8,1.1,0.8,2
		c0,1.7-1.1,2.6-3.2,2.6C196.4,8.2,195.3,7.3,195.3,5.6z M201.4,27h-5.9V9.9h5.9V27z"/>
	<path class="st1" d="M218.8,21.7c0,1.8-0.6,3.2-1.9,4.2c-1.3,0.9-3,1.4-5.4,1.4c-1.3,0-2.4-0.1-3.3-0.2c-0.9-0.1-1.9-0.4-2.9-0.7
		v-4.7c0.9,0.4,1.9,0.7,3,1s2.1,0.4,2.9,0.4c1.3,0,1.9-0.3,1.9-0.9c0-0.3-0.2-0.6-0.5-0.8c-0.4-0.2-1.4-0.7-3.1-1.4
		c-1.6-0.6-2.7-1.4-3.3-2.2c-0.6-0.8-0.9-1.9-0.9-3.1c0-1.6,0.6-2.8,1.8-3.7c1.2-0.9,3-1.3,5.2-1.3c1.1,0,2.2,0.1,3.2,0.4
		c1,0.2,2,0.6,3.1,1.1l-1.6,3.8c-0.8-0.4-1.6-0.7-2.5-0.9c-0.9-0.2-1.6-0.4-2.1-0.4c-1,0-1.5,0.2-1.5,0.7c0,0.3,0.2,0.5,0.5,0.7
		c0.3,0.2,1.3,0.6,2.9,1.3c1.2,0.5,2.1,1,2.7,1.5c0.6,0.5,1,1,1.3,1.7C218.7,20,218.8,20.8,218.8,21.7z"/>
</g>
</svg>
