<?xml version="1.0" encoding="utf-8"?>
<!-- Generator: Adobe Illustrator 20.1.0, SVG Export Plug-In . SVG Version: 6.00 Build 0)  -->
<svg version="1.1" id="Layer_1" xmlns="http://www.w3.org/2000/svg" xmlns:xlink="http://www.w3.org/1999/xlink" x="0px" y="0px"
	 viewBox="0 0 350 30" style="enable-background:new 0 0 350 30;" xml:space="preserve">
<style type="text/css">
	.st0{fill:#FFBB00;}
	.st1{fill:#FFFFFF;}
</style>
<g>
	<path class="st0" d="M31.9,11h9.6V23c-2.6,0.9-5.4,1.3-8.6,1.3c-3.4,0-6-1-7.9-3c-1.9-2-2.8-4.8-2.8-8.5c0-3.6,1-6.4,3.1-8.3
		c2-2,4.9-3,8.6-3c1.4,0,2.7,0.1,3.9,0.4c1.2,0.3,2.3,0.6,3.2,1l-1.9,4.7c-1.6-0.8-3.3-1.2-5.3-1.2c-1.7,0-3.1,0.6-4,1.7
		c-1,1.1-1.4,2.8-1.4,4.9c0,2.1,0.4,3.6,1.3,4.7c0.9,1.1,2.1,1.6,3.7,1.6c0.9,0,1.7-0.1,2.5-0.3v-3.5h-4V11z"/>
	<path class="st1" d="M53.9,24.3c-2.9,0-5.1-0.8-6.7-2.3c-1.6-1.5-2.4-3.7-2.4-6.5c0-2.9,0.7-5.1,2.2-6.7c1.5-1.5,3.6-2.3,6.3-2.3
		c2.6,0,4.6,0.7,6,2c1.4,1.3,2.1,3.3,2.1,5.8V17H50.9c0,1,0.4,1.7,1.1,2.3c0.7,0.5,1.6,0.8,2.7,0.8c1,0,2-0.1,2.9-0.3
		c0.9-0.2,1.8-0.5,2.8-1V23c-0.9,0.5-1.9,0.8-2.9,1C56.4,24.2,55.3,24.3,53.9,24.3z M53.5,10.6c-0.7,0-1.3,0.2-1.7,0.7
		c-0.5,0.4-0.7,1.1-0.8,2.1h5.1c0-0.8-0.3-1.5-0.7-2C54.9,10.8,54.3,10.6,53.5,10.6z"/>
	<path class="st1" d="M75.1,6.5c0.5,0,1,0,1.5,0.1l0.3,0.1l-0.5,5.6c-0.5-0.1-1.2-0.2-2-0.2c-1.3,0-2.2,0.3-2.8,0.9
		c-0.6,0.6-0.9,1.4-0.9,2.6V24h-5.9V6.9h4.4l0.9,2.7h0.3c0.5-0.9,1.2-1.6,2.1-2.2C73.3,6.8,74.2,6.5,75.1,6.5z"/>
	<path class="st1" d="M89.7,6.5c0.5,0,1,0,1.5,0.1l0.3,0.1L91,12.3c-0.5-0.1-1.2-0.2-2-0.2c-1.3,0-2.2,0.3-2.8,0.9
		c-0.6,0.6-0.9,1.4-0.9,2.6V24h-5.9V6.9h4.4l0.9,2.7h0.3c0.5-0.9,1.2-1.6,2.1-2.2C87.9,6.8,88.8,6.5,89.7,6.5z"/>
	<path class="st1" d="M102.2,24.3c-2.9,0-5.1-0.8-6.7-2.3c-1.6-1.5-2.4-3.7-2.4-6.5c0-2.9,0.7-5.1,2.2-6.7c1.5-1.5,3.6-2.3,6.3-2.3
		c2.6,0,4.6,0.7,6,2c1.4,1.3,2.1,3.3,2.1,5.8V17H99.1c0,1,0.4,1.7,1.1,2.3c0.7,0.5,1.6,0.8,2.7,0.8c1,0,2-0.1,2.9-0.3
		c0.9-0.2,1.8-0.5,2.8-1V23c-0.9,0.5-1.9,0.8-2.9,1C104.7,24.2,103.5,24.3,102.2,24.3z M101.8,10.6c-0.7,0-1.3,0.2-1.7,0.7
		c-0.5,0.4-0.7,1.1-0.8,2.1h5.1c0-0.8-0.3-1.5-0.7-2C103.2,10.8,102.6,10.6,101.8,10.6z"/>
	<path class="st1" d="M126.3,18.7c0,1.8-0.6,3.2-1.9,4.2c-1.3,0.9-3,1.4-5.4,1.4c-1.3,0-2.4-0.1-3.3-0.2c-0.9-0.1-1.9-0.4-2.9-0.7
		v-4.7c0.9,0.4,1.9,0.7,3,1c1.1,0.3,2.1,0.4,2.9,0.4c1.3,0,1.9-0.3,1.9-0.9c0-0.3-0.2-0.6-0.5-0.8c-0.4-0.2-1.4-0.7-3.1-1.4
		c-1.6-0.6-2.7-1.4-3.3-2.2c-0.6-0.8-0.9-1.9-0.9-3.1c0-1.6,0.6-2.8,1.8-3.7c1.2-0.9,3-1.3,5.2-1.3c1.1,0,2.2,0.1,3.2,0.4
		c1,0.2,2,0.6,3.1,1.1l-1.6,3.8c-0.8-0.4-1.6-0.7-2.5-0.9c-0.9-0.2-1.6-0.4-2.1-0.4c-1,0-1.5,0.2-1.5,0.7c0,0.3,0.2,0.5,0.5,0.7
		c0.3,0.2,1.3,0.6,2.9,1.3c1.2,0.5,2.1,1,2.7,1.5c0.6,0.5,1,1,1.3,1.7C126.1,17,126.3,17.8,126.3,18.7z"/>
	<path class="st1" d="M140.4,24v-9.4c0-2.3-0.7-3.5-2-3.5c-1,0-1.7,0.4-2.1,1.2c-0.5,0.8-0.7,2.2-0.7,4V24h-5.9V0.4h5.9v3.3
		c0,1.5-0.1,3.2-0.2,5.2h0.3c0.6-0.9,1.2-1.5,2-1.9c0.8-0.4,1.7-0.5,2.7-0.5c1.9,0,3.4,0.6,4.5,1.7c1.1,1.1,1.6,2.7,1.6,4.6V24
		H140.4z"/>
	<path class="st1" d="M158.6,24.3c-2.9,0-5.1-0.8-6.7-2.3c-1.6-1.5-2.4-3.7-2.4-6.5c0-2.9,0.7-5.1,2.2-6.7c1.5-1.5,3.6-2.3,6.3-2.3
		c2.6,0,4.6,0.7,6,2c1.4,1.3,2.1,3.3,2.1,5.8V17h-10.6c0,1,0.4,1.7,1.1,2.3c0.7,0.5,1.6,0.8,2.7,0.8c1,0,2-0.1,2.9-0.3
		c0.9-0.2,1.8-0.5,2.8-1V23c-0.9,0.5-1.9,0.8-2.9,1C161.2,24.2,160,24.3,158.6,24.3z M158.3,10.6c-0.7,0-1.3,0.2-1.7,0.7
		c-0.5,0.4-0.7,1.1-0.8,2.1h5.1c0-0.8-0.3-1.5-0.7-2C159.6,10.8,159,10.6,158.3,10.6z"/>
	<path class="st1" d="M169.4,2.6c0-0.9,0.2-1.5,0.7-2c0.5-0.4,1.3-0.7,2.4-0.7c1.1,0,1.9,0.2,2.4,0.7c0.5,0.4,0.8,1.1,0.8,2
		c0,1.7-1.1,2.6-3.2,2.6C170.4,5.2,169.4,4.3,169.4,2.6z M175.4,24h-5.9V6.9h5.9V24z"/>
	<path class="st1" d="M200.6,24v-9.3c0-1.2-0.2-2-0.5-2.6c-0.3-0.6-0.8-0.9-1.5-0.9c-0.9,0-1.6,0.4-2,1.2c-0.4,0.8-0.6,2-0.6,3.6v8
		h-5.9v-9.3c0-1.2-0.2-2-0.5-2.6c-0.3-0.6-0.8-0.9-1.5-0.9c-0.9,0-1.6,0.4-2,1.2c-0.4,0.8-0.6,2.2-0.6,4.1V24h-5.9V6.9h4.5l0.7,2.1
		h0.3c0.5-0.8,1.1-1.4,2-1.8c0.9-0.4,1.8-0.6,2.9-0.6c2.5,0,4.2,0.8,5.2,2.3h0.5c0.5-0.7,1.2-1.3,2-1.7c0.9-0.4,1.8-0.6,2.9-0.6
		c2,0,3.5,0.5,4.5,1.6c1,1,1.5,2.6,1.5,4.7V24H200.6z"/>
	<path class="st1" d="M218.9,24.3c-2.9,0-5.1-0.8-6.7-2.3c-1.6-1.5-2.4-3.7-2.4-6.5c0-2.9,0.7-5.1,2.2-6.7c1.5-1.5,3.6-2.3,6.3-2.3
		c2.6,0,4.6,0.7,6,2c1.4,1.3,2.1,3.3,2.1,5.8V17h-10.6c0,1,0.4,1.7,1.1,2.3c0.7,0.5,1.6,0.8,2.7,0.8c1,0,2-0.1,2.9-0.3
		c0.9-0.2,1.8-0.5,2.8-1V23c-0.9,0.5-1.9,0.8-2.9,1S220.2,24.3,218.9,24.3z M218.5,10.6c-0.7,0-1.3,0.2-1.7,0.7
		c-0.5,0.4-0.7,1.1-0.8,2.1h5.1c0-0.8-0.3-1.5-0.7-2C219.9,10.8,219.3,10.6,218.5,10.6z"/>
	<path class="st1" d="M240.1,6.5c0.5,0,1,0,1.5,0.1l0.3,0.1l-0.5,5.6c-0.5-0.1-1.2-0.2-2-0.2c-1.3,0-2.2,0.3-2.8,0.9
		c-0.6,0.6-0.9,1.4-0.9,2.6V24h-5.9V6.9h4.4l0.9,2.7h0.3c0.5-0.9,1.2-1.6,2.1-2.2C238.3,6.8,239.2,6.5,240.1,6.5z"/>
	<path class="st1" d="M251.4,15.2c0-2.9,0.4-5.6,1.1-7.9c0.7-2.4,1.8-4.4,3.2-6h4.9c-1.3,1.8-2.3,3.8-2.9,6.2c-0.7,2.4-1,4.9-1,7.7
		c0,2.6,0.3,5.1,1,7.5c0.7,2.4,1.6,4.4,2.9,6.2h-4.9c-1.4-1.6-2.4-3.6-3.2-5.9C251.8,20.7,251.4,18.1,251.4,15.2z"/>
	<path class="st1" d="M282.6,12.5c0,3.7-1,6.5-3,8.5c-2,2-4.9,3-8.6,3h-7.2V1.9h7.7c3.6,0,6.3,0.9,8.2,2.7
		C281.6,6.4,282.6,9,282.6,12.5z M276.4,12.7c0-2-0.4-3.5-1.2-4.5c-0.8-1-2-1.5-3.7-1.5h-1.7v12.4h1.3c1.8,0,3.1-0.5,4-1.6
		S276.4,14.8,276.4,12.7z"/>
	<path class="st1" d="M299.7,24h-13.1V1.9h13.1v4.8h-7.2v3.5h6.6v4.8h-6.6v4.2h7.2V24z"/>
	<path class="st1" d="M311.2,15.2c0,2.9-0.4,5.5-1.1,7.8c-0.7,2.3-1.8,4.3-3.2,5.9H302c1.3-1.7,2.2-3.8,2.9-6.2c0.7-2.4,1-4.9,1-7.6
		c0-2.7-0.3-5.2-1-7.6c-0.7-2.4-1.7-4.5-3-6.3h4.9c1.4,1.7,2.5,3.7,3.2,6.1C310.8,9.7,311.2,12.3,311.2,15.2z"/>
</g>
</svg>
