<?xml version="1.0" encoding="utf-8"?>
<!-- Generator: Adobe Illustrator 20.1.0, SVG Export Plug-In . SVG Version: 6.00 Build 0)  -->
<svg version="1.1" id="Layer_1" xmlns="http://www.w3.org/2000/svg" xmlns:xlink="http://www.w3.org/1999/xlink" x="0px" y="0px"
	 viewBox="0 0 350 30" style="enable-background:new 0 0 350 30;" xml:space="preserve">
<style type="text/css">
	.st0{fill:#FFBB00;}
	.st1{fill:#FFFFFF;}
</style>
<g>
	<path class="st0" d="M43.9,11h9.6V23c-2.6,0.9-5.4,1.3-8.6,1.3c-3.4,0-6-1-7.9-3c-1.9-2-2.8-4.8-2.8-8.5c0-3.6,1-6.4,3.1-8.3
		c2-2,4.9-3,8.6-3c1.4,0,2.7,0.1,3.9,0.4c1.2,0.3,2.3,0.6,3.2,1l-1.9,4.7c-1.6-0.8-3.3-1.2-5.3-1.2c-1.7,0-3.1,0.6-4,1.7
		c-1,1.1-1.4,2.8-1.4,4.9c0,2.1,0.4,3.6,1.3,4.7c0.9,1.1,2.1,1.6,3.7,1.6c0.9,0,1.7-0.1,2.5-0.3v-3.5h-4V11z"/>
	<path class="st1" d="M63.5,24h-5.9V0.4h5.9V24z"/>
	<path class="st1" d="M84,15.4c0,2.8-0.8,5-2.3,6.6c-1.5,1.6-3.6,2.4-6.3,2.4c-2.6,0-4.7-0.8-6.2-2.4c-1.5-1.6-2.3-3.8-2.3-6.5
		c0-2.8,0.8-5,2.3-6.5c1.5-1.5,3.6-2.3,6.4-2.3c1.7,0,3.2,0.4,4.5,1.1c1.3,0.7,2.3,1.7,3,3.1C83.7,12,84,13.6,84,15.4z M72.9,15.4
		c0,1.5,0.2,2.6,0.6,3.4c0.4,0.8,1.1,1.2,2,1.2c0.9,0,1.6-0.4,1.9-1.2c0.4-0.8,0.6-1.9,0.6-3.4c0-1.5-0.2-2.6-0.6-3.3
		c-0.4-0.7-1-1.1-2-1.1c-0.9,0-1.6,0.4-2,1.1C73.1,12.8,72.9,13.9,72.9,15.4z"/>
	<path class="st1" d="M97.7,6.5c0.5,0,1,0,1.5,0.1l0.3,0.1L99,12.3c-0.5-0.1-1.2-0.2-2-0.2c-1.3,0-2.2,0.3-2.8,0.9
		c-0.6,0.6-0.9,1.4-0.9,2.6V24h-5.9V6.9h4.4l0.9,2.7H93c0.5-0.9,1.2-1.6,2.1-2.2C96,6.8,96.8,6.5,97.7,6.5z"/>
	<path class="st1" d="M101.8,2.6c0-0.9,0.2-1.5,0.7-2c0.5-0.4,1.3-0.7,2.4-0.7c1.1,0,1.9,0.2,2.4,0.7c0.5,0.4,0.8,1.1,0.8,2
		c0,1.7-1.1,2.6-3.2,2.6C102.9,5.2,101.8,4.3,101.8,2.6z M107.9,24H102V6.9h5.9V24z"/>
	<path class="st1" d="M123.2,24l-1.1-2.3h-0.1c-0.8,1-1.6,1.7-2.4,2c-0.8,0.4-1.9,0.5-3.2,0.5c-1.6,0-2.9-0.5-3.8-1.5
		c-0.9-1-1.4-2.3-1.4-4.1c0-1.8,0.6-3.2,1.9-4.1c1.3-0.9,3.1-1.4,5.5-1.5l2.9-0.1v-0.2c0-1.4-0.7-2.1-2.1-2.1
		c-1.3,0-2.8,0.4-4.8,1.3l-1.7-3.9c2-1,4.5-1.5,7.6-1.5c2.2,0,3.9,0.5,5.1,1.6c1.2,1.1,1.8,2.6,1.8,4.6V24H123.2z M118.8,20.1
		c0.7,0,1.3-0.2,1.8-0.7c0.5-0.5,0.8-1,0.8-1.8v-1.3l-1.4,0.1c-1.9,0.1-2.9,0.8-2.9,2.1C117.1,19.6,117.7,20.1,118.8,20.1z"/>
	<path class="st1" d="M138,30.9c-1.1,0-2.1-0.1-3.1-0.3V26c0.3,0.1,0.7,0.1,1,0.2c0.4,0.1,0.8,0.1,1.2,0.1c1,0,1.7-0.3,2.1-0.9
		c0.4-0.6,0.6-1.6,0.6-3.1V1.9h6v20c0,3-0.7,5.3-2,6.8C142.6,30.2,140.6,30.9,138,30.9z"/>
	<path class="st1" d="M158.6,24.3c-2.9,0-5.1-0.8-6.7-2.3c-1.6-1.5-2.4-3.7-2.4-6.5c0-2.9,0.7-5.1,2.2-6.7c1.5-1.5,3.6-2.3,6.3-2.3
		c2.6,0,4.6,0.7,6,2c1.4,1.3,2.1,3.3,2.1,5.8V17h-10.6c0,1,0.4,1.7,1.1,2.3c0.7,0.5,1.6,0.8,2.7,0.8c1,0,2-0.1,2.9-0.3
		c0.9-0.2,1.8-0.5,2.8-1V23c-0.9,0.5-1.9,0.8-2.9,1C161.1,24.2,159.9,24.3,158.6,24.3z M158.2,10.6c-0.7,0-1.3,0.2-1.7,0.7
		c-0.5,0.4-0.7,1.1-0.8,2.1h5.1c0-0.8-0.3-1.5-0.7-2C159.6,10.8,159,10.6,158.2,10.6z"/>
	<path class="st1" d="M180.6,24l-1.1-2.3h-0.1c-0.8,1-1.6,1.7-2.4,2c-0.8,0.4-1.9,0.5-3.2,0.5c-1.6,0-2.9-0.5-3.8-1.5
		c-0.9-1-1.4-2.3-1.4-4.1c0-1.8,0.6-3.2,1.9-4.1c1.3-0.9,3.1-1.4,5.5-1.5l2.9-0.1v-0.2c0-1.4-0.7-2.1-2.1-2.1
		c-1.3,0-2.8,0.4-4.8,1.3l-1.7-3.9c2-1,4.5-1.5,7.6-1.5c2.2,0,3.9,0.5,5.1,1.6c1.2,1.1,1.8,2.6,1.8,4.6V24H180.6z M176.3,20.1
		c0.7,0,1.3-0.2,1.8-0.7c0.5-0.5,0.8-1,0.8-1.8v-1.3l-1.4,0.1c-1.9,0.1-2.9,0.8-2.9,2.1C174.6,19.6,175.1,20.1,176.3,20.1z"/>
	<path class="st1" d="M199.6,24v-9.4c0-1.1-0.2-2-0.5-2.6c-0.3-0.6-0.9-0.9-1.6-0.9c-1,0-1.7,0.4-2.2,1.2c-0.4,0.8-0.7,2.2-0.7,4.1
		V24h-5.9V6.9h4.5L194,9h0.3c0.5-0.8,1.2-1.4,2.1-1.8c0.9-0.4,1.9-0.6,3.1-0.6c1.9,0,3.4,0.6,4.4,1.6c1.1,1.1,1.6,2.6,1.6,4.6V24
		H199.6z"/>
	<path class="st1" d="M222.8,18.7c0,1.8-0.6,3.2-1.9,4.2c-1.3,0.9-3,1.4-5.4,1.4c-1.3,0-2.4-0.1-3.3-0.2c-0.9-0.1-1.9-0.4-2.9-0.7
		v-4.7c0.9,0.4,1.9,0.7,3,1c1.1,0.3,2.1,0.4,2.9,0.4c1.3,0,1.9-0.3,1.9-0.9c0-0.3-0.2-0.6-0.5-0.8c-0.4-0.2-1.4-0.7-3.1-1.4
		c-1.6-0.6-2.7-1.4-3.3-2.2c-0.6-0.8-0.9-1.9-0.9-3.1c0-1.6,0.6-2.8,1.8-3.7c1.2-0.9,3-1.3,5.2-1.3c1.1,0,2.2,0.1,3.2,0.4
		c1,0.2,2,0.6,3.1,1.1l-1.6,3.8c-0.8-0.4-1.6-0.7-2.5-0.9c-0.9-0.2-1.6-0.4-2.1-0.4c-1,0-1.5,0.2-1.5,0.7c0,0.3,0.2,0.5,0.5,0.7
		c0.3,0.2,1.3,0.6,2.9,1.3c1.2,0.5,2.1,1,2.7,1.5c0.6,0.5,1,1,1.3,1.7C222.6,17,222.8,17.8,222.8,18.7z"/>
	<path class="st1" d="M233.2,15.2c0-2.9,0.4-5.6,1.1-7.9c0.7-2.4,1.8-4.4,3.2-6h4.9c-1.3,1.8-2.3,3.8-2.9,6.2c-0.7,2.4-1,4.9-1,7.7
		c0,2.6,0.3,5.1,1,7.5c0.7,2.4,1.6,4.4,2.9,6.2h-4.9c-1.4-1.6-2.4-3.6-3.2-5.9C233.6,20.7,233.2,18.1,233.2,15.2z"/>
	<path class="st1" d="M251.6,15.9V24h-6V1.9h7.3c6,0,9,2.2,9,6.5c0,2.6-1.3,4.5-3.8,5.9l6.4,9.6h-6.8l-4.7-8.1H251.6z M251.6,11.5
		h1.1c2.1,0,3.1-0.9,3.1-2.8c0-1.5-1-2.3-3.1-2.3h-1.2V11.5z"/>
	<path class="st1" d="M285.4,1.9v13.3c0,2.9-0.8,5.1-2.5,6.7c-1.6,1.6-4,2.4-7.1,2.4c-3,0-5.3-0.8-7-2.3c-1.6-1.5-2.4-3.8-2.4-6.7
		V1.9h6v13c0,1.6,0.3,2.7,0.9,3.4c0.6,0.7,1.4,1.1,2.6,1.1c1.2,0,2.1-0.3,2.7-1.1c0.5-0.7,0.8-1.8,0.8-3.4v-13H285.4z"/>
	<path class="st1" d="M297.7,15.2c0,2.9-0.4,5.5-1.1,7.8s-1.8,4.3-3.2,5.9h-4.9c1.3-1.7,2.2-3.8,2.9-6.2c0.7-2.4,1-4.9,1-7.6
		c0-2.7-0.3-5.2-1-7.6c-0.7-2.4-1.7-4.5-3-6.3h4.9c1.4,1.7,2.5,3.7,3.2,6.1C297.3,9.7,297.7,12.3,297.7,15.2z"/>
</g>
</svg>
