<?xml version="1.0" encoding="utf-8"?>
<!-- Generator: Adobe Illustrator 20.1.0, SVG Export Plug-In . SVG Version: 6.00 Build 0)  -->
<svg version="1.1" id="Layer_1" xmlns="http://www.w3.org/2000/svg" xmlns:xlink="http://www.w3.org/1999/xlink" x="0px" y="0px"
	 viewBox="0 0 350 30" style="enable-background:new 0 0 350 30;" xml:space="preserve">
<style type="text/css">
	.st0{fill:#FFBB00;}
	.st1{fill:#FFFFFF;}
</style>
<g>
	<path class="st0" d="M138.9,13h9.6V25c-2.6,0.9-5.4,1.3-8.6,1.3c-3.4,0-6-1-7.9-3c-1.9-2-2.8-4.8-2.8-8.5c0-3.6,1-6.4,3.1-8.3
		c2-2,4.9-3,8.6-3c1.4,0,2.7,0.1,3.9,0.4c1.2,0.3,2.3,0.6,3.2,1l-1.9,4.7c-1.6-0.8-3.3-1.2-5.3-1.2c-1.7,0-3.1,0.6-4,1.7
		c-1,1.1-1.4,2.8-1.4,4.9c0,2.1,0.4,3.6,1.3,4.7c0.9,1.1,2.1,1.6,3.7,1.6c0.9,0,1.7-0.1,2.5-0.3v-3.5h-4V13z"/>
	<path class="st1" d="M163,8.5c0.5,0,1,0,1.5,0.1l0.3,0.1l-0.5,5.6c-0.5-0.1-1.2-0.2-2-0.2c-1.3,0-2.2,0.3-2.8,0.9
		c-0.6,0.6-0.9,1.4-0.9,2.6V26h-5.9V8.9h4.4l0.9,2.7h0.3c0.5-0.9,1.2-1.6,2.1-2.2C161.2,8.8,162.1,8.5,163,8.5z"/>
	<path class="st1" d="M183.5,17.4c0,2.8-0.8,5-2.3,6.6c-1.5,1.6-3.6,2.4-6.3,2.4c-2.6,0-4.7-0.8-6.2-2.4c-1.5-1.6-2.3-3.8-2.3-6.5
		c0-2.8,0.8-5,2.3-6.5c1.5-1.5,3.6-2.3,6.4-2.3c1.7,0,3.2,0.4,4.5,1.1c1.3,0.7,2.3,1.7,3,3.1C183.2,14,183.5,15.6,183.5,17.4z
		 M172.4,17.4c0,1.5,0.2,2.6,0.6,3.4c0.4,0.8,1.1,1.2,2,1.2c0.9,0,1.6-0.4,1.9-1.2c0.4-0.8,0.6-1.9,0.6-3.4c0-1.5-0.2-2.6-0.6-3.3
		c-0.4-0.7-1-1.1-2-1.1c-0.9,0-1.6,0.4-2,1.1C172.6,14.8,172.4,15.9,172.4,17.4z"/>
	<path class="st1" d="M197.4,8.5c1.9,0,3.3,0.8,4.4,2.3c1.1,1.6,1.6,3.7,1.6,6.5c0,2.8-0.6,5-1.7,6.5c-1.1,1.6-2.6,2.4-4.6,2.4
		c-0.6,0-1.2-0.1-1.7-0.2c-0.5-0.1-0.9-0.3-1.3-0.6c-0.4-0.2-0.8-0.6-1.4-1.2h-0.4l-0.9,1.7h-4.6V2.4h5.9v5.3c0,0.6-0.1,1.7-0.2,3.3
		h0.2c0.6-0.9,1.2-1.5,2-1.9S196.4,8.5,197.4,8.5z M195.2,13.2c-0.8,0-1.4,0.3-1.8,0.9s-0.6,1.5-0.6,2.7v0.8c0,1.4,0.2,2.4,0.6,3
		c0.4,0.6,1,0.9,1.9,0.9c0.7,0,1.2-0.4,1.6-1.1c0.4-0.7,0.6-1.8,0.6-3.1C197.5,14.6,196.7,13.2,195.2,13.2z"/>
</g>
</svg>
