<?xml version="1.0" encoding="utf-8"?>
<!-- Generator: Adobe Illustrator 20.1.0, SVG Export Plug-In . SVG Version: 6.00 Build 0)  -->
<svg version="1.1" id="Layer_1" xmlns="http://www.w3.org/2000/svg" xmlns:xlink="http://www.w3.org/1999/xlink" x="0px" y="0px"
	 viewBox="0 0 350 30" style="enable-background:new 0 0 350 30;" xml:space="preserve">
<style type="text/css">
	.st0{fill:#FFBB00;}
	.st1{fill:#FFFFFF;}
</style>
<g>
	<path class="st0" d="M152.9,24h-6.8l-4.4-8.5l-1.8,1.1V24h-6V1.9h6v9.6c0.3-0.6,0.9-1.5,1.8-2.8l4.6-6.8h6.5l-7,9.9L152.9,24z"/>
	<path class="st1" d="M176.4,24h-7.8l-8.1-15.6h-0.1c0.2,2.5,0.3,4.3,0.3,5.6v10h-5.3V1.9h7.8l8.1,15.4h0.1c-0.1-2.2-0.2-4-0.2-5.4
		v-10h5.3V24z"/>
	<path class="st1" d="M193.6,1.9h6.7L193,24h-7l-7.2-22.1h6.7l3,11.2c0.6,2.5,1,4.2,1,5.2c0.1-0.7,0.2-1.6,0.4-2.6s0.4-1.9,0.6-2.5
		L193.6,1.9z"/>
</g>
</svg>
