<?xml version="1.0" encoding="utf-8"?>
<!-- Generator: Adobe Illustrator 20.1.0, SVG Export Plug-In . SVG Version: 6.00 Build 0)  -->
<svg version="1.1" id="Layer_1" xmlns="http://www.w3.org/2000/svg" xmlns:xlink="http://www.w3.org/1999/xlink" x="0px" y="0px"
	 viewBox="0 0 350 30" style="enable-background:new 0 0 350 30;" xml:space="preserve">
<style type="text/css">
	.st0{fill:#FFBB00;}
	.st1{fill:#FFFFFF;}
</style>
<g>
	<path class="st0" d="M101,26V3.9h6v17.3h8.5V26H101z"/>
	<path class="st1" d="M118.6,4.6c0-0.9,0.2-1.5,0.7-2c0.5-0.4,1.3-0.7,2.4-0.7c1.1,0,1.9,0.2,2.4,0.7c0.5,0.4,0.8,1.1,0.8,2
		c0,1.7-1.1,2.6-3.2,2.6C119.6,7.2,118.6,6.3,118.6,4.6z M124.7,26h-5.9V8.9h5.9V26z"/>
	<path class="st1" d="M137.1,26.3c-2.9,0-5.1-0.8-6.7-2.3c-1.6-1.5-2.4-3.7-2.4-6.5c0-2.9,0.7-5.1,2.2-6.7c1.5-1.5,3.6-2.3,6.3-2.3
		c2.6,0,4.6,0.7,6,2c1.4,1.3,2.1,3.3,2.1,5.8V19H134c0,1,0.4,1.7,1.1,2.3c0.7,0.5,1.6,0.8,2.7,0.8c1,0,2-0.1,2.9-0.3
		c0.9-0.2,1.8-0.5,2.8-1V25c-0.9,0.5-1.9,0.8-2.9,1C139.6,26.2,138.4,26.3,137.1,26.3z M136.7,12.6c-0.7,0-1.3,0.2-1.7,0.7
		c-0.5,0.4-0.7,1.1-0.8,2.1h5.1c0-0.8-0.3-1.5-0.7-2C138.1,12.8,137.5,12.6,136.7,12.6z"/>
	<path class="st1" d="M158.4,8.5c1.9,0,3.3,0.8,4.4,2.3c1.1,1.6,1.6,3.7,1.6,6.5c0,2.8-0.6,5-1.7,6.5c-1.1,1.6-2.6,2.4-4.6,2.4
		c-0.6,0-1.2-0.1-1.7-0.2c-0.5-0.1-0.9-0.3-1.3-0.6c-0.4-0.2-0.8-0.6-1.4-1.2h-0.4l-0.9,1.7H148V2.4h5.9v5.3c0,0.6-0.1,1.7-0.2,3.3
		h0.2c0.6-0.9,1.2-1.5,2-1.9C156.6,8.7,157.5,8.5,158.4,8.5z M156.3,13.2c-0.8,0-1.4,0.3-1.8,0.9c-0.4,0.6-0.6,1.5-0.6,2.7v0.8
		c0,1.4,0.2,2.4,0.6,3c0.4,0.6,1,0.9,1.9,0.9c0.7,0,1.2-0.4,1.6-1.1c0.4-0.7,0.6-1.8,0.6-3.1C158.5,14.6,157.7,13.2,156.3,13.2z"/>
	<path class="st1" d="M178.7,26v-9.4c0-2.3-0.7-3.5-2-3.5c-1,0-1.7,0.4-2.1,1.2c-0.5,0.8-0.7,2.2-0.7,4V26h-5.9V2.4h5.9v3.3
		c0,1.5-0.1,3.2-0.2,5.2h0.3c0.6-0.9,1.2-1.5,2-1.9c0.8-0.4,1.7-0.5,2.7-0.5c1.9,0,3.4,0.6,4.5,1.7c1.1,1.1,1.6,2.7,1.6,4.6V26
		H178.7z"/>
	<path class="st1" d="M196.9,26.3c-2.9,0-5.1-0.8-6.7-2.3c-1.6-1.5-2.4-3.7-2.4-6.5c0-2.9,0.7-5.1,2.2-6.7c1.5-1.5,3.6-2.3,6.3-2.3
		c2.6,0,4.6,0.7,6,2c1.4,1.3,2.1,3.3,2.1,5.8V19h-10.6c0,1,0.4,1.7,1.1,2.3c0.7,0.5,1.6,0.8,2.7,0.8c1,0,2-0.1,2.9-0.3
		c0.9-0.2,1.8-0.5,2.8-1V25c-0.9,0.5-1.9,0.8-2.9,1C199.5,26.2,198.3,26.3,196.9,26.3z M196.6,12.6c-0.7,0-1.3,0.2-1.7,0.7
		c-0.5,0.4-0.7,1.1-0.8,2.1h5.1c0-0.8-0.3-1.5-0.7-2C197.9,12.8,197.3,12.6,196.6,12.6z"/>
	<path class="st1" d="M218.2,8.5c0.5,0,1,0,1.5,0.1l0.3,0.1l-0.5,5.6c-0.5-0.1-1.2-0.2-2-0.2c-1.3,0-2.2,0.3-2.8,0.9
		c-0.6,0.6-0.9,1.4-0.9,2.6V26h-5.9V8.9h4.4l0.9,2.7h0.3c0.5-0.9,1.2-1.6,2.1-2.2C216.4,8.8,217.3,8.5,218.2,8.5z"/>
	<path class="st1" d="M232.7,8.5c0.5,0,1,0,1.5,0.1l0.3,0.1l-0.5,5.6c-0.5-0.1-1.2-0.2-2-0.2c-1.3,0-2.2,0.3-2.8,0.9
		c-0.6,0.6-0.9,1.4-0.9,2.6V26h-5.9V8.9h4.4l0.9,2.7h0.3c0.5-0.9,1.2-1.6,2.1-2.2C230.9,8.8,231.8,8.5,232.7,8.5z"/>
</g>
</svg>
