<?xml version="1.0" encoding="utf-8"?>
<!-- Generator: Adobe Illustrator 20.1.0, SVG Export Plug-In . SVG Version: 6.00 Build 0)  -->
<svg version="1.1" id="Layer_1" xmlns="http://www.w3.org/2000/svg" xmlns:xlink="http://www.w3.org/1999/xlink" x="0px" y="0px"
	 viewBox="0 0 350 30" style="enable-background:new 0 0 350 30;" xml:space="preserve">
<style type="text/css">
	.st0{fill:#FFBB00;}
	.st1{fill:#FFFFFF;}
</style>
<g>
	<path class="st0" d="M120.1,11.9c0,2.5-0.7,4.4-2.2,5.7c-1.5,1.3-3.5,2-6.2,2H110V27h-6V4.9h7.7c2.8,0,4.9,0.6,6.3,1.8
		C119.4,7.9,120.1,9.7,120.1,11.9z M110,14.8h1.1c0.9,0,1.6-0.3,2.1-0.8c0.5-0.5,0.8-1.2,0.8-2.1c0-1.5-0.8-2.2-2.5-2.2H110V14.8z"
		/>
	<path class="st1" d="M134,27v-9.4c0-2.3-0.7-3.5-2-3.5c-1,0-1.7,0.4-2.1,1.2c-0.5,0.8-0.7,2.2-0.7,4V27h-5.9V3.4h5.9v3.3
		c0,1.5-0.1,3.2-0.2,5.2h0.3c0.6-0.9,1.2-1.5,2-1.9c0.8-0.4,1.7-0.5,2.7-0.5c1.9,0,3.4,0.6,4.5,1.7c1.1,1.1,1.6,2.7,1.6,4.6V27H134z
		"/>
	<path class="st1" d="M160.4,18.4c0,2.8-0.8,5-2.3,6.6c-1.5,1.6-3.6,2.4-6.3,2.4c-2.6,0-4.7-0.8-6.2-2.4c-1.5-1.6-2.3-3.8-2.3-6.5
		c0-2.8,0.8-5,2.3-6.5c1.5-1.5,3.6-2.3,6.4-2.3c1.7,0,3.2,0.4,4.5,1.1c1.3,0.7,2.3,1.7,3,3.1C160.1,15,160.4,16.6,160.4,18.4z
		 M149.3,18.4c0,1.5,0.2,2.6,0.6,3.4c0.4,0.8,1.1,1.2,2,1.2c0.9,0,1.6-0.4,1.9-1.2c0.4-0.8,0.6-1.9,0.6-3.4c0-1.5-0.2-2.6-0.6-3.3
		c-0.4-0.7-1-1.1-2-1.1c-0.9,0-1.6,0.4-2,1.1C149.5,15.8,149.3,16.9,149.3,18.4z"/>
	<path class="st1" d="M172.1,27.3c-2.9,0-5.1-0.8-6.7-2.3c-1.6-1.5-2.4-3.7-2.4-6.5c0-2.9,0.7-5.1,2.2-6.7c1.5-1.5,3.6-2.3,6.3-2.3
		c2.6,0,4.6,0.7,6,2c1.4,1.3,2.1,3.3,2.1,5.8V20H169c0,1,0.4,1.7,1.1,2.3c0.7,0.5,1.6,0.8,2.7,0.8c1,0,2-0.1,2.9-0.3
		c0.9-0.2,1.8-0.5,2.8-1V26c-0.9,0.5-1.9,0.8-2.9,1C174.6,27.2,173.4,27.3,172.1,27.3z M171.7,13.6c-0.7,0-1.3,0.2-1.7,0.7
		c-0.5,0.4-0.7,1.1-0.8,2.1h5.1c0-0.8-0.3-1.5-0.7-2C173.1,13.8,172.5,13.6,171.7,13.6z"/>
	<path class="st1" d="M193.8,27v-9.4c0-1.1-0.2-2-0.5-2.6c-0.3-0.6-0.9-0.9-1.6-0.9c-1,0-1.7,0.4-2.2,1.2c-0.4,0.8-0.7,2.2-0.7,4.1
		V27h-5.9V9.9h4.5l0.7,2.1h0.3c0.5-0.8,1.2-1.4,2.1-1.8c0.9-0.4,1.9-0.6,3.1-0.6c1.9,0,3.4,0.6,4.4,1.6c1.1,1.1,1.6,2.6,1.6,4.6V27
		H193.8z"/>
	<path class="st1" d="M203.6,5.6c0-0.9,0.2-1.5,0.7-2c0.5-0.4,1.3-0.7,2.4-0.7s1.9,0.2,2.4,0.7c0.5,0.4,0.8,1.1,0.8,2
		c0,1.7-1.1,2.6-3.2,2.6C204.6,8.2,203.6,7.3,203.6,5.6z M209.7,27h-5.9V9.9h5.9V27z"/>
	<path class="st1" d="M217.4,18.3l-5.2-8.4h6.7l2.6,4.8l2.7-4.8h6.7l-5.4,8.4l5.6,8.7h-6.7l-2.9-5.2l-2.9,5.2h-6.7L217.4,18.3z"/>
</g>
</svg>
