<?xml version="1.0" encoding="utf-8"?>
<!-- Generator: Adobe Illustrator 20.1.0, SVG Export Plug-In . SVG Version: 6.00 Build 0)  -->
<svg version="1.1" id="Layer_1" xmlns="http://www.w3.org/2000/svg" xmlns:xlink="http://www.w3.org/1999/xlink" x="0px" y="0px"
	 viewBox="0 0 350 30" style="enable-background:new 0 0 350 30;" xml:space="preserve">
<style type="text/css">
	.st0{fill:#FFBB00;}
	.st1{fill:#FFFFFF;}
</style>
<g>
	<path class="st0" d="M107.1,17v8.1h-6V3h7.3c6,0,9,2.2,9,6.5c0,2.6-1.3,4.5-3.8,5.9l6.4,9.6h-6.8l-4.7-8.1H107.1z M107.1,12.6h1.1
		c2.1,0,3.1-0.9,3.1-2.8c0-1.5-1-2.3-3.1-2.3h-1.2V12.6z"/>
	<path class="st1" d="M138.1,16.5c0,2.8-0.8,5-2.3,6.6c-1.5,1.6-3.6,2.4-6.3,2.4c-2.6,0-4.7-0.8-6.2-2.4c-1.5-1.6-2.3-3.8-2.3-6.5
		c0-2.8,0.8-5,2.3-6.5c1.5-1.5,3.6-2.3,6.4-2.3c1.7,0,3.2,0.4,4.5,1.1c1.3,0.7,2.3,1.7,3,3.1C137.8,13.1,138.1,14.7,138.1,16.5z
		 M127,16.5c0,1.5,0.2,2.6,0.6,3.4c0.4,0.8,1.1,1.2,2,1.2c0.9,0,1.6-0.4,1.9-1.2c0.4-0.8,0.6-1.9,0.6-3.4c0-1.5-0.2-2.6-0.6-3.3
		c-0.4-0.7-1-1.1-2-1.1c-0.9,0-1.6,0.4-2,1.1C127.2,13.9,127,15,127,16.5z"/>
	<path class="st1" d="M149.9,20.7c0.8,0,1.8-0.2,2.9-0.6v4.3c-0.8,0.3-1.6,0.6-2.3,0.7c-0.7,0.1-1.6,0.2-2.5,0.2
		c-2,0-3.4-0.5-4.3-1.5c-0.9-1-1.3-2.5-1.3-4.5v-7.1h-2.1V10l2.6-1.9l1.5-3.6h3.9v3.4h4.2v4.4h-4.2v6.7
		C148.3,20.2,148.8,20.7,149.9,20.7z"/>
	<path class="st1" d="M164.2,20.7c0.8,0,1.8-0.2,2.9-0.6v4.3c-0.8,0.3-1.6,0.6-2.3,0.7c-0.7,0.1-1.6,0.2-2.5,0.2
		c-2,0-3.4-0.5-4.3-1.5c-0.9-1-1.3-2.5-1.3-4.5v-7.1h-2.1V10l2.6-1.9l1.5-3.6h3.9v3.4h4.2v4.4h-4.2v6.7
		C162.6,20.2,163.1,20.7,164.2,20.7z"/>
	<path class="st1" d="M184.8,25.1l-1.9-8.2l-0.5-2.5l-0.3-2H182c-0.5,2.8-0.8,4.6-1,5.3l-1.7,7.3H173l-4.7-17.1h5.8l1.4,6.6
		c0.4,2.3,0.7,4.1,0.8,5.6h0.1c0-0.9,0.3-2.7,0.8-5.3l1.6-6.9h6.5l1.5,7c0.5,2.2,0.8,4,0.9,5.2h0.1c0.1-0.8,0.2-1.7,0.3-2.9
		c0.1-1.1,0.3-2.1,0.5-2.8l1.5-6.6h5.7l-4.7,17.1H184.8z"/>
	<path class="st1" d="M206.5,25.4c-2.9,0-5.1-0.8-6.7-2.3c-1.6-1.5-2.4-3.7-2.4-6.5c0-2.9,0.7-5.1,2.2-6.7c1.5-1.5,3.6-2.3,6.3-2.3
		c2.6,0,4.6,0.7,6,2c1.4,1.3,2.1,3.3,2.1,5.8v2.6h-10.6c0,1,0.4,1.7,1.1,2.3c0.7,0.5,1.6,0.8,2.7,0.8c1,0,2-0.1,2.9-0.3
		c0.9-0.2,1.8-0.5,2.8-1v4.3c-0.9,0.5-1.9,0.8-2.9,1C209.1,25.3,207.9,25.4,206.5,25.4z M206.2,11.7c-0.7,0-1.3,0.2-1.7,0.7
		c-0.5,0.4-0.7,1.1-0.8,2.1h5.1c0-0.8-0.3-1.5-0.7-2C207.5,11.9,206.9,11.7,206.2,11.7z"/>
	<path class="st1" d="M217.3,3.7c0-0.9,0.2-1.5,0.7-2c0.5-0.4,1.3-0.7,2.4-0.7s1.9,0.2,2.4,0.7c0.5,0.4,0.8,1.1,0.8,2
		c0,1.7-1.1,2.6-3.2,2.6C218.3,6.3,217.3,5.4,217.3,3.7z M223.3,25.1h-5.9V7.9h5.9V25.1z"/>
	<path class="st1" d="M233.4,25.1h-5.9V1.5h5.9V25.1z"/>
</g>
</svg>
