<?xml version="1.0" encoding="utf-8"?>
<!-- Generator: Adobe Illustrator 20.1.0, SVG Export Plug-In . SVG Version: 6.00 Build 0)  -->
<svg version="1.1" id="Layer_1" xmlns="http://www.w3.org/2000/svg" xmlns:xlink="http://www.w3.org/1999/xlink" x="0px" y="0px"
	 viewBox="0 0 350 30" style="enable-background:new 0 0 350 30;" xml:space="preserve">
<style type="text/css">
	.st0{fill:#FFBB00;}
	.st1{fill:#FFFFFF;}
</style>
<g>
	<path class="st0" d="M131.5,17.3c0,1.4-0.3,2.6-1,3.7c-0.7,1.1-1.7,1.9-3,2.5c-1.3,0.6-2.9,0.9-4.6,0.9c-1.5,0-2.7-0.1-3.7-0.3
		s-2-0.6-3.1-1.1v-5.3c1.1,0.6,2.3,1,3.6,1.4c1.2,0.3,2.4,0.5,3.4,0.5c0.9,0,1.5-0.2,2-0.5c0.4-0.3,0.6-0.7,0.6-1.2
		c0-0.3-0.1-0.6-0.2-0.8c-0.2-0.2-0.4-0.5-0.8-0.7c-0.4-0.2-1.3-0.7-2.9-1.4c-1.4-0.7-2.5-1.3-3.2-1.9c-0.7-0.6-1.3-1.3-1.6-2.1
		c-0.3-0.8-0.5-1.7-0.5-2.8c0-2,0.7-3.6,2.2-4.8c1.5-1.1,3.5-1.7,6.1-1.7c2.3,0,4.6,0.5,7,1.6l-1.8,4.6c-2.1-0.9-3.9-1.4-5.4-1.4
		c-0.8,0-1.3,0.1-1.7,0.4c-0.4,0.3-0.5,0.6-0.5,1c0,0.4,0.2,0.8,0.7,1.2c0.4,0.3,1.7,1,3.7,1.9c1.9,0.9,3.2,1.8,4,2.8
		C131.1,14.5,131.5,15.8,131.5,17.3z"/>
	<path class="st1" d="M145.7,24l-1.1-2.3h-0.1c-0.8,1-1.6,1.7-2.4,2c-0.8,0.4-1.9,0.5-3.2,0.5c-1.6,0-2.9-0.5-3.8-1.5
		c-0.9-1-1.4-2.3-1.4-4.1c0-1.8,0.6-3.2,1.9-4.1c1.3-0.9,3.1-1.4,5.5-1.5l2.9-0.1v-0.2c0-1.4-0.7-2.1-2.1-2.1
		c-1.3,0-2.8,0.4-4.8,1.3l-1.7-3.9c2-1,4.5-1.5,7.6-1.5c2.2,0,3.9,0.5,5.1,1.6c1.2,1.1,1.8,2.6,1.8,4.6V24H145.7z M141.4,20.1
		c0.7,0,1.3-0.2,1.8-0.7c0.5-0.5,0.8-1,0.8-1.8v-1.3l-1.4,0.1c-1.9,0.1-2.9,0.8-2.9,2.1C139.7,19.6,140.2,20.1,141.4,20.1z"/>
	<path class="st1" d="M164.2,24.3c-0.9,0-1.6-0.1-2.3-0.4c-0.7-0.3-1.4-0.8-2-1.6h-0.3c0.2,1.2,0.3,1.9,0.3,2.2v6.9h-5.9V6.9h4.8
		l0.8,2.2h0.3c1.1-1.7,2.6-2.5,4.6-2.5c1.9,0,3.4,0.8,4.5,2.4c1.1,1.6,1.6,3.7,1.6,6.5c0,2.8-0.6,4.9-1.7,6.5
		C167.6,23.5,166.1,24.3,164.2,24.3z M162.2,11.2c-0.9,0-1.5,0.3-1.8,0.9c-0.3,0.6-0.5,1.5-0.6,2.8v0.5c0,1.5,0.2,2.5,0.6,3.2
		s1,1,1.9,1c0.8,0,1.3-0.3,1.6-1c0.3-0.7,0.5-1.7,0.5-3.2c0-1.5-0.2-2.5-0.5-3.2C163.6,11.5,163,11.2,162.2,11.2z"/>
	<path class="st1" d="M184.6,24v-9.4c0-2.3-0.7-3.5-2-3.5c-1,0-1.7,0.4-2.1,1.2c-0.5,0.8-0.7,2.2-0.7,4V24h-5.9V0.4h5.9v3.3
		c0,1.5-0.1,3.2-0.2,5.2h0.3c0.6-0.9,1.2-1.5,2-1.9s1.7-0.5,2.7-0.5c1.9,0,3.4,0.6,4.5,1.7c1.1,1.1,1.6,2.7,1.6,4.6V24H184.6z"/>
	<path class="st1" d="M194.5,2.6c0-0.9,0.2-1.5,0.7-2c0.5-0.4,1.3-0.7,2.4-0.7c1.1,0,1.9,0.2,2.4,0.7c0.5,0.4,0.8,1.1,0.8,2
		c0,1.7-1.1,2.6-3.2,2.6C195.5,5.2,194.5,4.3,194.5,2.6z M200.5,24h-5.9V6.9h5.9V24z"/>
	<path class="st1" d="M215,6.5c0.5,0,1,0,1.5,0.1l0.3,0.1l-0.5,5.6c-0.5-0.1-1.2-0.2-2-0.2c-1.3,0-2.2,0.3-2.8,0.9
		c-0.6,0.6-0.9,1.4-0.9,2.6V24h-5.9V6.9h4.4l0.9,2.7h0.3c0.5-0.9,1.2-1.6,2.1-2.2C213.2,6.8,214.1,6.5,215,6.5z"/>
</g>
</svg>
