<?xml version="1.0" encoding="utf-8"?>
<!-- Generator: Adobe Illustrator 20.1.0, SVG Export Plug-In . SVG Version: 6.00 Build 0)  -->
<svg version="1.1" id="Layer_1" xmlns="http://www.w3.org/2000/svg" xmlns:xlink="http://www.w3.org/1999/xlink" x="0px" y="0px"
	 viewBox="0 0 385 415" style="enable-background:new 0 0 385 415;" xml:space="preserve">
<style type="text/css">
	.st0{fill:#5B5B5B;}
</style>
<path class="st0" d="M54.5,214.1c-1.3,0-2.7-0.5-3.7-1.5l-40.7-40.7c-2-2-2-5.3,0-7.4c2-2,5.3-2,7.4,0l40.7,40.7c2,2,2,5.3,0,7.4
	C57.1,213.6,55.8,214.1,54.5,214.1z"/>
<path class="st0" d="M95.2,132.6c-1.3,0-2.7-0.5-3.7-1.5c-2-2-2-5.3,0-7.4L132.3,83c2-2,5.3-2,7.4,0c2,2,2,5.3,0,7.4l-40.7,40.7
	C97.9,132.1,96.6,132.6,95.2,132.6z"/>
<path class="st0" d="M217.5,51.1c-1.3,0-2.7-0.5-3.7-1.5L173,8.9c-2-2-2-5.3,0-7.4c2-2,5.3-2,7.4,0l40.7,40.7c2,2,2,5.3,0,7.4
	C220.1,50.6,218.8,51.1,217.5,51.1z"/>
<path class="st0" d="M54.5,377.1c-1.3,0-2.7-0.5-3.7-1.5l-40.7-40.7c-2-2-2-5.3,0-7.4c2-2,5.3-2,7.4,0l40.7,40.7c2,2,2,5.3,0,7.4
	C57.1,376.6,55.8,377.1,54.5,377.1z"/>
<path class="st0" d="M95.2,295.6c-1.3,0-2.7-0.5-3.7-1.5c-2-2-2-5.3,0-7.4l40.7-40.7c2-2,5.3-2,7.4,0c2,2,2,5.3,0,7.4l-40.7,40.7
	C97.9,295.1,96.6,295.6,95.2,295.6z"/>
<path class="st0" d="M217.5,214.1c-1.3,0-2.7-0.5-3.7-1.5L173,171.8c-2-2-2-5.3,0-7.4c2-2,5.3-2,7.4,0l40.7,40.7c2,2,2,5.3,0,7.4
	C220.1,213.6,218.8,214.1,217.5,214.1z"/>
<path class="st0" d="M258.2,132.6c-1.3,0-2.7-0.5-3.7-1.5c-2-2-2-5.3,0-7.4L295.3,83c2-2,5.3-2,7.4,0c2,2,2,5.3,0,7.4l-40.7,40.7
	C260.9,132.1,259.5,132.6,258.2,132.6z"/>
<path class="st0" d="M54.5,51.1c-1.3,0-2.7-0.5-3.7-1.5L10.1,8.9c-2-2-2-5.3,0-7.4c2-2,5.3-2,7.4,0l40.7,40.7c2,2,2,5.3,0,7.4
	C57.1,50.6,55.8,51.1,54.5,51.1z"/>
<path class="st0" d="M217.5,377.1c-1.3,0-2.7-0.5-3.7-1.5L173,334.8c-2-2-2-5.3,0-7.4c2-2,5.3-2,7.4,0l40.7,40.7c2,2,2,5.3,0,7.4
	C220.1,376.6,218.8,377.1,217.5,377.1z"/>
<path class="st0" d="M258.2,295.6c-1.3,0-2.7-0.5-3.7-1.5c-2-2-2-5.3,0-7.4l40.7-40.7c2-2,5.3-2,7.4,0c2,2,2,5.3,0,7.4l-40.7,40.7
	C260.9,295.1,259.5,295.6,258.2,295.6z"/>
<path class="st0" d="M380.4,51.1c-1.3,0-2.7-0.5-3.7-1.5L336,8.9c-2-2-2-5.3,0-7.4c2-2,5.3-2,7.4,0l40.7,40.7c2,2,2,5.3,0,7.4
	C383.1,50.6,381.8,51.1,380.4,51.1z"/>
<path class="st0" d="M380.4,214.1c-1.3,0-2.7-0.5-3.7-1.5L336,171.8c-2-2-2-5.3,0-7.4c2-2,5.3-2,7.4,0l40.7,40.7c2,2,2,5.3,0,7.4
	C383.1,213.6,381.8,214.1,380.4,214.1z"/>
<path class="st0" d="M380.4,377.1c-1.3,0-2.7-0.5-3.7-1.5L336,334.8c-2-2-2-5.3,0-7.4c2-2,5.3-2,7.4,0l40.7,40.7c2,2,2,5.3,0,7.4
	C383.1,376.6,381.8,377.1,380.4,377.1z"/>
</svg>
