<?xml version="1.0" encoding="utf-8"?>
<!-- Generator: Adobe Illustrator 20.1.0, SVG Export Plug-In . SVG Version: 6.00 Build 0)  -->
<svg version="1.1" id="Layer_1" xmlns="http://www.w3.org/2000/svg" xmlns:xlink="http://www.w3.org/1999/xlink" x="0px" y="0px"
	 viewBox="0 0 350 30" style="enable-background:new 0 0 350 30;" xml:space="preserve">
<style type="text/css">
	.st0{fill:#FFBB00;}
	.st1{fill:#FFFFFF;}
</style>
<g>
	<path class="st0" d="M136.5,20.3c0,1.4-0.3,2.6-1,3.7c-0.7,1.1-1.7,1.9-3,2.5c-1.3,0.6-2.9,0.9-4.6,0.9c-1.5,0-2.7-0.1-3.7-0.3
		s-2-0.6-3.1-1.1v-5.3c1.1,0.6,2.3,1,3.6,1.4c1.2,0.3,2.4,0.5,3.4,0.5c0.9,0,1.5-0.2,2-0.5c0.4-0.3,0.6-0.7,0.6-1.2
		c0-0.3-0.1-0.6-0.2-0.8c-0.2-0.2-0.4-0.5-0.8-0.7c-0.4-0.2-1.3-0.7-2.9-1.4c-1.4-0.7-2.5-1.3-3.2-1.9c-0.7-0.6-1.3-1.3-1.6-2.1
		c-0.3-0.8-0.5-1.7-0.5-2.8c0-2,0.7-3.6,2.2-4.8c1.5-1.1,3.5-1.7,6.1-1.7c2.3,0,4.6,0.5,7,1.6l-1.8,4.6c-2.1-0.9-3.9-1.4-5.4-1.4
		c-0.8,0-1.3,0.1-1.7,0.4c-0.4,0.3-0.5,0.6-0.5,1c0,0.4,0.2,0.8,0.7,1.2c0.4,0.3,1.7,1,3.7,1.9c1.9,0.9,3.2,1.8,4,2.8
		C136.1,17.5,136.5,18.8,136.5,20.3z"/>
	<path class="st1" d="M151.8,27l-0.7-2.1h-0.3c-0.5,0.8-1.2,1.4-2.1,1.8c-0.9,0.4-1.9,0.6-3.1,0.6c-1.9,0-3.4-0.5-4.4-1.6
		c-1-1.1-1.6-2.6-1.6-4.6V9.9h5.9v9.4c0,1.1,0.2,2,0.5,2.5c0.3,0.6,0.8,0.9,1.6,0.9c1,0,1.7-0.4,2.2-1.2c0.4-0.8,0.7-2.2,0.7-4.1
		V9.9h5.9V27H151.8z"/>
	<path class="st1" d="M170.8,14.3h-3.6V27h-5.9V14.3H159v-2.9l2.4-1.5V9.6c0-2.3,0.5-3.9,1.4-4.9c0.9-1,2.4-1.5,4.4-1.5
		c0.8,0,1.5,0.1,2.2,0.2c0.7,0.1,1.5,0.3,2.4,0.6l-1.3,3.8c-0.7-0.2-1.4-0.3-2.1-0.3c-0.5,0-0.8,0.1-1,0.4c-0.2,0.3-0.3,0.7-0.3,1.4
		v0.5h3.6V14.3z M183.6,14.3H180V27H174V14.3h-2.3v-2.9l2.4-1.5V9.6c0-2.3,0.5-3.9,1.4-4.9c0.9-1,2.4-1.5,4.4-1.5
		c0.8,0,1.5,0.1,2.2,0.2s1.5,0.3,2.4,0.6l-1.3,3.8c-0.7-0.2-1.4-0.3-2.1-0.3c-0.5,0-0.8,0.1-1,0.4c-0.2,0.3-0.3,0.7-0.3,1.4v0.5h3.6
		V14.3z"/>
	<path class="st1" d="M194.2,27.3c-2.9,0-5.1-0.8-6.7-2.3c-1.6-1.5-2.4-3.7-2.4-6.5c0-2.9,0.7-5.1,2.2-6.7c1.5-1.5,3.6-2.3,6.3-2.3
		c2.6,0,4.6,0.7,6,2c1.4,1.3,2.1,3.3,2.1,5.8V20h-10.6c0,1,0.4,1.7,1.1,2.3c0.7,0.5,1.6,0.8,2.7,0.8c1,0,2-0.1,2.9-0.3
		c0.9-0.2,1.8-0.5,2.8-1V26c-0.9,0.5-1.9,0.8-2.9,1S195.6,27.3,194.2,27.3z M193.9,13.6c-0.7,0-1.3,0.2-1.7,0.7
		c-0.5,0.4-0.7,1.1-0.8,2.1h5.1c0-0.8-0.3-1.5-0.7-2C195.2,13.8,194.6,13.6,193.9,13.6z"/>
	<path class="st1" d="M211,27h-5.9V3.4h5.9V27z"/>
</g>
</svg>
