<?xml version="1.0" encoding="utf-8"?>
<!-- Generator: Adobe Illustrator 20.1.0, SVG Export Plug-In . SVG Version: 6.00 Build 0)  -->
<svg version="1.1" id="Layer_1" xmlns="http://www.w3.org/2000/svg" xmlns:xlink="http://www.w3.org/1999/xlink" x="0px" y="0px"
	 viewBox="0 0 350 30" style="enable-background:new 0 0 350 30;" xml:space="preserve">
<style type="text/css">
	.st0{fill:#FFBB00;}
	.st1{fill:#FFFFFF;}
</style>
<g>
	<path class="st0" d="M120.8,26h-17.2v-3.7l9.6-13.6h-9.4V3.9h16.8v3.7L111,21.2h9.8V26z"/>
	<path class="st1" d="M131.9,26.3c-2.9,0-5.1-0.8-6.7-2.3c-1.6-1.5-2.4-3.7-2.4-6.5c0-2.9,0.7-5.1,2.2-6.7c1.5-1.5,3.6-2.3,6.3-2.3
		c2.6,0,4.6,0.7,6,2c1.4,1.3,2.1,3.3,2.1,5.8V19h-10.6c0,1,0.4,1.7,1.1,2.3c0.7,0.5,1.6,0.8,2.7,0.8c1,0,2-0.1,2.9-0.3
		c0.9-0.2,1.8-0.5,2.8-1V25c-0.9,0.5-1.9,0.8-2.9,1C134.4,26.2,133.3,26.3,131.9,26.3z M131.5,12.6c-0.7,0-1.3,0.2-1.7,0.7
		c-0.5,0.4-0.7,1.1-0.8,2.1h5.1c0-0.8-0.3-1.5-0.7-2C132.9,12.8,132.3,12.6,131.5,12.6z"/>
	<path class="st1" d="M148.7,26h-5.9V2.4h5.9V26z"/>
	<path class="st1" d="M164,26l-1.1-2.3h-0.1c-0.8,1-1.6,1.7-2.4,2c-0.8,0.4-1.9,0.5-3.2,0.5c-1.6,0-2.9-0.5-3.8-1.5
		c-0.9-1-1.4-2.3-1.4-4.1c0-1.8,0.6-3.2,1.9-4.1c1.3-0.9,3.1-1.4,5.5-1.5l2.9-0.1v-0.2c0-1.4-0.7-2.1-2.1-2.1
		c-1.3,0-2.8,0.4-4.8,1.3l-1.7-3.9c2-1,4.5-1.5,7.6-1.5c2.2,0,3.9,0.5,5.1,1.6c1.2,1.1,1.8,2.6,1.8,4.6V26H164z M159.6,22.1
		c0.7,0,1.3-0.2,1.8-0.7c0.5-0.5,0.8-1,0.8-1.8v-1.3l-1.4,0.1c-1.9,0.1-2.9,0.8-2.9,2.1C157.9,21.6,158.5,22.1,159.6,22.1z"/>
	<path class="st1" d="M182.9,26v-9.4c0-1.1-0.2-2-0.5-2.6c-0.3-0.6-0.9-0.9-1.6-0.9c-1,0-1.7,0.4-2.2,1.2c-0.4,0.8-0.7,2.2-0.7,4.1
		V26h-5.9V8.9h4.5l0.7,2.1h0.3c0.5-0.8,1.2-1.4,2.1-1.8c0.9-0.4,1.9-0.6,3.1-0.6c1.9,0,3.4,0.6,4.4,1.6c1.1,1.1,1.6,2.6,1.6,4.6V26
		H182.9z"/>
	<path class="st1" d="M198.2,26.3c-1.2,0-2.3-0.3-3.2-1c-0.9-0.7-1.6-1.7-2.1-3.1c-0.5-1.4-0.7-2.9-0.7-4.7c0-2.8,0.6-5,1.7-6.5
		s2.7-2.4,4.6-2.4c1,0,1.8,0.2,2.5,0.6c0.7,0.4,1.4,1,2,1.9h0.1c-0.2-1.3-0.3-2.7-0.3-4V2.4h6V26h-4.5l-1.3-2.2h-0.2
		C201.7,25.5,200.2,26.3,198.2,26.3z M200.6,21.6c0.9,0,1.6-0.3,2-0.9c0.4-0.6,0.6-1.5,0.6-2.8v-0.5c0-1.5-0.2-2.6-0.7-3.2
		c-0.4-0.6-1.1-1-2-1c-0.8,0-1.4,0.4-1.8,1.1c-0.4,0.7-0.6,1.8-0.6,3.1c0,1.3,0.2,2.3,0.7,3S199.8,21.6,200.6,21.6z"/>
	<path class="st1" d="M229.2,17.4c0,2.8-0.8,5-2.3,6.6c-1.5,1.6-3.6,2.4-6.3,2.4c-2.6,0-4.7-0.8-6.2-2.4c-1.5-1.6-2.3-3.8-2.3-6.5
		c0-2.8,0.8-5,2.3-6.5c1.5-1.5,3.6-2.3,6.3-2.3c1.7,0,3.2,0.4,4.5,1.1c1.3,0.7,2.3,1.7,3,3.1C228.8,14,229.2,15.6,229.2,17.4z
		 M218.1,17.4c0,1.5,0.2,2.6,0.6,3.4c0.4,0.8,1.1,1.2,2,1.2c0.9,0,1.6-0.4,1.9-1.2c0.4-0.8,0.6-1.9,0.6-3.4c0-1.5-0.2-2.6-0.6-3.3
		c-0.4-0.7-1-1.1-2-1.1c-0.9,0-1.6,0.4-2,1.1C218.3,14.8,218.1,15.9,218.1,17.4z"/>
</g>
</svg>
